<mxfile host="Electron" agent="Mozilla/5.0 (Windows NT 10.0; Win64; x64) AppleWebKit/537.36 (KHTML, like Gecko) draw.io/26.0.9 Chrome/128.0.6613.186 Electron/32.2.5 Safari/537.36" version="26.0.9">
  <diagram id="YQE-ggZKyMk2FIW42Z14" name="Page-1">
    <mxGraphModel dx="1591" dy="869" grid="1" gridSize="10" guides="1" tooltips="1" connect="1" arrows="1" fold="1" page="1" pageScale="1" pageWidth="850" pageHeight="1100" math="0" shadow="0">
      <root>
        <mxCell id="0" />
        <mxCell id="1" parent="0" />
        <mxCell id="S7hA1KW036Cgnqv6eDFZ-20" value="" style="rounded=0;orthogonalLoop=1;jettySize=auto;html=1;" edge="1" parent="1" source="Rg2q4Fr_N2kqhu6swv87-5" target="Rg2q4Fr_N2kqhu6swv87-6">
          <mxGeometry relative="1" as="geometry" />
        </mxCell>
        <mxCell id="Rg2q4Fr_N2kqhu6swv87-5" value="" style="shape=image;verticalLabelPosition=bottom;verticalAlign=top;imageAspect=0;aspect=fixed;image=data:image/svg+xml,PHN2ZyB4bWxuczp4bGluaz0iaHR0cDovL3d3dy53My5vcmcvMTk5OS94bGluayIgeG1sbnM9Imh0dHA6Ly93d3cudzMub3JnLzIwMDAvc3ZnIiBwcmVzZXJ2ZUFzcGVjdFJhdGlvPSJ4TWlkWU1pZCIgdmVyc2lvbj0iMS4xIiB2aWV3Qm94PSIwIDAgNTExLjkxNjQ0Mjg3MTA5Mzc1IDEyNC43MTI0MTc2MDI1MzkwNiIgaGVpZ2h0PSIxOTQuODYzMTUyNTAzOTY3MjkiIHdpZHRoPSI3OTkuODY5NDQxOTg2MDg0Ij4mI3hhOwkJPGc+JiN4YTsJCQkJPHBhdGggZmlsbD0iIzA3MDcwNyIgZD0iTTI2OS4wMDEzNyw5OS4zMTI1MzI2IEMyNjAuNjA0MjkxLDEwNS4wMTg0NTkgMjQ5LjEzNzA4MywxMDIuODI5NzY4IDI0My40MjY4OTksOTQuNDMyNjg4NCBDMjM3LjcxNjcxNCw4Ni4wMzU2MDkyIDIzOS45MDk2NjQsNzQuNTY0MTQyOSAyNDguMzA2NzQzLDY4Ljg0NTQ0MjQgQzI1Ni42OTk1NjQsNjMuMTM5NTE2MyAyNjguMTcxMDMsNjUuMzMyNDY1NSAyNzMuODgxMjE0LDczLjcyOTU0NDggQzI3OS41OTU2NTcsODIuMTIyMzY1OCAyNzcuNDA2OTY2LDkzLjU5ODA5MDMgMjY5LjAwMTM3LDk5LjMxMjUzMjYgTTI4MC4zOTYxOSw2OS4zMDEwNjQ4IEMyNzIuMjQxODI1LDU3LjI4NDU1NDkgMjU1Ljg4MTk5OCw1NC4xNzYxMDI2IDI0My44NzgyNjMsNjIuMzM4OTgzNCBDMjMxLjg2NjAxMSw3MC41MDE4NjQyIDIyOC43NDkwNDMsODYuODU3NDMyOCAyMzYuOTE2MTgyLDk4Ljg2MTE2ODMgQzI0NC4xMzgwMSwxMDkuNDk4MDM2IDI1Ny43NzY4NzcsMTEzLjE0MzAxNiAyNjkuMTM3NjMxLDEwOC4xOTA3ODMgTDI3OS4zMTAzNjEsMTI0LjcxMjQyIEwyODcuMzgzODIsMTE5LjIyNzkxOCBMMjc3LjIxNTM0OSwxMDIuNzA2MjgxIEMyODYuMDA0MTc4LDkzLjk2NDI5MTUgMjg3LjYzMDc5Myw3OS45MjUxNTg1IDI4MC4zOTYxOSw2OS4zMDEwNjQ4IE0wLDEwNi4xMjczMjUgQzMuNzgxMjQwNTUsMTA4LjE3MTIzOCA5LjYwNjM5NDkxLDEwOS43MDQxNzQgMTYuMTQ2OTE5MSwxMDkuNzA0MTc0IEMzMC40NTQzMTU4LDEwOS43MDQxNzQgMzcuNzEwMjA5OCwxMDIuODU3MDYyIDM3LjcxMDIwOTgsOTMuNDU1MDU4OSBDMzcuNjA4MDE0MSw4Ni4xOTkxNjQ5IDMzLjcyNDU3NzksODEuMzk1OTY3NCAyNC4yMjAzNzg3LDc4LjEyNTcwNTMgQzE4LjA4ODYzNzIsNzYuMDgxNzkxNSAxNi4xNDY5MTkxLDc0Ljc1MzI0NzUgMTYuMTQ2OTE5MSw3Mi40MDI3NDY2IEMxNi4xNDY5MTkxLDY5Ljk1MDA1MDEgMTguMjkzMDI4Niw2OC40MTcxMTQ3IDIyLjA3NDI2OTIsNjguNDE3MTE0NyBDMjYuMjY0MjkyNSw2OC40MTcxMTQ3IDMwLjY1ODcwNzIsNzAuMDUyMjQ1NyAzMi45MDcwMTI0LDcxLjE3NjM5ODMgTDM1LjU2NDEwMDMsNjAuNTQ4MDQ2NSBDMzIuNDk4MjI5Niw1OS4wMTUxMTEyIDI3LjM4ODQ0NTEsNTcuNTg0MzcxNSAyMS41NjMyOTA3LDU3LjU4NDM3MTUgQzkuMTk3NjEyMTUsNTcuNTg0MzcxNSAxLjIyNjM0ODI5LDY0LjYzNTg3NDEgMS4yMjYzNDgyOSw3NC4wMzc4Nzc3IEMxLjEyNDE1MjYsNzkuODYzMDMyIDUuMTA5Nzg0NTMsODUuNDgzNzk1IDE1LjUzMzc0NSw4OC45NTg0NDg1IEMyMS4yNTY3MDM2LDkwLjc5Nzk3MDkgMjIuNzg5NjM5LDkyLjEyNjUxNDkgMjIuNzg5NjM5LDk0LjY4MTQwNzIgQzIyLjc4OTYzOSw5Ny4yMzYyOTk0IDIwLjg0NzkyMDksOTguNzY5MjM0OCAxNi4xNDY5MTkxLDk4Ljc2OTIzNDggQzExLjU0ODExMyw5OC43NjkyMzQ4IDUuNjIwNzYyOTgsOTYuODI3NTE2NyAyLjc1OTI4MzY0LDk1LjA5MDE4OTkgTDAsMTA2LjEyNzMyNSBaIE02NS4yMDA4NTA2LDEwOS44MDYzNjkgQzc4LjQ4NjI5MDMsMTA5LjgwNjM2OSA5MS40NjUxNDMsMTAxLjQyNjMyMyA5MS40NjUxNDMsODMuMjM1NDg5OCBDOTEuNDY1MTQzLDY4LjExMDUyNzYgODEuMjQ1NTc0LDU3LjU4NDM3MTUgNjYuMDE4NDE2MSw1Ny41ODQzNzE1IEM0OS44NzE0OTcsNTcuNTg0MzcxNSAzOS4yNDMxNDUyLDY3LjkwNjEzNjIgMzkuMjQzMTQ1Miw4NC4wNTMwNTU0IEMzOS4yNDMxNDUyLDEwMC4xOTk5NzQgNTAuNDg0NjcxMSwxMDkuODA2MzY5IDY1LjA5ODY1NDksMTA5LjgwNjM2OSBMNjUuMjAwODUwNiwxMDkuODA2MzY5IFogTTY1LjQwNTI0MTksOTguNjY3MDM5MSBDNTguODY0NzE3OCw5OC42NjcwMzkxIDU1LjI4Nzg2ODYsOTIuMjI4NzEwNiA1NS4yODc4Njg2LDgzLjc0NjQ2ODMgQzU1LjI4Nzg2ODYsNzYuMjg2MTgyOSA1OC4xNDkzNDc5LDY4LjcyMzcwMTggNjUuNTA3NDM3Niw2OC43MjM3MDE4IEM3Mi41NTg5NDAzLDY4LjcyMzcwMTggNzUuNDIwNDE5Niw3Ni4yODYxODI5IDc1LjQyMDQxOTYsODMuNjQ0MjcyNiBDNzUuNDIwNDE5Niw5Mi42Mzc0OTM0IDcxLjYzOTE3OTEsOTguNjY3MDM5MSA2NS41MDc0Mzc2LDk4LjY2NzAzOTEgTDY1LjQwNTI0MTksOTguNjY3MDM5MSBaIE05NS45NjE3NTM0LDEwOC42ODIyMTcgTDExMS40OTU0OTgsMTA4LjY4MjIxNyBMMTExLjQ5NTQ5OCw3OS44NjMwMzIgQzExMS40OTU0OTgsNzguNDMyMjkyNCAxMTEuNTk3Njk0LDc3LjAwMTU1MjcgMTEyLjAwNjQ3Nyw3NS45Nzk1OTU4IEMxMTMuMTMwNjI5LDczLjExODExNjUgMTE1LjY4NTUyMiw3MC4xNTQ0NDE0IDExOS45Nzc3NDEsNzAuMTU0NDQxNCBDMTI1LjU5ODUwNCw3MC4xNTQ0NDE0IDEyNy44NDY4MDksNzQuNTQ4ODU2MSAxMjcuODQ2ODA5LDgwLjk4NzE4NDYgTDEyNy44NDY4MDksMTA4LjY4MjIxNyBMMTQzLjM4MDU1NCwxMDguNjgyMjE3IEwxNDMuMzgwNTU0LDc5LjE0NzY2MjIgQzE0My4zODA1NTQsNjQuNDMxNDgyOCAxMzUuNzE1ODc3LDU3LjU4NDM3MTUgMTI1LjQ5NjMwOCw1Ny41ODQzNzE1IEMxMTcuMTE2MjYxLDU3LjU4NDM3MTUgMTEyLjEwODY3Myw2Mi4zODc1NjkgMTEwLjA2NDc1OSw2NS42NTc4MzExIEwxMDkuNzU4MTcyLDY1LjY1NzgzMTEgTDEwOS4wNDI4MDIsNTguNzA4NTI0MSBMOTUuNTUyOTcwNyw1OC43MDg1MjQxIEM5NS43NTczNjIsNjMuMjA1MTM0NSA5NS45NjE3NTM0LDY4LjQxNzExNDcgOTUuOTYxNzUzNCw3NC42NTEwNTE4IEw5NS45NjE3NTM0LDEwOC42ODIyMTcgWiBNMTkyLjMzMjI5LDc5LjE0NzY2MjIgQzE5Mi4zMzIyOSw2Ny4zOTUxNTc4IDE4Ny4xMjAzMDksNTcuNTg0MzcxNSAxNzAuNDYyNDEyLDU3LjU4NDM3MTUgQzE2MS4zNjY5OTUsNTcuNTg0MzcxNSAxNTQuNTE5ODg0LDYwLjEzOTI2MzggMTUxLjA0NTIzMSw2Mi4wODA5ODE5IEwxNTMuOTA2NzEsNzEuOTkzOTYzOSBDMTU3LjE3Njk3Miw3MC4wNTIyNDU3IDE2Mi41OTMzNDQsNjguMzE0OTE5IDE2Ny43MDMxMjgsNjguMzE0OTE5IEMxNzUuMzY3ODA1LDY4LjMxNDkxOSAxNzYuNzk4NTQ1LDcyLjA5NjE1OTYgMTc2Ljc5ODU0NSw3NC43NTMyNDc1IEwxNzYuNzk4NTQ1LDc1LjM2NjQyMTcgQzE1OS4xMTg2OSw3NS4zNjY0MjE3IDE0Ny40NjgzODEsODEuNDk4MTYzMSAxNDcuNDY4MzgxLDk0LjQ3NzAxNTggQzE0Ny40NjgzODEsMTAyLjQ0ODI4IDE1My40OTc5MjcsMTA5LjgwNjM2OSAxNjMuNjE1MzAxLDEwOS44MDYzNjkgQzE2OS41NDI2NTEsMTA5LjgwNjM2OSAxNzQuNjUyNDM1LDEwNy42NjAyNiAxNzcuOTIyNjk3LDEwMy42NzQ2MjggTDE3OC4yMjkyODQsMTAzLjY3NDYyOCBMMTc5LjE0OTA0NiwxMDguNjgyMjE3IEwxOTMuMTQ5ODU1LDEwOC42ODIyMTcgQzE5Mi41MzY2ODEsMTA1LjkyMjkzMyAxOTIuMzMyMjksMTAxLjMyNDEyNyAxOTIuMzMyMjksOTYuNjIzMTI1MyBMMTkyLjMzMjI5LDc5LjE0NzY2MjIgWiBNMTc3LjMwOTUyMyw5MC40OTEzODM5IEMxNzcuMzA5NTIzLDkxLjQxMTE0NTEgMTc3LjIwNzMyNyw5Mi4zMzA5MDYzIDE3Ny4wMDI5MzYsOTMuMTQ4NDcxOCBDMTc1Ljk4MDk3OSw5Ni4zMTY1MzgyIDE3Mi43MTA3MTcsOTguODcxNDMwNSAxNjguOTI5NDc2LDk4Ljg3MTQzMDUgQzE2NS40NTQ4MjMsOTguODcxNDMwNSAxNjIuNzk3NzM1LDk2LjkyOTcxMjQgMTYyLjc5NzczNSw5Mi45NDQwODA0IEMxNjIuNzk3NzM1LDg3LjAxNjczMDQgMTY5LjEzMzg2OCw4NS4wNzUwMTIzIDE3Ny4zMDk1MjMsODUuMDc1MDEyMyBMMTc3LjMwOTUyMyw5MC40OTEzODM5IFogTTE5OS41ODgxODQsMTA4LjY4MjIxNyBMMjE1LjEyMTkyOSwxMDguNjgyMjE3IEwyMTUuMTIxOTI5LDgzLjQzOTg4MTIgQzIxNS4xMjE5MjksODIuMTExMzM3MiAyMTUuMjI0MTI0LDgwLjk4NzE4NDYgMjE1LjQyODUxNiw3OS45NjUyMjc3IEMyMTYuNDUwNDczLDc1LjA1OTgzNDYgMjIwLjMzMzkwOSw3Mi4wOTYxNTk2IDIyNi4wNTY4NjcsNzIuMDk2MTU5NiBDMjI3Ljc5NDE5NCw3Mi4wOTYxNTk2IDIyOS4wMjA1NDIsNzIuMzAwNTUwOSAyMzAuMjQ2ODkxLDcyLjUwNDk0MjMgTDIzMC4yNDY4OTEsNTcuODkwOTU4NiBDMjI5LjEyMjczOCw1Ny42ODY1NjcyIDIyOC40MDczNjgsNTcuNTg0MzcxNSAyMjYuOTc2NjI5LDU3LjU4NDM3MTUgQzIyMi4wNzEyMzYsNTcuNTg0MzcxNSAyMTYuMDQxNjksNjAuNjUwMjQyMiAyMTMuNDg2Nzk4LDY4LjAwODMzMTkgTDIxMy4wNzgwMTUsNjguMDA4MzMxOSBMMjEyLjQ2NDg0MSw1OC43MDg1MjQxIEwxOTkuMTc5NDAxLDU4LjcwODUyNDEgQzE5OS40ODU5ODgsNjMuMDAwNzQzMSAxOTkuNTg4MTg0LDY3LjgwMzk0MDYgMTk5LjU4ODE4NCw3NS4xNjIwMzAzIEwxOTkuNTg4MTg0LDEwOC42ODIyMTcgWiBNMzMxLjY0ODY0OSw1OS40OTY1ODA2IEwzMjIuNjU1NDI4LDU5LjQ5NjU4MDYgTDMyMi42NTU0MjgsODkuNzQ2NTA1IEMzMjIuNjU1NDI4LDkxLjQ4MzgzMTggMzIyLjM0ODg0MSw5My4xMTg5NjI4IDMyMS44Mzc4NjIsOTQuMzQ1MzExMSBDMzIwLjIwMjczMSw5OC40MzMxMzg3IDMxNi4wMTI3MDgsMTAyLjYyMzE2MiAzMDkuOTgzMTYyLDEwMi42MjMxNjIgQzMwMS45MDk3MDMsMTAyLjYyMzE2MiAyOTguOTQ2MDI4LDk2LjE4NDgzMzUgMjk4Ljk0NjAyOCw4Ni43ODI4MyBMMjk4Ljk0NjAyOCw1OS40OTY1ODA2IEwyODkuOTUyODA3LDU5LjQ5NjU4MDYgTDI4OS45NTI4MDcsODguNDE3OTYxIEMyODkuOTUyODA3LDEwNS42ODkwMzMgMjk5LjI1MjYxNSwxMTAuMDgzNDQ3IDMwNy4wMTk0ODcsMTEwLjA4MzQ0NyBDMzE1LjgwODMxNywxMTAuMDgzNDQ3IDMyMS4xMjI0OTIsMTA0Ljg3MTQ2NyAzMjMuMzcwNzk4LDEwMC44ODU4MzUgTDMyMy41NzUxODksMTAwLjg4NTgzNSBMMzI0LjA4NjE2NywxMDguOTU5Mjk1IEwzMzIuMDU3NDMxLDEwOC45NTkyOTUgQzMzMS43NTA4NDQsMTA1LjA3NTg1OSAzMzEuNjQ4NjQ5LDEwMC41NzkyNDggMzMxLjY0ODY0OSw5NS4zNjcyNjggTDMzMS42NDg2NDksNTkuNDk2NTgwNiBaIE0zNDEuNDU5NDM1LDk2LjE4NDgzMzUgQzM0MS40NTk0MzUsMTAwLjU3OTI0OCAzNDEuMzU3MjM5LDEwNS41ODY4MzcgMzQxLjA1MDY1MiwxMDguOTU5Mjk1IEwzNDguODE3NTI1LDEwOC45NTkyOTUgTDM0OS4zMjg1MDMsMTAwLjc4MzY0IEwzNDkuNTMyODk0LDEwMC43ODM2NCBDMzUzLjMxNDEzNSwxMDcuMzI0MTY0IDM1OC45MzQ4OTgsMTEwLjA4MzQ0NyAzNjYuMDg4NTk2LDExMC4wODM0NDcgQzM3Ny4xMjU3MzEsMTEwLjA4MzQ0NyAzODguMzY3MjU3LDEwMS4yOTQ2MTggMzg4LjM2NzI1Nyw4My41MTI1Njc5IEMzODguMzY3MjU3LDY4LjU5MTk5NzEgMzc5Ljc4MjgxOSw1OC4zNzI0MjggMzY3LjUxOTMzNiw1OC4zNzI0MjggQzM1OS41NDgwNzIsNTguMzcyNDI4IDM1My44MjUxMTMsNjEuODQ3MDgxNSAzNTAuNjU3MDQ3LDY3LjM2NTY0ODggTDM1MC40NTI2NTYsNjcuMzY1NjQ4OCBMMzUwLjQ1MjY1NiwzNi40MDAzNTQ2IEwzNDEuNDU5NDM1LDM2LjQwMDM1NDYgTDM0MS40NTk0MzUsOTYuMTg0ODMzNSBaIE0zNTAuNDUyNjU2LDgwLjI0MjMwNTggQzM1MC40NTI2NTYsNzguODExNTY2MSAzNTAuNjU3MDQ3LDc3LjU4NTIxNzggMzUwLjk2MzYzNCw3Ni40NjEwNjUyIEMzNTIuNzAwOTYxLDY5LjcxNjE0OTcgMzU4LjQyMzkxOSw2NS40MjM5MzA3IDM2NC41NTU2NjEsNjUuNDIzOTMwNyBDMzc0LjE2MjA1Niw2NS40MjM5MzA3IDM3OS4yNzE4NCw3My45MDYxNzMgMzc5LjI3MTg0LDgzLjkyMTM1MDcgQzM3OS4yNzE4NCw5NS4yNjUwNzIzIDM3My43NTMyNzMsMTAyLjkyOTc0OSAzNjQuMjQ5MDc0LDEwMi45Mjk3NDkgQzM1Ny44MTA3NDUsMTAyLjkyOTc0OSAzNTIuNDk2NTY5LDk4LjYzNzUzMDEgMzUwLjc1OTI0Myw5Mi40MDM1OTMgQzM1MC41NTQ4NTEsOTEuMzgxNjM2MSAzNTAuNDUyNjU2LDkwLjI1NzQ4MzUgMzUwLjQ1MjY1Niw4OS4xMzMzMzA5IEwzNTAuNDUyNjU2LDgwLjI0MjMwNTggWiBNNDM0LjI1MzEyMiw4NS44NjMwNjg4IEM0MzQuNDU3NTEzLDg0Ljg0MTExMTkgNDM0LjU1OTcwOSw4My41MTI1Njc5IDQzNC41NTk3MDksODEuNjczMDQ1NSBDNDM0LjU1OTcwOSw3Mi41Nzc2MjkgNDMwLjM2OTY4Niw1OC4zNzI0MjggNDE0LjIyMjc2Nyw1OC4zNzI0MjggQzM5OS44MTMxNzQsNTguMzcyNDI4IDM5MC45MjIxNDksNzAuMTI0OTMyNCAzOTAuOTIyMTQ5LDg1LjA0NTUwMzMgQzM5MC45MjIxNDksOTkuODYzODc4NCA0MDAuMTE5NzYxLDEwOS45ODEyNTIgNDE1LjI0NDcyMywxMDkuOTgxMjUyIEM0MjMuMTEzNzkyLDEwOS45ODEyNTIgNDI4LjYzMjM1OSwxMDguMjQzOTI1IDQzMS44MDA0MjUsMTA2LjgxMzE4NSBMNDMwLjE2NTI5NCwxMDAuMzc0ODU3IEM0MjYuODk1MDMyLDEwMS44MDU1OTYgNDIyLjkwOTQsMTAyLjkyOTc0OSA0MTYuNDcxMDcyLDEwMi45Mjk3NDkgQzQwNy40Nzc4NTEsMTAyLjkyOTc0OSAzOTkuODEzMTc0LDk3LjkyMjE2MDMgMzk5LjYwODc4Myw4NS44NjMwNjg4IEw0MzQuMjUzMTIyLDg1Ljg2MzA2ODggWiBNMzk5LjcxMDk3OCw3OS40MjQ3NDAzIEM0MDAuNDI2MzQ4LDczLjE5MDgwMzEgNDA0LjMwOTc4NSw2NC44MTA3NTY1IDQxMy41MDczOTcsNjQuODEwNzU2NSBDNDIzLjUyMjU3NCw2NC44MTA3NTY1IDQyNS45NzUyNzEsNzMuNzAxNzgxNiA0MjUuODczMDc1LDc5LjQyNDc0MDMgTDM5OS43MTA5NzgsNzkuNDI0NzQwMyBaIj4mI3hhOyYjeGE7PC9wYXRoPiYjeGE7CQkJCTxwYXRoIGZpbGwtcnVsZT0ibm9uemVybyIgZmlsbD0iIzQ5OUNEMiIgZD0iTTQ5Ni42OTM1MzUsMTA4Ljc4NzMxMyBMNDkwLjQwODUsMTA4Ljc4NzMxMyBDNDkwLjQwODUsNTguMTYyMTIyNCA0NDguNjM2MDExLDE2Ljk3NzI1OTEgMzk3LjI5NTQ1MSwxNi45NzcyNTkxIEwzOTcuMjk1NDUxLDEwLjY5MjIyNDEgQzQ1Mi4xMDY0MDYsMTAuNjkyMjI0MSA0OTYuNjkzNTM1LDU0LjY4NzQ2ODkgNDk2LjY5MzUzNSwxMDguNzg3MzEzIFogTTUwMS4wMzY4NTEsNzUuMDIwMTUzMiBDNDkzLjQ5NTY2MSw0My4yNjI4NDIzIDQ2Ny43NTkzOCwxNi43NTU4MzUxIDQzNS40OTEwOSw3LjQ5MDA5MjQ5IEw0MzYuOTM4ODYzLDIuNDUyNjk2NTcgQzQ3MC45OTU1NzYsMTIuMjMzNjc1OCA0OTguMTU4MzM5LDQwLjIzNTI5NSA1MDYuMTI5NjAzLDczLjgwNjU3OTMgTDUwMS4wMzY4NTEsNzUuMDIwMTUzMiBaIE01MDguMTEzOTAzLDQ1LjIxNzMzNDkgQzUwMC4zMzg1MTQsMjguMjYxMzY2NiA0ODcuMDc4NjIzLDEzLjQ3Mjc5ODUgNDcwLjgwODIxOCwzLjU4MTEwNzMyIEw0NzIuOTg0MTM0LDAgQzQ4OS45NzQxNjgsMTAuMzMwMjgxMSA1MDMuNzkxODc3LDI1Ljc1NzU3MjIgNTExLjkxNjQzNCw0My40NjcyMzM3IEw1MDguMTEzOTAzLDQ1LjIxNzMzNDkgWiI+JiN4YTsmI3hhOzwvcGF0aD4mI3hhOwkJPC9nPiYjeGE7PC9zdmc+" vertex="1" parent="1">
          <mxGeometry x="690.12" y="459.5" width="129.23" height="31.5" as="geometry" />
        </mxCell>
        <mxCell id="S7hA1KW036Cgnqv6eDFZ-21" value="" style="rounded=0;orthogonalLoop=1;jettySize=auto;html=1;" edge="1" parent="1" source="Rg2q4Fr_N2kqhu6swv87-6" target="Rg2q4Fr_N2kqhu6swv87-11">
          <mxGeometry relative="1" as="geometry" />
        </mxCell>
        <mxCell id="Rg2q4Fr_N2kqhu6swv87-6" value="" style="shape=image;verticalLabelPosition=bottom;verticalAlign=top;imageAspect=0;aspect=fixed;image=data:image/svg+xml,PHN2ZyB4bWxucz0iaHR0cDovL3d3dy53My5vcmcvMjAwMC9zdmciIHZpZXdCb3g9IjAgMCAyNCAyNCIgaGVpZ2h0PSI4MDBweCIgd2lkdGg9IjgwMHB4Ij4mI3hhOyAgPHBhdGggZD0iTTYuOTQyMjEwOTksMTQuOTAwMjM0NCBDNi45OTgwNjIxLDE0LjkwMDIzNDQgNy4wNTEyODIxMSwxNC45MTA3NTg4IDcuMTAwNDM1ODYsMTQuOTI5Nzc0NSBDNy4wNDcyMTU4NiwxNC45NjA2MzAyIDcuMDExMDk4MDEsMTUuMDE4MzM1IDcuMDExMDk4MDEsMTUuMDg0MjkxOSBDNy4wMTEwOTgwMSwxNS4xODI4OTg0IDcuMDkwOTg3ODIsMTUuMjYyNjY4NiA3LjE4OTU5NDMyLDE1LjI2MjY2ODYgQzcuMjU3MTA1OTksMTUuMjYyNjY4NiA3LjMxNTcwNzc5LDE1LjIyNTE3NTQgNy4zNDYwODUwNiwxNS4xNjk4MDI3IEM3LjM2NzQzMjg2LDE1LjIyMTQwODIgNy4zNzkzOTI0MSwxNS4yNzgwMzY3IDcuMzc5MzkyNDEsMTUuMzM3NDc1NiBDNy4zNzkzOTI0MSwxNS41Nzg5MzkgNy4xODM2MTQ1NSwxNS43NzQ2NTcgNi45NDIyMTA5OSwxNS43NzQ2NTcgQzYuNzAwODA3NDQsMTUuNzc0NjU3IDYuNTA0OTY5NzgsMTUuNTc4OTM5IDYuNTA0OTY5NzgsMTUuMzM3NDc1NiBDNi41MDQ5Njk3OCwxNS4wOTU5NTI1IDYuNzAwODA3NDQsMTQuOTAwMjM0NCA2Ljk0MjIxMDk5LDE0LjkwMDIzNDQgTDYuOTQyMjEwOTksMTQuOTAwMjM0NCBaIE02Ljk0MjIxMDk5LDE2LjA4NTM2NjIgQzYuNTI5Nzg1ODUsMTYuMDg1MzY2MiA2LjE5NDIwMDgzLDE1Ljc0OTkwMDggNi4xOTQyMDA4MywxNS4zMzc0NzU2IEM2LjE5NDIwMDgzLDE0LjkyNTA1MDUgNi41Mjk3ODU4NSwxNC41ODk1MjUzIDYuOTQyMjEwOTksMTQuNTg5NTI1MyBDNy4zNTQ1NzYzNCwxNC41ODk1MjUzIDcuNjkwMTAxNTYsMTQuOTI1MDUwNSA3LjY5MDEwMTU2LDE1LjMzNzQ3NTYgQzcuNjkwMTAxNTYsMTUuNzQ5OTAwOCA3LjM1NDU3NjM0LDE2LjA4NTM2NjIgNi45NDIyMTA5OSwxNi4wODUzNjYyIEw2Ljk0MjIxMDk5LDE2LjA4NTM2NjIgWiBNMjAuMzg1OTQzMSwxMS4xODM4MDM3IEMxOC4yNjE5ODY1LDE2LjgxMTc4OTQgMTMuNDY1MzA5MywxOS4zMTg2MzEgNy44MTAyMzUyNiwxOS4zMTg2MzEgQzUuMTM4MjMyMjIsMTkuMzE4NjMxIDMuMDA2NTYxNzIsMTguMzk5NTk5MiAxLjY0MzIzMjYyLDE2Ljg2NzIyMTkgTDEuNjUzMjc4NjUsMTYuODYwNTg0MyBDMi4wNDYwOTAxMiwxNi44ODA0OTcgMi4zOTc1ODEzNSwxNi44ODcyNTQxIDIuNzU0Mzk0NTcsMTYuODg3MjU0MSBDMy4wODA2NTExNCwxNi44ODcyNTQxIDMuMzk5NzkxNzgsMTYuODgzODQ1NyAzLjY5NTM3MjEsMTYuODY3MjIxOSBDMy43MjEwODUxNCwxNi44NjU3ODY3IDMuNzUzMjU2MzMsMTYuODYyMTk4OSAzLjc3ODc4OTk3LDE2Ljg2MDU4NDMgQzMuNzc5MDI5MTYsMTYuODYwNTI0NSAzLjg2OTk4MTU1LDE2Ljg1NDYwNDYgMy44MjU0OTIwMiwxNi44NTM4ODcgQzQuNTc2NjcxNDYsMTYuODA3NTQzNyA1LjE1ODkyMjI0LDE2LjcwMzEzNjggNS43MDE4ODU4OSwxNi41NDgyMDA4IEM1LjcwMjAwNTQ4LDE2LjU0ODE0MSA1LjcwMjEyNTA4LDE2LjU0ODE0MSA1LjcwMjI0NDY3LDE2LjU0ODA4MTIgQzUuODAwOTEwOTgsMTYuNTE5ODU2NyA1Ljg5NjU4NzM5LDE2LjQ5MDEzNzIgNS45ODgyNTczNSwxNi40NTgzODQ2IEM2LjA5MDgxMDUxLDE2LjQyMjgwNDkgNi4xNDUxMDY4NywxNi4zMTA4NjM1IDYuMTA5NTg3LDE2LjIwODMxMDQgQzYuMDc0MDY3MTQsMTYuMTA1Njk3NCA1Ljk2MjE4NTUzLDE2LjA1MTI4MTUgNS44NTk1NzI1OCwxNi4wODY5ODA3IEM1LjE2OTkyNTAzLDE2LjMyNTkzMjYgNC4yNjAxMDIxMywxNi40NTc0ODc2IDMuMTQ1MDUzMzMsMTYuNDgyMTg0MSBMMy4xNDQ3NTQzNCwxNi40ODIxODQxIEMyLjU3NzM5MzIxLDE2LjQ5NDc0MTYgMS45NTcxNzA4NSwxNi40Nzk3OTIyIDEuMjg0NTA1ODcsMTYuNDM2NTU4NCBMMS4yODQ0NDYwNywxNi40MzY1NTg0IEMxLjE0NTI5NjY5LDE2LjI1MDc2NjggMS4wMTY0OTIzMSwxNi4wNTc2Nzk4IDAuODk4NjkwNzMsMTUuODU3NzE2MSBMMC43MTI0ODA1MSwxNS41MTcyMjc3IEMwLjE0OTkwMzE5OCwxNC40MTEyMDgzIC0wLjA5NjQwMzc2OTYsMTMuMTE5MTU4MiAwLjAzNDMxNDEzMDUsMTEuNzE2MDAzOCBMMTYuMzk2NTM1NiwxMS43MTYwMDM4IEMxNy43NDA3Mjk0LDExLjcxNjAwMzggMTkuMDUzNDY5NiwxMS4yMTQzNjA0IDE5LjY3NjQ0MjcsMTAuNjYwOTkxOSBDMTguNTYwMTM4MSw5Ljc1MzMyMTc0IDE4LjY3MDc2NCw3LjU5NzMxMzU2IDE5LjM4MjIzNzcsNi43NzQ2MTYgQzE5Ljk5OTcwOTMsNy4yNzA3NTggMjAuOTk1NDAxOCw4LjMxNTg0MzQyIDIwLjgyNDE0MSw5LjY0NjIyMzk2IEMyMS42MDExNTMxLDkuMjU1NjI1IDIyLjk1MDYwOTEsOS4wNjI1OTc4MyAyNCw5LjY2ODE2OTczIEMyMy4zNDExNDgzLDEwLjk1NDE4MDMgMjEuODkyOTA2NCwxMS4zMzgzODA5IDIwLjM4NTk0MzEsMTEuMTgzODAzNyBMMjAuMzg1OTQzMSwxMS4xODM4MDM3IFogTTIuMjU1MDgzMjksMTEuMzE4ODg2OSBMNC40Njc3MTk5NSwxMS4zMTg4ODY5IEw0LjQ2NzcxOTk1LDkuMTA2MTMwNiBMMi4yNTUwODMyOSw5LjEwNjEzMDYgTDIuMjU1MDgzMjksMTEuMzE4ODg2OSBaIE00LjgwODA4ODc5LDExLjMxODg4NjkgTDcuMDIwOTY0NjQsMTEuMzE4ODg2OSBMNy4wMjA5NjQ2NCw5LjEwNjEzMDYgTDQuODA4MDg4NzksOS4xMDYxMzA2IEw0LjgwODA4ODc5LDExLjMxODg4NjkgWiBNNC44MDgwODg3OSw4Ljc2NTc2MTc2IEw3LjAyMDk2NDY0LDguNzY1NzYxNzYgTDcuMDIwOTY0NjQsNi41NTMwNjUzIEw0LjgwODA4ODc5LDYuNTUzMDY1MyBMNC44MDgwODg3OSw4Ljc2NTc2MTc2IFogTTcuMzYxMjczNjksMTEuMzE4ODg2OSBMOS41NzQwMjk5NCwxMS4zMTg4ODY5IEw5LjU3NDAyOTk0LDkuMTA2MTMwNiBMNy4zNjEyNzM2OSw5LjEwNjEzMDYgTDcuMzYxMjczNjksMTEuMzE4ODg2OSBaIE03LjM2MTI3MzY5LDguNzY1NzYxNzYgTDkuNTc0MDI5OTQsOC43NjU3NjE3NiBMOS41NzQwMjk5NCw2LjU1MzA2NTMgTDcuMzYxMjczNjksNi41NTMwNjUzIEw3LjM2MTI3MzY5LDguNzY1NzYxNzYgWiBNOS45MTQzMzg5OSwxMS4zMTg4ODY5IEwxMi4xMjcwOTUyLDExLjMxODg4NjkgTDEyLjEyNzA5NTIsOS4xMDYxMzA2IEw5LjkxNDMzODk5LDkuMTA2MTMwNiBMOS45MTQzMzg5OSwxMS4zMTg4ODY5IFogTTkuOTE0MzM4OTksOC43NjU3NjE3NiBMMTIuMTI3MDk1Miw4Ljc2NTc2MTc2IEwxMi4xMjcwOTUyLDYuNTUzMDY1MyBMOS45MTQzMzg5OSw2LjU1MzA2NTMgTDkuOTE0MzM4OTksOC43NjU3NjE3NiBaIE05LjkxNDMzODk5LDYuMjEyNzU2MjYgTDEyLjEyNzA5NTIsNi4yMTI3NTYyNiBMMTIuMTI3MDk1Miw0IEw5LjkxNDMzODk5LDQgTDkuOTE0MzM4OTksNi4yMTI3NTYyNiBaIE0xMi40Njc0MDQzLDExLjMxODg4NjkgTDE0LjY4MDE2MDUsMTEuMzE4ODg2OSBMMTQuNjgwMTYwNSw5LjEwNjEzMDYgTDEyLjQ2NzQwNDMsOS4xMDYxMzA2IEwxMi40Njc0MDQzLDExLjMxODg4NjkgWiIgZmlsbC1ydWxlPSJldmVub2RkIiBmaWxsPSIjMERCN0VEIi8+JiN4YTs8L3N2Zz4=" vertex="1" parent="1">
          <mxGeometry x="717.23" y="338.5" width="75" height="75" as="geometry" />
        </mxCell>
        <mxCell id="S7hA1KW036Cgnqv6eDFZ-34" value="" style="edgeStyle=orthogonalEdgeStyle;rounded=0;orthogonalLoop=1;jettySize=auto;html=1;" edge="1" parent="1" source="Rg2q4Fr_N2kqhu6swv87-9" target="S7hA1KW036Cgnqv6eDFZ-33">
          <mxGeometry relative="1" as="geometry" />
        </mxCell>
        <mxCell id="Rg2q4Fr_N2kqhu6swv87-9" value="" style="shape=image;verticalLabelPosition=bottom;verticalAlign=top;imageAspect=0;aspect=fixed;image=data:image/svg+xml,PHN2ZyB4bWxucz0iaHR0cDovL3d3dy53My5vcmcvMjAwMC9zdmciIHZpZXdCb3g9Ii0xMDUuNDI2OSAtMTcwLjQ5MTUgOTEzLjY5OTggMTAyMi45NDkiIHdpZHRoPSIxMjAwIiBoZWlnaHQ9IjgwMCI+PHBhdGggZmlsbD0iIzMyNmNlNSIgZD0iTTM0OC45ODcuMDZhNDYuNzI1IDQ2LjM0MiAwIDAwLTE3LjkwNyA0LjUzMUw4Ni43MzcgMTIxLjM0MWE0Ni43MjUgNDYuMzQyIDAgMDAtMjUuMjgyIDMxLjQzOGwtNjAuMjggMjYyLjI1YTQ2LjcyNSA0Ni4zNDIgMCAwMDYuMzQzIDM1LjUzMSA0Ni43MjUgNDYuMzQyIDAgMDAyLjY1NiAzLjY4OEwxNzkuMyA2NjQuNTI4YTQ2LjcyNSA0Ni4zNDIgMCAwMDM2LjUzMSAxNy40MzhsMjcxLjIyLS4wNjJhNDYuNzI1IDQ2LjM0MiAwIDAwMzYuNTMtMTcuNDA2bDE2OS4wNjMtMjEwLjMxM2E0Ni43MjUgNDYuMzQyIDAgMDA5LjAzMS0zOS4yMTlMNjQxLjMgMTUyLjcxNmE0Ni43MjUgNDYuMzQyIDAgMDAtMjUuMjgxLTMxLjQzN0wzNzEuNjQzIDQuNTlBNDYuNzI1IDQ2LjM0MiAwIDAwMzQ4Ljk4Ny4wNnoiLz48cGF0aCBzdHJva2Utd2lkdGg9Ii4yNSIgc3Ryb2tlPSIjZmZmIiBmaWxsPSIjZmZmIiBvdmVyZmxvdz0idmlzaWJsZSIgZm9udC1mYW1pbHk9IlNhbnMiIGZvbnQtd2VpZ2h0PSI0MDAiIGNvbG9yPSIjMDAwIiBkPSJNMzUxLjQwOCA4OS4zMDdjLTguMDc3LjAwMS0xNC42MjYgNy4yNzYtMTQuNjI1IDE2LjI1IDAgLjEzOC4wMjguMjcuMDMxLjQwNi0uMDEyIDEuMjItLjA3IDIuNjg5LS4wMzEgMy43NS4xOTIgNS4xNzYgMS4zMiA5LjEzOCAyIDEzLjkwNyAxLjIzIDEwLjIwNiAyLjI2IDE4LjY2NyAxLjYyNSAyNi41MzEtLjYxOSAyLjk2NS0yLjgwMyA1LjY3Ny00Ljc1IDcuNTYybC0uMzQ0IDYuMTg4YTE5MC4zMzcgMTkwLjMzNyAwIDAwLTI2LjQzNyA0LjA2MmMtMzcuOTc1IDguNjIzLTcwLjY3IDI4LjE4NC05NS41NjMgNTQuNTk0YTI0NS4xNjcgMjQ1LjE2NyAwIDAxLTUuMjgxLTMuNzVjLTIuNjExLjM1My01LjI1IDEuMTU5LTguNjg4LS44NDQtNi41NDUtNC40MDUtMTIuNTA2LTEwLjQ4Ni0xOS43MTktMTcuODEyLTMuMzA1LTMuNTA0LTUuNjk4LTYuODQxLTkuNjI1LTEwLjIxOS0uODkxLS43NjctMi4yNTItMS44MDQtMy4yNS0yLjU5NC0zLjA3LTIuNDQ3LTYuNjktMy43MjQtMTAuMTg3LTMuODQzLTQuNDk2LS4xNTQtOC44MjQgMS42MDQtMTEuNjU2IDUuMTU2LTUuMDM2IDYuMzE1LTMuNDIzIDE1Ljk2OCAzLjU5MyAyMS41NjIuMDcyLjA1Ny4xNDcuMTAxLjIyLjE1Ny45NjMuNzgxIDIuMTQ0IDEuNzgzIDMuMDMgMi40MzcgNC4xNjcgMy4wNzcgNy45NzQgNC42NTIgMTIuMTI1IDcuMDk0IDguNzQ3IDUuNDAyIDE1Ljk5OSA5Ljg4IDIxLjc1IDE1LjI4MSAyLjI0NiAyLjM5NCAyLjYzOSA2LjYxMyAyLjkzOCA4LjQzOGw0LjY4NyA0LjE4N2MtMjUuMDkzIDM3Ljc2NC0zNi43MDYgODQuNDEtMjkuODQzIDEzMS45MzhsLTYuMTI1IDEuNzgxYy0xLjYxNSAyLjA4NS0zLjg5NiA1LjM2NS02LjI4MiA2LjM0NC03LjUyNSAyLjM3LTE1Ljk5NCAzLjI0LTI2LjIxOCA0LjMxMi00LjguNC04Ljk0Mi4xNjEtMTQuMDMyIDEuMTI1LTEuMTIuMjEyLTIuNjguNjE5LTMuOTA2LjkwNmwtLjEyNS4wMzJjLS4wNjcuMDE1LS4xNTQuMDQ4LS4yMTkuMDYyLTguNjIgMi4wODMtMTQuMTU3IDEwLjAwNi0xMi4zNzUgMTcuODEzIDEuNzg0IDcuODA4IDEwLjIwNCAxMi41NTYgMTguODc1IDEwLjY4Ny4wNjMtLjAxNC4xNTQtLjAxNy4yMi0uMDMxLjA5Ny0uMDIyLjE4My0uMDcuMjgtLjA5NCAxLjIxLS4yNjUgMi43MjQtLjU2IDMuNzgyLS44NDMgNS4wMDMtMS4zNCA4LjYyNy0zLjMwOCAxMy4xMjUtNS4wMzIgOS42NzctMy40NyAxNy42OTEtNi4zNyAyNS41LTcuNSAzLjI2LS4yNTUgNi42OTcgMi4wMTIgOC40MDYgMi45NjlsNi4zNzUtMS4wOTRjMTQuNjcgNDUuNDgzIDQ1LjQxNCA4Mi4yNDUgODQuMzQ0IDEwNS4zMTNsLTIuNjU3IDYuMzc1Yy45NTggMi40NzUgMi4wMTQgNS44MjQgMS4zIDguMjctMi44MzggNy4zNi03LjcgMTUuMTMtMTMuMjM3IDIzLjc5Mi0yLjY4IDQuMDAyLTUuNDI1IDcuMTA4LTcuODQ0IDExLjY4OC0uNTc5IDEuMDk2LTEuMzE2IDIuNzgtMS44NzUgMy45MzctMy43NTkgOC4wNDMtMS4wMDEgMTcuMzA1IDYuMjE5IDIwLjc4MiA3LjI2NiAzLjQ5NyAxNi4yODQtLjE5MiAyMC4xODctOC4yNS4wMDYtLjAxMi4wMjYtLjAyLjAzMi0uMDMyLjAwNC0uMDA5LS4wMDQtLjAyMiAwLS4wMy41NTYtMS4xNDMgMS4zNDMtMi42NDUgMS44MTItMy43MiAyLjA3Mi00Ljc0NyAyLjc2Mi04LjgxNSA0LjIxOS0xMy40MDYgMy44Ny05LjcyIDUuOTk2LTE5LjkxOSAxMS4zMjItMjYuMjc0IDEuNDYtMS43NCAzLjgzNy0yLjQxIDYuMzAzLTMuMDdsMy4zMTItNmMzMy45MzkgMTMuMDI3IDcxLjkyNyAxNi41MjMgMTA5Ljg3NSA3LjkwN2ExODkuNzcgMTg5Ljc3IDAgMDAyNS4wOTQtNy41NjNjLjkzMSAxLjY1MSAyLjY2MSA0LjgyNiAzLjEyNSA1LjYyNSAyLjUwNi44MTUgNS4yNCAxLjIzNiA3LjQ2OSA0LjUzMSAzLjk4NSA2LjgxIDYuNzEgMTQuODY1IDEwLjAzMSAyNC41OTQgMS40NTggNC41OTEgMi4xNzggOC42NiA0LjI1IDEzLjQwNi40NzIgMS4wODIgMS4yNTYgMi42MDUgMS44MTMgMy43NSAzLjg5NCA4LjA4NSAxMi45NDIgMTEuNzg3IDIwLjIxOCA4LjI4MiA3LjIyLTMuNDc4IDkuOTgtMTIuNzQgNi4yMi0yMC43ODItLjU2LTEuMTU4LTEuMzI4LTIuODQxLTEuOTA3LTMuOTM3LTIuNDItNC41OC01LjE2My03LjY1NS03Ljg0NC0xMS42NTYtNS41MzctOC42NjItMTAuMTMtMTUuODU4LTEyLjk2OS0yMy4yMi0xLjE4Ny0zLjc5Ni4yLTYuMTU3IDEuMTI1LTguNjI0LS41NTMtLjYzNS0xLjczOC00LjIyLTIuNDM3LTUuOTA2IDQwLjQ1Ny0yMy44ODkgNzAuMjk4LTYyLjAyMiA4NC4zMTItMTA2LjA2MyAxLjg5My4yOTggNS4xODIuODggNi4yNSAxLjA5NCAyLjItMS40NSA0LjIyMi0zLjM0NCA4LjE4OC0zLjAzMSA3LjgwOCAxLjEyOSAxNS44MjMgNC4wMyAyNS41IDcuNSA0LjQ5OCAxLjcyMyA4LjEyMiAzLjcyMyAxMy4xMjUgNS4wNjIgMS4wNTcuMjgzIDIuNTcyLjU0NyAzLjc4MS44MTMuMDk3LjAyMy4xODMuMDcxLjI4MS4wOTMuMDY2LjAxNS4xNTcuMDE3LjIyLjAzMiA4LjY3MiAxLjg2NiAxNy4wOTMtMi44OCAxOC44NzQtMTAuNjg4IDEuNzgtNy44MDctMy43NTQtMTUuNzMyLTEyLjM3NS0xNy44MTItMS4yNTQtLjI4Ni0zLjAzMi0uNzctNC4yNS0xLTUuMDg5LS45NjQtOS4yMy0uNzI3LTE0LjAzMS0xLjEyNS0xMC4yMjUtMS4wNzItMTguNjk0LTEuOTQzLTI2LjIxOS00LjMxMy0zLjA2OC0xLjE5LTUuMjUtNC44NDEtNi4zMTItNi4zNDRsLTUuOTA3LTEuNzE4YzMuMDYzLTIyLjE1NSAyLjIzNy00NS4yMTItMy4wNjItNjguMjgyLTUuMzQ5LTIzLjI4NC0xNC44LTQ0LjU4LTI3LjQwNi02My4zNDMgMS41MTUtMS4zNzggNC4zNzYtMy45MTEgNS4xODctNC42NTcuMjM3LTIuNjI0LjAzNC01LjM3NSAyLjc1LTguMjgxIDUuNzUxLTUuNCAxMy4wMDMtOS44NzkgMjEuNzUtMTUuMjgxIDQuMTUyLTIuNDQzIDcuOTktNC4wMTcgMTIuMTU2LTcuMDk0Ljk0My0uNjk2IDIuMjMtMS43OTggMy4yMi0yLjU5NCA3LjAxNC01LjU5NiA4LjYzLTE1LjI0OCAzLjU5My0yMS41NjItNS4wMzctNi4zMTQtMTQuNzk3LTYuOTEtMjEuODEzLTEuMzEzLS45OTguNzkxLTIuMzUzIDEuODIzLTMuMjUgMi41OTQtMy45MjYgMy4zNzgtNi4zNTEgNi43MTQtOS42NTYgMTAuMjE5LTcuMjEyIDcuMzI2LTEzLjE3NCAxMy40MzgtMTkuNzE5IDE3Ljg0NC0yLjgzNiAxLjY1LTYuOTkgMS4wOC04Ljg3NS45NjhsLTUuNTYyIDMuOTY5Yy0zMS43MTktMzMuMjYtNzQuOTA1LTU0LjUyNS0xMjEuNDA2LTU4LjY1Ni0uMTMtMS45NDktLjMtNS40NzEtLjM0NC02LjUzMi0xLjkwNC0xLjgyMS00LjIwMy0zLjM3Ni00Ljc4MS03LjMxMi0uNjM2LTcuODY0LjQyNi0xNi4zMjUgMS42NTYtMjYuNTMxLjY4LTQuNzY5IDEuODA3LTguNzMgMi0xMy45MDcuMDQ0LTEuMTc2LS4wMjYtMi44ODQtLjAzMS00LjE1Ni0uMDAxLTguOTc0LTYuNTQ4LTE2LjI1LTE0LjYyNS0xNi4yNXptLTE4LjMxMyAxMTMuNDM4bC00LjM0MyA3Ni43MTgtLjMxMy4xNTdjLS4yOTEgNi44NjMtNS45NCAxMi4zNDMtMTIuODc1IDEyLjM0My0yLjg0IDAtNS40NjMtLjkxMi03LjU5NC0yLjQ2OGwtLjEyNS4wNjItNjIuOTA2LTQ0LjU5NGMxOS4zMzQtMTkuMDEgNDQuMDYzLTMzLjA2IDcyLjU2My0zOS41M2ExNTQuMTI1IDE1NC4xMjUgMCAwMTE1LjU5My0yLjY4OHptMzYuNjU3IDBjMzMuMjczIDQuMDkyIDY0LjA0NSAxOS4xNTkgODcuNjI1IDQyLjI1bC02Mi41IDQ0LjMxMi0uMjItLjA5M2MtNS41NDcgNC4wNTEtMTMuMzYzIDMuMDQ2LTE3LjY4Ny0yLjM3NWExMi44MDcgMTIuODA3IDAgMDEtMi44MTItNy40N2wtLjA2My0uMDN6TTIyMi4xMjcgMjczLjYybDU3LjQzNyA1MS4zNzUtLjA2Mi4zMTJjNS4xODQgNC41MDcgNS45NDggMTIuMzI4IDEuNjI1IDE3Ljc1YTEyLjg5MiAxMi44OTIgMCAwMS02LjY4OCA0LjQwNmwtLjA2Mi4yNS03My42MjUgMjEuMjVjLTMuNzQ4LTM0LjI2NSA0LjMyOC02Ny41NzMgMjEuMzc1LTk1LjM0M3ptMjU4LjE1Ni4wM2M4LjUzNCAxMy44MzMgMTQuOTk2IDI5LjI4MyAxOC44NDQgNDYuMDMyIDMuOCAxNi41NDggNC43NTQgMzMuMDY3IDMuMTg3IDQ5LjAzMWwtNzQtMjEuMzEyLS4wNjItLjMxM2MtNi42MjctMS44MS0xMC43LTguNTUxLTkuMTU3LTE1LjMxMmExMi43ODYgMTIuNzg2IDAgMDE0LjA5NC02Ljg0NGwtLjAzMS0uMTU2IDU3LjEyNS01MS4xMjV6bS0xNDAuNjU2IDU1LjMxM2gyMy41M2wxNC42MjYgMTguMjgyLTUuMjUgMjIuODEyLTIxLjEyNSAxMC4xNTYtMjEuMTg4LTEwLjE4Ny01LjI1LTIyLjgxM3ptNzUuNDM3IDYyLjU2M2MxLS4wNSAxLjk5Ni4wNCAyLjk2OS4yMTlsLjEyNS0uMTU3IDc2LjE1NiAxMi44NzVjLTExLjE0NSAzMS4zMTQtMzIuNDczIDU4LjQ0LTYwLjk2OSA3Ni41OTRsLTI5LjU2Mi03MS40MDYuMDkzLS4xMjVjLTIuNzE1LTYuMzEuMDAyLTEzLjcxIDYuMjUtMTYuNzE5IDEuNi0uNzcgMy4yNzEtMS4xOTcgNC45MzgtMS4yODF6bS0xMjcuOTA2LjMxMmM1LjgxMS4wODIgMTEuMDI0IDQuMTE2IDEyLjM3NSAxMC4wMzIuNjMyIDIuNzcuMzI0IDUuNTEzLS43MTkgNy45MzdsLjIxOS4yODEtMjkuMjUgNzAuNjg4Yy0yNy4zNDctMTcuNTQ5LTQ5LjEzLTQzLjgyNC02MC43ODEtNzYuMDYzbDc1LjUtMTIuODEyLjEyNS4xNTZjLjg0NC0uMTU1IDEuNy0uMjMgMi41My0uMjE5em02My43ODEgMzAuOTdhMTIuNzY0IDEyLjc2NCAwIDAxNi4wMzEgMS4yOGMyLjU2IDEuMjMzIDQuNTM3IDMuMTc0IDUuNzgyIDUuNWguMjhsMzcuMjIgNjcuMjVhMTU0LjI1NiAxNTQuMjU2IDAgMDEtMTQuODc1IDQuMTU3Yy0yOC40NjUgNi40NjMtNTYuODQgNC41MDQtODIuNTMyLTQuMjVsMzcuMTI1LTY3LjEyNWguMDYzYTEyLjkxIDEyLjkxIDAgMDExMC45MDYtNi44MTN6IiBzdHlsZT0ibGluZS1oZWlnaHQ6bm9ybWFsOy1pbmtzY2FwZS1mb250LXNwZWNpZmljYXRpb246U2Fuczt0ZXh0LWluZGVudDowO3RleHQtYWxpZ246c3RhcnQ7dGV4dC1kZWNvcmF0aW9uLWxpbmU6bm9uZTt0ZXh0LXRyYW5zZm9ybTpub25lO21hcmtlcjpub25lIi8+PC9zdmc+" vertex="1" parent="1">
          <mxGeometry x="1081.77" y="220" width="120" height="80" as="geometry" />
        </mxCell>
        <mxCell id="S7hA1KW036Cgnqv6eDFZ-23" value="" style="edgeStyle=orthogonalEdgeStyle;rounded=0;orthogonalLoop=1;jettySize=auto;html=1;" edge="1" parent="1" source="Rg2q4Fr_N2kqhu6swv87-10" target="Rg2q4Fr_N2kqhu6swv87-9">
          <mxGeometry relative="1" as="geometry" />
        </mxCell>
        <mxCell id="S7hA1KW036Cgnqv6eDFZ-29" value="Deploy" style="edgeLabel;html=1;align=center;verticalAlign=middle;resizable=0;points=[];" vertex="1" connectable="0" parent="S7hA1KW036Cgnqv6eDFZ-23">
          <mxGeometry x="-0.1953" y="-3" relative="1" as="geometry">
            <mxPoint x="1" y="-4" as="offset" />
          </mxGeometry>
        </mxCell>
        <mxCell id="Rg2q4Fr_N2kqhu6swv87-10" value="" style="shape=image;verticalLabelPosition=bottom;verticalAlign=top;imageAspect=0;aspect=fixed;image=data:image/svg+xml,PHN2ZyB4bWxucz0iaHR0cDovL3d3dy53My5vcmcvMjAwMC9zdmciIHZpZXdCb3g9IjAgMCA0OCA0OCI+PGRlZnMgaWQ9ImRlZnMyMTk1Ij48Y2xpcFBhdGggaWQ9ImNsaXAtcGF0aCI+PHBhdGggc3R5bGU9ImZpbGw6bm9uZSIgZD0ibTI0MS4wMTkgMTE1LjY4Ny03LjE3MyAxNjMuNzkySDEyNi4yNDVsLTUuOTc4LTE2My43OTIiIGlkPSJwb2x5bGluZTIxOTIiLz48L2NsaXBQYXRoPjxzdHlsZSBpZD0ic3R5bGUyMTkwIj4uY2xzLTJ7ZmlsbDojZTk2NTRifS5jbHMtM3tmaWxsOiNiNmNmZWF9LmNscy02e2ZpbGw6I2VlNzk0Yn0uY2xzLTEye2ZpbGw6IzAxMDEwMX0uY2xzLTEze2ZpbGw6I2ZmZn08L3N0eWxlPjwvZGVmcz48ZyB0cmFuc2Zvcm09InRyYW5zbGF0ZSgtMzcuMjIzIC00LjUpIiBpZD0iZzI0MDkiPjxwYXRoIHN0eWxlPSJzdHJva2Utd2lkdGg6LjEzNzAyNSIgY2xhc3M9ImNscy0yIiBkPSJNNTMuNjg3IDM4LjQxMXMtLjMyOC45ODMtLjgyIDEuNDc1YTEuNDg3IDEuNDg3IDAgMCAxLTEuMTQ2LjQ5MSAxOC45OTMgMTguOTkzIDAgMCAxLTIuNDU3LjQ5MnMxLjE0Ni4xNjMgMi40NTcuMzI3Yy40OTEgMCAuNDkxIDAgLjgyLjE2NC44MTggMCAxLjE0Ni0uNDkxIDEuMTQ2LS40OTF6IiBpZD0icGF0aDIxOTkiLz48cGF0aCBzdHlsZT0ic3Ryb2tlLXdpZHRoOi4xMzcwMjUiIGNsYXNzPSJjbHMtMiIgZD0iTTY4Ljc1OSAzOC40MTFzLjMyNy45ODMuODE5IDEuNDc1YTEuNDg3IDEuNDg3IDAgMCAwIDEuMTQ2LjQ5MSAxOC45OTMgMTguOTkzIDAgMCAwIDIuNDU4LjQ5MnMtMS4xNDcuMTYzLTIuNjIxLjMyN2MtLjQ5MiAwLS40OTIgMC0uODIuMTY0LS45ODIgMC0xLjE0Ni0uNDkxLTEuMTQ2LS40OTF6IiBpZD0icGF0aDIyMDEiLz48Y2lyY2xlIHN0eWxlPSJzdHJva2Utd2lkdGg6LjEzNzAyNSIgY2xhc3M9ImNscy0zIiByPSIxNy42OTMiIGN5PSIyMi4xOTMiIGN4PSI2MS4zODciIGlkPSJjaXJjbGUyMjAzIi8+PGNpcmNsZSBzdHlsZT0ic3Ryb2tlLXdpZHRoOi4xMzcwMjU7ZmlsbDojZTZmNWY4IiByPSIxNy4wMzgiIGN5PSIyMi4xOTMiIGN4PSI2MS4zODciIGlkPSJjaXJjbGUyMjA1Ii8+PGNpcmNsZSBzdHlsZT0ic3Ryb2tlLXdpZHRoOi4xMzcwMjU7ZmlsbDojZDBlOGYwIiByPSIxMy45MjUiIGN5PSIyMi41MiIgY3g9IjYxLjM4NyIgaWQ9ImNpcmNsZTIyMDciLz48ZyB0cmFuc2Zvcm09InRyYW5zbGF0ZSgzNi43MTYgMy44ODMpIHNjYWxlKC4xMzcwMykiIGlkPSJCb2R5Ij48cGF0aCBjbGFzcz0iY2xzLTYiIGQ9Ik0xMjAuMjY3IDE4My44MzRzOC4zNyAxMzUuMSA4LjM3IDEzNy40OWMwIDEuMTk2IDEuMTk1IDMuNTg3LTQuNzgzIDUuOTc4LTUuOTc4IDIuMzkxLTI1LjEwNyA3LjE3My0yNS4xMDcgNy4xNzNoMjguNjk0YzEzLjE1MSAwIDEzLjE1MS0xMC43NiAxMy4xNTEtMTMuMTUgMC0yLjM5MiAzLjU4Ny01My44MDEgMy41ODctNTMuODAxczEuMTk1IDYwLjk3NCAxLjE5NSA2My4zNjVjMCAyLjM5LTEuMTk1IDUuOTc4LTkuNTY0IDguMzY5bC0yMy45MTIgNC43ODJoMjcuNDk4YzE2LjczOCAwIDE2LjczOC0xMC43NiAxNi43MzgtMTAuNzZsMy41ODctNTMuOHMxLjE5NiA1My44IDEuMTk2IDU5Ljc3OGMwIDQuNzgyLTMuNTg3IDguMzY5LTE2LjczOCAxMC43Ni04LjM3IDIuMzktMTkuMTMgNC43ODItMTkuMTMgNC43ODJoMzEuMDg1YzE1LjU0My0xLjE5NSAxNy45MzQtMTEuOTU2IDE3LjkzNC0xMS45NTZsMjYuMzAyLTEzMy45MDN6IiBpZD0icGF0aDIyMDkiLz48cGF0aCBjbGFzcz0iY2xzLTYiIGQ9Ik0yMzkuODI0IDE4My44MzRzLTguMzcgMTM1LjEtOC4zNyAxMzcuNDljMCAxLjE5Ni0xLjE5NSAzLjU4NyA0Ljc4MyA1Ljk3OCA1Ljk3OCAyLjM5MSAyNS4xMDcgNy4xNzMgMjUuMTA3IDcuMTczSDIzMi42NWMtMTMuMTUgMC0xMy4xNS0xMC43Ni0xMy4xNS0xMy4xNSAwLTIuMzkyLTMuNTg4LTUzLjgwMS0zLjU4OC01My44MDFzLTEuMTk1IDYwLjk3NC0xLjE5NSA2My4zNjVjMCAyLjM5IDEuMTk1IDUuOTc4IDkuNTY0IDguMzY5bDIzLjkxMiA0Ljc4MmgtMjcuNDk4Yy0xNi43MzggMC0xNi43MzgtMTAuNzYtMTYuNzM4LTEwLjc2bC0zLjU4Ny01My44cy0xLjE5NSA1My44LTEuMTk1IDU5Ljc3OGMwIDQuNzgyIDMuNTg2IDguMzY5IDE2LjczNyAxMC43NiA4LjM3IDIuMzkgMTkuMTMgNC43ODIgMTkuMTMgNC43ODJoLTMxLjA4NWMtMTUuNTQyLTEuMTk1LTE3LjkzNC0xMS45NTYtMTcuOTM0LTExLjk1NmwtMjYuMzAyLTEzMy45MDNaIiBpZD0icGF0aDIyMTEiLz48cGF0aCBjbGFzcz0iY2xzLTYiIGQ9Ik0yNDEuMDIgMTE4LjA3OWMwIDMzLjQ3NS0yNy40OTkgNTkuNzc4LTU5Ljc3OSA1OS43NzhzLTU5Ljc3OC0yNy40OTgtNTkuNzc4LTU5Ljc3OWMwLTMyLjI4IDI3LjQ5OC01OS43NzggNTkuNzc4LTU5Ljc3OHM1OS43NzggMjYuMzAzIDU5Ljc3OCA1OS43Nzh6IiBpZD0icGF0aDIyMTMiLz48ZyBzdHlsZT0iY2xpcC1wYXRoOnVybCgjY2xpcC1wYXRoKSIgY2xpcC1wYXRoPSJ1cmwoI2NsaXAtcGF0aCkiIGlkPSJnMjIxNyI+PGNpcmNsZSBjbGFzcz0iY2xzLTYiIHI9IjEwNi40MDUiIGN5PSIxNTAuMzU5IiBjeD0iMTgxLjI0MSIgaWQ9ImNpcmNsZTIyMTUiLz48L2c+PGcgc3R5bGU9Im9wYWNpdHk6LjIyIiBpZD0iZzIyMjEiPjxwYXRoIHN0eWxlPSJmaWxsOiNlMzRlM2IiIGQ9Ik0yMzcuNDMzIDE4My44MzRzNy4xNzMtNjMuMzY0LTIuMzkyLTg3LjI3NkMyMTcuMTA4IDU0LjcxNCAxNzUuMjYzIDU4LjMgMTc1LjI2MyA1OC4zczIzLjkxMiA5LjU2NSAyNS4xMDcgNDUuNDMyYzEuMTk2IDI1LjEwNyAwIDYyLjE2OSAwIDYyLjE2OXoiIGlkPSJwYXRoMjIxOSIvPjwvZz48L2c+PGcgdHJhbnNmb3JtPSJ0cmFuc2xhdGUoMzYuNzE2IDMuODgzKSBzY2FsZSguMTM3MDMpIiBpZD0iRmFjZSI+PGcgc3R5bGU9Im9wYWNpdHk6LjUiIGlkPSJnMjIyNiI+PGNpcmNsZSBzdHlsZT0iZmlsbDojZmJkZmMzIiByPSI4LjM2OSIgY3k9Ijg1Ljc5OCIgY3g9IjE1Ni4xMzQiIGlkPSJjaXJjbGUyMjI0Ii8+PC9nPjxwYXRoIGNsYXNzPSJjbHMtMTIiIGQ9Ik0yMDEuNTY2IDIwNy43NDZjMCAyMC4zMjQtOS41NjUgMzMuNDc1LTIxLjUyIDMzLjQ3NS0xMS45NTYgMC0yMS41Mi0xNS41NDItMjEuNTItMzUuODY2IDAgMCA5LjU2NCAxOS4xMjkgMjIuNzE1IDE5LjEyOXMyMC4zMjUtMTYuNzM4IDIwLjMyNS0xNi43Mzh6IiBpZD0icGF0aDIyMjgiLz48cGF0aCBjbGFzcz0iY2xzLTEzIiBkPSJNMjAxLjU2NiAyMDcuNzQ2YzAgMTMuMTUtOS41NjUgMjAuMzI0LTIxLjUyIDIwLjMyNC0xMS45NTYgMC0yMC4zMjUtOS41NjQtMjAuMzI1LTIxLjUyIDAgMCA5LjU2NSAxMS45NTYgMjIuNzE2IDExLjk1NiAxMy4xNSAwIDE5LjEyOS0xMC43NiAxOS4xMjktMTAuNzZ6IiBpZD0icGF0aDIyMzAiLz48Y2lyY2xlIGNsYXNzPSJjbHMtMiIgcj0iMzcuMDYyIiBjeT0iMTUxLjU1NCIgY3g9IjIyMS44OSIgaWQ9ImNpcmNsZTIyMzIiLz48Y2lyY2xlIGNsYXNzPSJjbHMtMiIgcj0iMzcuMDYyIiBjeT0iMTUxLjU1NCIgY3g9IjEzOC4yMDEiIGlkPSJjaXJjbGUyMjM0Ii8+PGNpcmNsZSBjbGFzcz0iY2xzLTEzIiByPSIyOC42OTQiIGN5PSIxNTEuNTU0IiBjeD0iMjIxLjg5IiBpZD0iY2lyY2xlMjIzNiIvPjxjaXJjbGUgY2xhc3M9ImNscy0xMyIgcj0iMjguNjk0IiBjeT0iMTUxLjU1NCIgY3g9IjEzNS44MSIgaWQ9ImNpcmNsZTIyMzgiLz48Y2lyY2xlIGNsYXNzPSJjbHMtMTIiIHI9IjguMzY5IiBjeT0iMTQ3Ljk2OCIgY3g9IjEzNS44MSIgaWQ9ImNpcmNsZTIyNDAiLz48Y2lyY2xlIGNsYXNzPSJjbHMtMTIiIHI9IjguMzY5IiBjeT0iMTQ3Ljk2OCIgY3g9IjIyMS44OSIgaWQ9ImNpcmNsZTIyNDIiLz48L2c+PHBhdGggc3R5bGU9InN0cm9rZS13aWR0aDouMTM3MDI1IiBjbGFzcz0iY2xzLTMiIGQ9Ik00My4zNjYgMjYuNjE2YS43NzQuNzc0IDAgMCAxLS44MTktLjgydi02LjU1MmEuNzc0Ljc3NCAwIDAgMSAuODItLjgyLjc3NC43NzQgMCAwIDEgLjgxOC44MnY2LjU1M2EuNzc0Ljc3NCAwIDAgMS0uODE5LjgxOXoiIGlkPSJwYXRoMjI0NSIvPjxwYXRoIHN0eWxlPSJzdHJva2Utd2lkdGg6LjEzNzAyNSIgY2xhc3M9ImNscy0zIiBkPSJNNzkuMDggMjYuNjE2YS43NzQuNzc0IDAgMCAxLS44Mi0uODJ2LTYuNTUyYS43NzQuNzc0IDAgMCAxIC44Mi0uODIuNzc0Ljc3NCAwIDAgMSAuODE4LjgydjYuNTUzYS43NzQuNzc0IDAgMCAxLS44MTkuODE5eiIgaWQ9InBhdGgyMjQ3Ii8+PGNpcmNsZSBzdHlsZT0ic3Ryb2tlLXdpZHRoOi4xMzcwMjUiIGNsYXNzPSJjbHMtMTMiIHI9Ii44MTkiIGN5PSI5LjA4NyIgY3g9IjU1LjgxNyIgaWQ9ImNpcmNsZTIyNDkiLz48cGF0aCBzdHlsZT0ic3Ryb2tlLXdpZHRoOi4xMzcwMjUiIGNsYXNzPSJjbHMtMTMiIGQ9Ik00OS45MTkgMzEuMjAzYS42MDIuNjAyIDAgMCAxLS40OTEtLjE2NGMtMS45NjYtMi40NTctMi45NS01LjU3LTIuOTUtOC42ODJhMTQuNjE4IDE0LjYxOCAwIDAgMSAxLjk2Ny03LjM3MiAxNi4wMzMgMTYuMDMzIDAgMCAxIDUuMjQyLTUuMjQzLjcyLjcyIDAgMCAxIC44MTkuMTY0LjcyLjcyIDAgMCAxLS4xNjQuODIgMTMuMjIyIDEzLjIyMiAwIDAgMC02LjcxNyAxMS40NjcgMTIuOTEgMTIuOTEgMCAwIDAgMi43ODUgOC4wMjdjLjE2NC4xNjQuMTY0LjY1NS0uMTYzLjgyLS4xNjQuMTYzLS4xNjQuMTYzLS4zMjguMTYzeiIgaWQ9InBhdGgyMjUxIi8+PGcgdHJhbnNmb3JtPSJ0cmFuc2xhdGUoMzYuNzE2IDMuODgzKSBzY2FsZSguMTM3MDMpIiBzdHlsZT0ib3BhY2l0eTouMjUiIGlkPSJnMjI1NSI+PHBhdGggY2xhc3M9ImNscy0yIiBkPSJNMjMzLjg0NiAyNTUuNTY4di05LjU2NGMtMTYuNzM4IDkuNTY0LTM0LjY3MSAxOS4xMjktNTYuMTkyIDE5LjEyOS0yMy45MSAwLTM5LjQ1My0xMC43Ni01NC45OTUtMTkuMTNsMS4xOTUgOS41NjVzMTcuOTM0IDE5LjEzIDU0Ljk5NiAxOS4xM2MzNC42NzEtMS4xOTYgNTQuOTk2LTE5LjEzIDU0Ljk5Ni0xOS4xM3oiIGlkPSJwYXRoMjI1MyIvPjwvZz48L2c+PC9zdmc+" vertex="1" parent="1">
          <mxGeometry x="915" y="232.25" width="60" height="60" as="geometry" />
        </mxCell>
        <mxCell id="S7hA1KW036Cgnqv6eDFZ-22" style="rounded=0;orthogonalLoop=1;jettySize=auto;html=1;" edge="1" parent="1" source="Rg2q4Fr_N2kqhu6swv87-11" target="Rg2q4Fr_N2kqhu6swv87-10">
          <mxGeometry relative="1" as="geometry" />
        </mxCell>
        <mxCell id="S7hA1KW036Cgnqv6eDFZ-30" value="manifest repo" style="edgeLabel;html=1;align=center;verticalAlign=middle;resizable=0;points=[];" vertex="1" connectable="0" parent="S7hA1KW036Cgnqv6eDFZ-22">
          <mxGeometry x="-0.0105" y="-1" relative="1" as="geometry">
            <mxPoint y="1" as="offset" />
          </mxGeometry>
        </mxCell>
        <mxCell id="Rg2q4Fr_N2kqhu6swv87-11" value="" style="shape=image;verticalLabelPosition=bottom;verticalAlign=top;imageAspect=0;aspect=fixed;image=data:image/svg+xml,PHN2ZyB4bWxucz0iaHR0cDovL3d3dy53My5vcmcvMjAwMC9zdmciIHZpZXdCb3g9IjAgMCAyNCAyNCIgaGVpZ2h0PSI4MDBweCIgd2lkdGg9IjgwMHB4Ij4mI3hhOyAgPHRpdGxlPmdpdDwvdGl0bGU+JiN4YTsgIDxyZWN0IGZpbGw9Im5vbmUiIGhlaWdodD0iMjQiIHdpZHRoPSIyNCIvPiYjeGE7ICA8cGF0aCBkPSJNMi42LDEwLjU5LDguMzgsNC44bDEuNjksMS43QTIsMiwwLDAsMCwxMSw4LjczdjUuNTRBMiwyLDAsMCwwLDEwLDE2YTIsMiwwLDAsMCw0LDAsMiwyLDAsMCwwLTEtMS43M1Y5LjQxbDIuMDcsMi4wOUExLjE3LDEuMTcsMCwwLDAsMTUsMTJhMiwyLDAsMSwwLDItMiwxLjE3LDEuMTcsMCwwLDAtLjUuMDdMMTMuOTMsNy41YTIsMiwwLDAsMC0xLjE1LTIuMzQsMi4xLDIuMSwwLDAsMC0xLjI4LS4wOUw5LjgsMy4zOGwuNzktLjc4YTIsMiwwLDAsMSwyLjgyLDBsOCw4YTIsMiwwLDAsMSwwLDIuODJsLTgsOGEyLDIsMCwwLDEtMi44MiwwbC04LThBMiwyLDAsMCwxLDIuNiwxMC41OVoiLz4mI3hhOzwvc3ZnPg==" vertex="1" parent="1">
          <mxGeometry x="717.61" y="225" width="70" height="70" as="geometry" />
        </mxCell>
        <mxCell id="S7hA1KW036Cgnqv6eDFZ-18" value="" style="rounded=0;orthogonalLoop=1;jettySize=auto;html=1;" edge="1" parent="1" source="Rg2q4Fr_N2kqhu6swv87-13" target="Rg2q4Fr_N2kqhu6swv87-14">
          <mxGeometry relative="1" as="geometry" />
        </mxCell>
        <mxCell id="Rg2q4Fr_N2kqhu6swv87-13" value="" style="shape=image;verticalLabelPosition=bottom;verticalAlign=top;imageAspect=0;aspect=fixed;image=data:image/svg+xml,PHN2ZyB4bWxucz0iaHR0cDovL3d3dy53My5vcmcvMjAwMC9zdmciIHZpZXdCb3g9IjAgMCAyNCAyNCIgaGVpZ2h0PSI4MDBweCIgd2lkdGg9IjgwMHB4Ij4mI3hhOyAgPHRpdGxlPmdpdDwvdGl0bGU+JiN4YTsgIDxyZWN0IGZpbGw9Im5vbmUiIGhlaWdodD0iMjQiIHdpZHRoPSIyNCIvPiYjeGE7ICA8cGF0aCBkPSJNMi42LDEwLjU5LDguMzgsNC44bDEuNjksMS43QTIsMiwwLDAsMCwxMSw4LjczdjUuNTRBMiwyLDAsMCwwLDEwLDE2YTIsMiwwLDAsMCw0LDAsMiwyLDAsMCwwLTEtMS43M1Y5LjQxbDIuMDcsMi4wOUExLjE3LDEuMTcsMCwwLDAsMTUsMTJhMiwyLDAsMSwwLDItMiwxLjE3LDEuMTcsMCwwLDAtLjUuMDdMMTMuOTMsNy41YTIsMiwwLDAsMC0xLjE1LTIuMzQsMi4xLDIuMSwwLDAsMC0xLjI4LS4wOUw5LjgsMy4zOGwuNzktLjc4YTIsMiwwLDAsMSwyLjgyLDBsOCw4YTIsMiwwLDAsMSwwLDIuODJsLTgsOGEyLDIsMCwwLDEtMi44MiwwbC04LThBMiwyLDAsMCwxLDIuNiwxMC41OVoiLz4mI3hhOzwvc3ZnPg==" vertex="1" parent="1">
          <mxGeometry x="10" y="344" width="70" height="70" as="geometry" />
        </mxCell>
        <mxCell id="S7hA1KW036Cgnqv6eDFZ-17" style="rounded=0;orthogonalLoop=1;jettySize=auto;html=1;entryX=0;entryY=0.5;entryDx=0;entryDy=0;" edge="1" parent="1" source="Rg2q4Fr_N2kqhu6swv87-14" target="S7hA1KW036Cgnqv6eDFZ-1">
          <mxGeometry relative="1" as="geometry" />
        </mxCell>
        <mxCell id="Rg2q4Fr_N2kqhu6swv87-14" value="" style="shape=image;verticalLabelPosition=bottom;verticalAlign=top;imageAspect=0;aspect=fixed;image=data:image/svg+xml,PHN2ZyB4bWxucz0iaHR0cDovL3d3dy53My5vcmcvMjAwMC9zdmciIHByZXNlcnZlQXNwZWN0UmF0aW89InhNaW5ZTWluIG1lZXQiIHZpZXdCb3g9IjAgMCAyNTYgNDE3IiBoZWlnaHQ9IjI1MDAiIHdpZHRoPSIxNTM1Ij48cGF0aCBmaWxsPSIjRDMzODMzIiBkPSJNMjUwLjc0MSAxNjkuMjc4YzAgNjkuNDU3LTU1LjA3IDEyNS44MTctMTIzLjAzOSAxMjUuODE3UzQuNjY0IDIzOC43MzUgNC42NjQgMTY5LjI3OGMwLTY5LjQ1OCA1NS4wNy0xMjUuODE4IDEyMy4wMzgtMTI1LjgxOCA2Ny45NyAwIDEyMy4wNCA1Ni4zNiAxMjMuMDQgMTI1LjgxOCIvPjxwYXRoIGZpbGw9IiNFRjNEM0EiIGQ9Ik05LjcyNCAyMDAuNDM0Uy43OTQgNjkuMjYgMTIxLjc0OSA2NS40ODhsLTguNDM0LTE0LjA5LTY1LjU4OCAyMi4wMjgtMTguNzUzIDIxLjUzMi0xNi4zNzIgMzEuMzU1LTkuMzI4IDM2LjUxNSAyLjc3OSAyNC40MSIvPjxwYXRoIGZpbGw9IiMyMzFGMjAiIGQ9Ik00My40NiA4My40NDhjLTIxLjUzMSAyMi4xMjctMzQuOTI3IDUyLjU5LTM0LjkyNyA4Ni4zMjYgMCAzMy43MzYgMTMuMzk2IDY0LjE5OCAzNC45MjcgODYuMzI1IDIxLjYzMSAyMi4xMjcgNTEuMyAzNS43MjEgODQuMjQyIDM1LjcyMSAzMi45NDMgMCA2Mi42MTEtMTMuNTk0IDg0LjI0Mi0zNS43MiAyMS41MzItMjIuMTI4IDM0LjkyNy01Mi41OSAzNC45MjctODYuMzI2IDAtMzMuNzM3LTEzLjM5NS02NC4xOTktMzQuOTI3LTg2LjMyNi0yMS42My0yMi4wMjgtNTEuMjk5LTM1LjcyLTg0LjI0Mi0zNS43Mi0zMi44NDMgMC02Mi42MSAxMy41OTMtODQuMjQyIDM1Ljcyem0tNS40NTcgMTc3LjkxQzE1LjA4MyAyMzcuOTQxLjg5MyAyMDUuNDk1Ljg5MyAxNjkuNzc0YzAtMzUuNzIxIDE0LjE5LTY4LjE2OCAzNy4xMS05MS42ODQgMjIuOTIxLTIzLjQxNyA1NC42NzMtMzguMDAzIDg5LjctMzguMDAzIDM1LjAyNiAwIDY2Ljc3OCAxNC41ODYgODkuNjk5IDM4LjAwMyAyMi45MiAyMy40MTcgMzcuMTEgNTUuODYzIDM3LjExIDkxLjY4NCAwIDM1LjcyLTE0LjE5IDY4LjE2Ny0zNy4xMSA5MS41ODQtMjIuOTIxIDIzLjUxNi01NC42NzMgMzguMDAzLTg5LjcgMzguMDAzLTM1LjAyNiAwLTY2Ljc3OC0xNC40ODctODkuNjk5LTM4LjAwM3oiLz48cGF0aCBmaWxsPSIjRjBENkI3IiBkPSJNMTc5LjQ5OCAxNjkuOTcybC0xOC43NTQgMi43NzgtMjUuMzAyIDIuODc4LTE2LjM3Mi4zOTctMTUuOTc1LS40OTYtMTIuMjA1LTMuNzctMTAuODE2LTExLjcxLTguNDM0LTIzLjkxMy0xLjg4NS01LjE2LTExLjIxMi0zLjc3LTYuNTUtMTAuODE1LTQuNjYzLTE1LjQ4IDUuMTYtMTMuNTkzIDEyLjIwNS00LjI2NyA5LjgyMyA0LjY2NCA0LjY2MyAxMC4zMiA1LjY1Ni0uODk0IDEuODg1LTIuMzgxLTEuODg1LTEwLjgxNi0uNDk2LTEzLjU5NCAyLjc3OC0xOC43NTMtLjA5OS0xMC43MTYgOC41MzMtMTMuNjkzIDE0Ljk4My0xMC44MTZMMTM2LjczMiA1LjE2bDI5LjA3MyA0LjI2NiAyNS4zMDIgMTguMjU4IDExLjcwOSAxOC43NTMgNy41NCAxMy41OTQgMS44ODYgMzMuNzM2LTUuNjU2IDI5LjA3My0xMC4zMiAyNS43OTktOS43MjMgMTMuNzkyIi8+PHBhdGggZmlsbD0iIzMzNTA2MSIgZD0iTTE2My42MjIgMjUxLjAzOWwtNjYuOTc3IDIuNzc4djExLjIxMmw1LjY1NiAzOS4zOTMtMi43NzkgMy4yNzQtNDYuODM0LTE1Ljk3NS0zLjI3NC01LjY1Ni00LjY2NC01Mi45ODYtMTEuMDE0LTMxLjc1Mi0yLjM4MS03LjU0MSAzNy41MDctMjUuNzk4IDExLjcwOS00LjY2NCAxMC4zMTkgMTIuNyA4LjkzIDcuOTM5IDEwLjMyIDMuMjc0IDQuNjYzIDEuMzkgNS42NTYgMjQuNDA5IDQuMjY3IDUuMTYgMTAuODE1LTMuNzcxTDEyOCAyMjkuMDFsNDAuNjgyIDE5LjI1LTUuMDYgMi43NzgiLz48cGF0aCBmaWxsPSIjNkQ2QjZEIiBkPSJNNTIuNDkgODcuNTE2bDEyLjIwNS00LjI2NiA5LjgyMyA0LjY2MyA0LjY2MyAxMC4zMiA1LjY1Ni0uODkzIDEuMzktNS42NTYtMi43NzktMTAuODE2IDIuNzc4LTI1Ljc5OC0yLjM4MS0xNC4wOSA4LjQzNC05LjgyMyAxOC4yNTctMTQuNDg3LTUuMTYtNy4wNDUtMjUuNzk4IDEyLjctMTAuODE1IDguNDM1LTYuMDUzIDEzLjA5Ny05LjMyNyAxMi43MDEtMi43NzggMTQuOTgzIDEuODg1IDE1Ljk3NSIvPjxwYXRoIGZpbGw9IiNEQ0Q5RDgiIGQ9Ik03MS43NCA0My40NnM3LjA0NC0xNy4zNjQgMzUuMTI1LTI1Ljc5OGMyOC4wOC04LjQzNCAxLjM5LTYuMDUzIDEuMzktNi4wNTNMNzcuNzkxIDIzLjMxOCA2Ni4wODQgMzUuMDI2bC01LjE2IDkuMzI3IDEwLjgxNi0uODkzTTU3LjY1IDg0LjI0MnMtOS44MjQtMzIuODQ0IDI3LjY4My0zNy41MDdsLTEuMzg5LTUuNjU2LTI1Ljc5OCA2LjA1My03LjU0MSAyNC40MSAxLjg4NSAxNS45NzQgNS4xNi0zLjI3NCIvPjxwYXRoIGZpbGw9IiNGN0U0Q0QiIGQ9Ik03Mi42MzMgMTI3LjgwMmw2LjE1MS01Ljk1NHMyLjc3OS4yOTggMy4yNzUgMy41NzJjLjQ5NiAzLjI3NSAxLjg4NSAzMi44NDQgMjIuMDI4IDQ4LjcyIDEuODg1IDEuNDg4LTE0Ljk4My0yLjM4Mi0xNC45ODMtMi4zODJMNzQuMTIgMTQ4LjM0MU0xNTguODU5IDExOC44NzFzMS4wOTEtMTQuMTg5IDQuOTYxLTEzLjA5N2MzLjg3IDEuMDkxIDMuODcgNC45NiAzLjg3IDQuOTZzLTkuMzI3IDUuOTU0LTguODMxIDguMTM3TTE5Ny43NTUgNjYuODc4cy03Ljc0IDEuNTg3LTguNDM0IDguNDM0Yy0uNjk1IDYuODQ2IDguNDM0IDEuMzg5IDkuODIzLjg5M00xNDEuMDk4IDY3LjM3NHMtMTAuMzIgMS4zODktMTAuMzIgNy45MzhjMCA2LjU0OCAxMS43MDkgNi4wNTIgMTQuOTgzIDMuMjc0TTc3LjM5NSA5Ny44MzZTNTkuNjM1IDg3LjAyIDU3Ljc1IDk3LjM0Yy0xLjg4NSAxMC4zMTktNi4wNTMgMTcuNzYgMi43NzggMjguNTc2bC02LjA1My0xLjg4NS01LjY1NS0xNC40ODctMS44ODYtMTQuMDlMNTcuNzUgODQuMjQybDEyLjIwNC44OTMgNy4wNDUgNS42NTYuMzk3IDcuMDQ1TTg1LjgzIDY4LjI2N3M3LjkzNy00MS4yNzggNDguMjIzLTQ5LjIxNmMzMy4xNC02LjU0OSA1MC42MDQgMS4zOSA1Ny4xNTMgOC45MyAwIDAtMjkuNTY5LTM1LjEyNS01Ny42NS0yNC40MDktMjguMDggMTAuODE2LTQ4LjcxOSAzMC40NjItNDguMjIzIDQzLjA2NC43OTQgMjEuNjMuNDk2IDIxLjYzLjQ5NiAyMS42M00xOTQuNDggMzIuNjQ1cy0xMy41OTMtLjQ5Ni0xNC4wOSAxMS43MDhjMCAwIDAgMS44ODYuODk0IDMuNzcxIDAgMCAxMC44MTUtMTIuMjA1IDE3LjM2NC01LjY1NiIvPjxwYXRoIGZpbGw9IiNGN0U0Q0QiIGQ9Ik0xMzUuMDQ1IDQ5LjQxNHMtMi4zODEtMTguNjU0LTE4LjI1Ny03LjgzOWMtMTAuMzIgNy4wNDUtOS4zMjggMTYuODY4LTcuNTQxIDE4Ljc1NCAxLjg4NSAxLjg4NSAxLjM4OSA1LjY1NSAyLjc3OCAzLjA3NiAxLjM4OS0yLjU4Ljk5Mi0xMS4wMTQgNi4xNTItMTMuMzk2IDUuMDYtMi4zODEgMTMuNTk0LTQuOTYgMTYuODY4LS41OTUiLz48cGF0aCBmaWxsPSIjNDk3MjhCIiBkPSJNOTAuOTkgMTc2LjAyNUw0Ni45MzIgMTk1LjY3czE4LjI1OCA3Mi42MzMgOC45MyA5NS4xNTdsLTYuNTQ4LTIuMzgxLS40OTYtMjcuNjg0LTEyLjIwNS01Mi4zOS01LjE2LTE0LjQ4OCA0NS45NDEtMzAuOTU4IDEzLjU5NCAxMy4wOThNOTUuNDU0IDIxNi4yMWw2LjI1MSA3LjY0MXYyOC4wOGgtNy40NDFzLS44OTMtMTkuNjQ2LS44OTMtMjIuMDI3YzAtMi4zODIuODkzLTEwLjgxNi44OTMtMTAuODE2TTk1LjY1MyAyNTYuMTk4bC0yMS4xMzUuODkzIDYuMDUzIDQuMjY3IDE0Ljk4MiAyLjM4MiIvPjxwYXRoIGZpbGw9IiMzMzUwNjEiIGQ9Ik0xNjcuNzkgMjUxLjUzNWwxNy4zNjMtLjQ5NiA0LjI2NyA0My4wNjMtMTcuNzYxIDIuMzgyLTMuODctNDQuOTUiLz48cGF0aCBmaWxsPSIjMzM1MDYxIiBkPSJNMTcyLjQ1MyAyNTEuNTM1bDI2LjE5NS0xLjM5czEwLjgxNi0yNy4xODcgMTAuODE2LTI4LjU3NmMwLTEuMzkgOS4zMjctMzkuMzkyIDkuMzI3LTM5LjM5MmwtMjEuMTM1LTIyLjAyOC00LjI2Ny0zLjc3LTExLjIxMiAxMS4yMTJ2NDMuNTZsLTkuNzI0IDQwLjM4NCIvPjxwYXRoIGZpbGw9IiM0OTcyOEIiIGQ9Ik0xODQuMTYxIDI0OC4yNmwtMTYuMzcyIDMuMjc1IDIuMzgyIDEzLjA5OGM2LjA1MiAyLjc3OCAxNi4zNzItNC42NjQgMTYuMzcyLTQuNjY0TTE4NC42NTcgMTY2LjIwMmwzMi44NDQgMjQuNDA5Ljg5My0xMS4yMTMtMjQuODA2LTIyLjkyLTguOTMgOS43MjQiLz48cGF0aCBmaWxsPSIjRkZGIiBkPSJNMTExLjkyNiAzNDMuODE0bC05LjcyNC0zOS4zOTItNC44NjItMjkuMDczLS43OTQtMjEuNTMyIDQzLjk1Ni0yLjM4MWgyNy4yODdsLTIuNDggNDkuMjE1IDQuMjY2IDM4LjAwMy0uNDk2IDcuMDQ1LTM1LjYyMiAyLjc3OS0yMS41MzEtNC42NjQiLz48cGF0aCBmaWxsPSIjRENEOUQ4IiBkPSJNMTYxLjczNiAyNTEuMDM5cy0yLjM4MSA0OC43MiA0LjY2NCA4My40NDhjMCAwLTE0LjA5IDguOTMtMzQuNjMgMTEuMjEybDM5LjM5My0xLjM4OSA0LjY2My0yLjc3OC01LjY1NS03Ni44LTEuNDg5LTE2LjQ3MiIvPjxwYXRoIGZpbGw9IiNGRkYiIGQ9Ik0xOTAuMTE1IDI5MC40MzFsMTguMjU3LTUuMTYgMzQuNjMtMS44ODUgNS4xNi0xNS45NzUtOS4zMjgtMjcuNjg0LTEwLjgxNS0xLjM4OS0xNC45ODMgNC42NjQtMTQuMjg5IDcuMDQ1LTcuNjQtMS4zOS01Ljk1NCAyLjM4MiIvPjxwYXRoIGZpbGw9IiNEQ0Q5RDgiIGQ9Ik0xODkuODE3IDI4MS4wMDVzMTIuMjA1LTUuNjU2IDE0LjA5LTUuMTZsLTUuMTYtMjUuNzk4IDYuMDUzLTIuMzgyczQuMjY3IDI0LjQxIDQuMjY3IDI3LjE4OGMwIDAgMjYuMTk1IDEuMzg5IDI4LjU3NiAxLjM4OSAwIDAgNS42NTYtMTAuODE2IDQuMjY3LTIyLjAyOGw1LjE2IDE0Ljk4My40OTYgOC40MzQtNy41NDEgMTEuMjEyLTguNDM0IDEuODg2LTE0LjA5LS40OTYtNC42NjQtNi4wNTMtMTYuMzcyIDIuMzgxLTUuMTYgMS44ODYiLz48cGF0aCBmaWxsPSIjRkZGIiBkPSJNMTcxLjM2MSAyNDcuNzY0bC0xMC4zMi0yNi4xOTUtMTAuODE1LTE1LjQ4czIuMzgyLTYuNTQ4IDUuNjU2LTYuNTQ4aDEwLjgxNmwxMC4zMiAzLjc3LS44OTQgMTcuMzY1LTQuNzYzIDI3LjA4OCIvPjxwYXRoIGZpbGw9IiNEQ0Q5RDgiIGQ9Ik0xNzMuNDQ1IDIzOC44MzRzLTEzLjA5OC0yNS4zMDItMTMuMDk4LTI5LjA3M2MwIDAgMi4zODItNS42NTYgNS42NTYtNC4yNjYgMy4yNzUgMS4zODkgMTAuMzIgNS4xNiAxMC4zMiA1LjE2di04LjkzMWwtMTUuOTc2LTMuMjc0LTEwLjgxNSAxLjM4OSAxOC4yNTcgNDMuMjYyIDMuNzcuNDk2Ii8+PHBhdGggZmlsbD0iI0ZGRiIgZD0iTTExNi4wOTMgMTc3LjAxN2wtMTIuOTk4LTEuMzktMTIuMjA1LTMuNzd2NC4yNjdsNS45NTMgNi41NDkgMTguNzU0IDguNDM0Ii8+PHBhdGggZmlsbD0iI0RDRDlEOCIgZD0iTTk1LjE1NyAxNzguNDA2czE0LjQ4NiA2LjA1MyAxOS4yNSA0LjY2NGwuNDk1IDUuNjU2LTEzLjA5Ny0yLjc3OS03LjkzOC01LjY1NiAxLjI5LTEuODg1Ii8+PHBhdGggZmlsbD0iI0QzMzgzMyIgZD0iTTE5MC4xMTUgMjAxLjEyOWMtNy45MzgtLjE5OS0xNS4xODItMS4xOTEtMjEuNDMzLTIuOTc3LjM5Ny0yLjU4LS4zOTctNS4wNi4yOTgtNi45NDYgMS43ODYtMS4yOSA0LjY2My0xLjI5IDcuMzQyLTEuNTg3LTIuMjgyLTEuMDkyLTUuNTU2LTEuNTg4LTguMTM2LS44OTMtLjEtMS43ODYtLjg5My0yLjg3OC0xLjM5LTQuMjY3IDQuNDY2LTEuNTg4IDE0Ljk4NC0xMi4wMDYgMjAuOTM3LTguNjMzIDIuODc4IDEuNjg3IDQuMDY5IDExLjAxNCA0LjI2NyAxNS42NzguMTk4IDMuNzctLjM5NyA3LjU0MS0xLjg4NSA5LjYyNSIvPjxwYXRoIHN0cm9rZS13aWR0aD0iMiIgc3Ryb2tlPSIjRDMzODMzIiBkPSJNMTkwLjExNSAyMDEuMTI5Yy03LjkzOC0uMTk5LTE1LjE4Mi0xLjE5MS0yMS40MzMtMi45NzcuMzk3LTIuNTgtLjM5Ny01LjA2LjI5OC02Ljk0NiAxLjc4Ni0xLjI5IDQuNjYzLTEuMjkgNy4zNDItMS41ODctMi4yODItMS4wOTItNS41NTYtMS41ODgtOC4xMzYtLjg5My0uMS0xLjc4Ni0uODkzLTIuODc4LTEuMzktNC4yNjcgNC40NjYtMS41ODggMTQuOTg0LTEyLjAwNiAyMC45MzctOC42MzMgMi44NzggMS42ODcgNC4wNjkgMTEuMDE0IDQuMjY3IDE1LjY3OC4xOTggMy43Ny0uMzk3IDcuNTQxLTEuODg1IDkuNjI1eiIvPjxwYXRoIGZpbGw9IiNEMzM4MzMiIGQ9Ik0xNTIuMTEyIDE4OC4xM2MwIC41OTYgMCAxLjE5LS4xIDEuNzg2LTIuNDggMS41ODgtNi40NSAxLjU4OC05LjIyOCAyLjk3NyAzLjk3LjE5OCA3LjE0NSAxLjE5IDkuOTIzIDIuNDgtLjEgMS40ODktLjEgMy4wNzctLjE5OCA0LjU2NS00LjU2NSAzLjA3Ni04LjczMiA3Ljc0LTE0LjA5IDEwLjcxNi0yLjU4IDEuMzktMTEuNDExIDQuOTYyLTE0LjA5IDQuMjY3LTEuNDg5LS4zOTctMS42ODctMi4yODItMi4yODItNC4wNjgtMS4yOS0zLjc3LTQuMjY3LTkuOTIzLTQuNTY1LTE1LjY3OC0uMjk4LTcuMjQzLTEuMDkxLTE5LjQ0OCA2Ljc0Ny0xNy45NiA2LjM1IDEuMTkxIDEzLjY5MyA0LjA2OSAxOC41NTUgNi43NDggMy4wNzYgMS43ODYgNC43NjMgMy43NyA5LjMyOCA0LjE2NyIvPjxwYXRoIHN0cm9rZS13aWR0aD0iMiIgc3Ryb2tlPSIjRDMzODMzIiBkPSJNMTUyLjExMiAxODguMTNjMCAuNTk2IDAgMS4xOS0uMSAxLjc4Ni0yLjQ4IDEuNTg4LTYuNDUgMS41ODgtOS4yMjggMi45NzcgMy45Ny4xOTggNy4xNDUgMS4xOSA5LjkyMyAyLjQ4LS4xIDEuNDg5LS4xIDMuMDc3LS4xOTggNC41NjUtNC41NjUgMy4wNzYtOC43MzIgNy43NC0xNC4wOSAxMC43MTYtMi41OCAxLjM5LTExLjQxMSA0Ljk2Mi0xNC4wOSA0LjI2Ny0xLjQ4OS0uMzk3LTEuNjg3LTIuMjgyLTIuMjgyLTQuMDY4LTEuMjktMy43Ny00LjI2Ny05LjkyMy00LjU2NS0xNS42NzgtLjI5OC03LjI0My0xLjA5MS0xOS40NDggNi43NDctMTcuOTYgNi4zNSAxLjE5MSAxMy42OTMgNC4wNjkgMTguNTU1IDYuNzQ4IDMuMDc2IDEuNzg2IDQuNzYzIDMuNzcgOS4zMjggNC4xNjd6Ii8+PHBhdGggZmlsbD0iI0QzMzgzMyIgZD0iTTE1Ni41NzcgMTk2Ljc2M2MtLjY5NS0zLjk3LTEuNDg5LTUuMDYtMS4xOTEtOC41MzQgMTAuNjE3LTcuMDQ1IDEyLjUwMiAxMi4xMDYgMS4xOSA4LjUzNCIvPjxwYXRoIHN0cm9rZS13aWR0aD0iMiIgc3Ryb2tlPSIjRDMzODMzIiBkPSJNMTU2LjU3NyAxOTYuNzYzYy0uNjk1LTMuOTctMS40ODktNS4wNi0xLjE5MS04LjUzNCAxMC42MTctNy4wNDUgMTIuNTAyIDEyLjEwNiAxLjE5IDguNTM0eiIvPjxwYXRoIGZpbGw9IiNFRjNEM0EiIGQ9Ik0xNzEuODU3IDE5OS45MzhzLTMuMjc0LTQuNjY0LS44OTMtNi4wNTNjMi4zODItMS4zODkgNC42NjQgMCA2LjA1My0yLjM4MSAxLjM5LTIuMzgyIDAtMy43Ny40OTYtNi41NDkuNDk2LTIuNzc4IDIuNzc4LTMuMjc0IDUuMTYtMy43NyAyLjM4MS0uNDk3IDguOTMtMS4zOSA5LjgyMy44OTNsLTIuNzc4LTguNDM1LTUuNjU2LTEuODg1LTE3Ljc2MSAxMC4zMi0uODkzIDUuMTZ2MTAuMzE5TTEyMi42NDIgMjE1LjQxN2MtLjU5NS03LjM0My0xLjE5LTE0LjU4Ni0xLjc4Ni0yMS45MjktLjk5Mi0xMC45MTQgMi41OC05LjAzIDEyLjEwNS05LjAzIDEuNDg5IDAgOC45MyAxLjY4OCA5LjQyNyAyLjc4IDIuNTggNS4yNTgtNC4yNjcgNC4wNjcgMi45NzYgOC4wMzYgNi4wNTMgMy4yNzUgMTYuODY5LTEuOTg0IDE0LjM4OC05LjQyNi0xLjM5LTEuNjg3LTcuMTQ0LS40OTYtOS4yMjgtMS41ODhsLTExLjAxNC01LjY1NWMtNC42NjMtMi4zODItMTUuMzgtNS45NTQtMjAuMzQxLTIuNTgtMTIuNjAyIDguNTMzLjc5NCAyOS45NjYgNS4yNTkgMzguODk2Ii8+PHBhdGggZmlsbD0iIzIzMUYyMCIgZD0iTTEzNS4wNDUgNDkuNDE0Yy0xMi44LTIuOTc3LTE5LjE1IDUuMzU4LTIzLjAyIDEzLjk5LTMuNDczLS43OTMtMi4wODQtNS41NTYtMS4xOS03LjkzNyAyLjI4MS02LjI1MSAxMS41MS0xNC42ODYgMTkuMDUtMTMuNDk1IDMuMTc1LjM5NyA3LjU0MSAzLjM3NCA1LjE2IDcuNDQyTTE5Ny4yNTkgNjMuOWguNTk1YzIuODc4IDUuOTU0IDUuMzU4IDEyLjMwNSA5LjAzIDE3LjY2My0yLjQ4IDUuNzU1LTE4LjQ1NiAxMC43MTYtMTguMjU4LjU5NSAzLjQ3My0xLjQ4OCA5LjQyNy0uMjk4IDEyLjUwMy0yLjI4Mi0xLjc4Ni00Ljg2Mi00LjI2Ny05LjAzLTMuODctMTUuOTc1TTE0MS40OTUgNjQuMWMyLjc3OCA1LjA2IDMuNjcgMTAuMzE5IDcuNTQgMTQuMDkgMS43ODcgMS42ODYgNS4xNiAzLjc3IDMuNDc0IDguNTMyLS4zOTcgMS4wOTItMy4yNzUgMy41NzMtNC45NjIgNC4wNjktNi4wNTIgMS43ODYtMjAuMjQyLjM5Ny0xNS40NzktNy4yNDQgNS4wNi4xOTkgMTEuODA4IDMuMjc1IDE1LjU3OS0uMzk3LTIuODc4LTQuNTY0LTguMDM4LTEzLjY5My02LjE1Mi0xOS4wNU0xOTQuOTc3IDExNS4xYy05LjEyOSA1Ljg1NS0xOS4zNSAxMi4zMDUtMzQuNDMxIDEwLjgxNi0zLjE3NS0yLjc3OC00LjQ2NS05LjAzLTEuMjktMTMuMDk3IDEuNTg3IDIuNzc4LjU5NSA3LjkzOCA1LjE2IDguNzMxIDguNTMzIDEuNDg5IDE4LjQ1NS01LjI1OSAyNC42MDctNy41NCAzLjc3LTYuNDUtLjI5Ny04LjczMi0zLjc3LTEyLjktNy4wNDUtOC40MzQtMTYuMzcyLTE4Ljk1Mi0xNi4wNzUtMzEuNTUzIDIuODc4LTIuMDg0IDMuMDc2IDMuMTc1IDMuNDczIDQuMDY4IDMuNjcxIDguNTMzIDEyLjkgMTkuNTQ3IDE5LjU0NyAyNi44OSAxLjY4NyAxLjc4NiA0LjM2NiAzLjU3MiA0LjY2NCA0Ljc2My44OTMgMy4zNzMtMi4yODIgNy41NC0xLjg4NSA5LjgyM003NC4xMiAxMDguOTQ5Yy0yLjg3Ny0xLjY4Ny0zLjU3MS04LjgzMS02Ljk0NS05LjAzLTQuODYyLS4yOTctMy45NjkgOS4zMjgtMy45NjkgMTQuOTgzLTMuMjc0LTIuOTc2LTMuODctMTIuMzA0LTEuNDg4LTE3LjA2Ni0yLjc3OC0xLjM5LTMuOTcgMS40ODgtNS41NTcgMi40OCAyLjA4NC0xNC4zODcgMjEuMTM1LTYuNjQ4IDE3Ljk2IDguNjMzTTIwMC43MzIgMTIxLjE1M2MtNC4yNjcgOC4xMzctMTAuMzIgMTcuMDY3LTIyLjgyMiAxNy4zNjUtLjI5OC0yLjU4LS40OTYtNi42NDggMC04LjIzNiA5LjYyNS0uOTkyIDE1LjU3OC01Ljg1NCAyMi44MjItOS4xMjlNMTQwLjggMTI2LjQxMmM3LjkzOCA0LjE2OCAyMi42MjMgNC42NjQgMzMuNTM4IDQuMzY2LjU5NSAyLjM4Mi41OTUgNS4zNTguNTk1IDguMjM2LTEzLjk5LjU5NS0zMC40NjItMi44NzgtMzQuMTMzLTEyLjYwMk0xMzkuMzEyIDEzNC4xNTJjNS41NTYgMTMuODkxIDI0LjUwOCAxMi4zMDQgNDAuNDgzIDExLjkwNy0uNjk0IDEuNzg2LTIuMTgzIDMuOTY5LTQuMTY3IDQuNjYzLTUuMTYgMi4wODQtMTkuMjUgMy42NzItMjYuMzk0LS4wOTktNC40NjUtMi4zODEtNy40NDItNy44MzktOS45MjItMTEuMDE0LTEuMDkyLTEuNDg4LTcuMDQ1LTUuMzU4IDAtNS40NTciLz48cGF0aCBmaWxsPSIjODFCMEM0IiBkPSJNMTk0LjI4MiAyMTAuNjU0Yy02LjQ1IDExLjExMy0xMi43IDIyLjUyNC0yMC4zNCAzMi4yNDggMy4xNzQtOS40MjYgNC41NjMtMjUuMzAyIDUuMDYtMzcuNDA3IDYuNzQ3LTMuMTc2IDEyLjUwMi42OTQgMTUuMjggNS4xNiIvPjxwYXRoIGZpbGw9IiMyMzFGMjAiIGQ9Ik0yMjkuMTEgMjUwLjU0M2MtNy4yNDMgMS40ODgtMTIuMzA0IDguNTMzLTE5LjQ0OCA4LjAzNyAzLjk2OS01LjQ1OCAxMC43MTYtNy44MzkgMTkuNDQ4LTguMDM3TTIzMi4yODUgMjYxLjg1NGMtNS45NTMuNTk2LTEyLjg5OSAxLjU4OC0xOC44NTIgMS4wOTIgMi44NzctNC4zNjYgMTMuNzkyLTIuNzc5IDE4Ljg1Mi0xLjA5Mk0yMzQuMzY5IDI3MS42NzhjLTYuNjQ4LjA5OS0xNC44ODQgMC0yMS4yMzQtLjQ5NyAzLjc3LTQuMDY4IDE2Ljk2Ny0xLjQ4OCAyMS4yMzQuNDk3Ii8+PHBhdGggZmlsbD0iI0RDRDlEOCIgZD0iTTE4MS43OCAyOTguNDY4Yy45OTIgOC4zMzUgNC4yNjcgMTYuNzcgMy44NyAyNS44OTgtMy42NzIgMS4xOS01Ljc1NSAyLjI4Mi0xMC43MTcgMi4yODItLjI5Ny03Ljc0LTEuMzg5LTE5LjY0Ni0xLjA5MS0yNy4wODggMi4zODEuMTk4IDUuOTUzLTEuNjg3IDcuOTM4LTEuMDkyIi8+PHBhdGggZmlsbD0iI0YwRDZCNyIgZD0iTTE3MS4wNjQgMTc1LjQzYy0zLjM3NCAyLjE4Mi02LjE1MiA0Ljg2MS05LjQyNyA3LjI0My03LjE0NC4zOTctMTEuMDE0LS40OTYtMTYuMTczLTQuNTY0LjA5OS0uMjk4LjU5NS0uMTk5LjU5NS0uNTk2IDcuNjQgMy4zNzQgMTcuMzY0LTEuMzg5IDI1LjAwNS0yLjA4NCIvPjxwYXRoIGZpbGw9IiM4MUIwQzQiIGQ9Ik0xMzEuMTc1IDIyNy4zMjRjMi4wODQtOS4wMyAxMC4zMi0xMy43OTIgMTcuNzYxLTE4Ljc1MyA3LjY0IDkuNzI0IDEyLjMwNCAyMi4yMjYgMTcuNDY0IDM0LjMzMS0xMi4yMDUtMy42NzEtMjQuNjA4LTkuNTI1LTM1LjIyNS0xNS41NzgiLz48cGF0aCBmaWxsPSIjMjMxRjIwIiBkPSJNMTczLjg0MiAyOTkuNjU5Yy0uMjk4IDcuNDQyLjY5NCAxOS4yNSAxLjA5MSAyNy4wODggNC45NjIgMCA3LjA0NS0xLjA5MSAxMC43MTctMi4yODIuMzk3LTkuMTI5LTIuODc4LTE3LjU2My0zLjg3LTI1Ljg5OC0xLjk4NS0uNjk0LTUuNTU3IDEuMTkxLTcuOTM4IDEuMDkyek05Ny4yNCAyNTcuNTg4YzMuMjc1IDI5Ljg2NiA3LjkzOCA1NC44NyAxNi41NyA4MS4zNjQgMTkuMTUxIDUuODU0IDQyLjE3MSA2LjM1IDU5LjEzOSAxLjA5MS0zLjA3Ni0xNC44ODMtMS43ODYtMzMuMDQxLTMuNTcyLTQ5LjAxNy0xLjM5LTEyLjAwNi0uNjk1LTI0LjAxMi0yLjU4LTM2LjIxNy0yMC41NC00LjI2Ni00OS41MTMtLjk5Mi02OS41NTcgMi43Nzl6bTc0LjQxOS0yLjU4Yy0uMTk5IDEyLjguNTk1IDI1LjUgMS41ODggMzguMyA0Ljk2LS42OTQgOC4yMzUtMS4xOSAxMi44LTIuMjgyLTEuNDg5LTEyLjMwNC0xLjI5LTI2LjI5NC00LjM2Ni0zNy4yMDktMy40NzMuMS02LjU1IDAtMTAuMDIyIDEuMTl6bTI0LjkwNS0yLjA4NGMtMi4zODEtLjQ5Ni01LjA2IDAtNy4yNDMgMCAxLjA5MSAxMC40MTkgMy41NzIgMjEuOTI5IDQuNDY1IDMyLjk0MyAzLjQ3My4wOTkgNS4zNTgtMS41ODggOC4yMzYtMi4wODQuMTk4LTkuNjI1LS43OTQtMjIuOTIxLTUuNDU4LTMwLjg1OXptMzcuODA1IDM0LjUzYzcuMzQzLTEuNzg2IDExLjkwNy0xMC43MTYgOS44MjMtMTkuOTQ0LTEuMzg5LTYuMTUyLTMuNzctMTcuODYtNi40NS0yMS44My0xLjg4NS0yLjg3Ny03LjE0NC02Ljc0Ny0xMS40MS00LjA2OC02Ljg0NyA0LjM2Ni0xOC44NTMgNS42NTYtMjMuODE0IDEwLjkxNSAyLjQ4IDguMzM1IDMuMjc0IDE5LjY0NyA0LjI2NiAzMC4xNjQgOC41MzQuNDk3IDE4Ljk1Mi0yLjM4IDI2LjA5Ny42OTUtNC45NjIgMS41ODgtMTEuMzEyIDEuNTg4LTE1LjU3OSAzLjk2OSAzLjU3MiAxLjY4NyAxMS43MDkgMS4zOSAxNy4wNjcuMXptLTY4LjA2OC00NC41NTJjLTUuMTYtMTIuMTA1LTkuODIzLTI0LjYwNy0xNy40NjQtMzQuMzMxLTcuNDQyIDQuOTYtMTUuNTc4IDkuNzI0LTE3Ljc2MSAxOC43NTMgMTAuNzE2IDYuMDUzIDIzLjEyIDExLjkwNyAzNS4yMjUgMTUuNTc4em0xMi43LTM3LjQwN2MtLjQ5NiAxMi4xMDUtMS44ODUgMjcuOTgxLTUuMDYgMzcuNDA3IDcuNjQtOS44MjMgMTMuODkyLTIxLjEzNSAyMC4zNDEtMzIuMjQ4LTIuNzc4LTQuNDY1LTguNTMzLTguMzM1LTE1LjI4LTUuMTZ6bS0xNC4zODctNS4wNmMtMi44NzgtLjI5OS01LjM1OCAzLjM3My05LjEyOSAxLjc4NS0uODkzLjk5Mi0xLjY4NyAxLjk4NS0yLjU4IDIuOTc3IDguMzM1IDEwLjEyIDEyLjIwNSAyNC40MSAxOC42NTUgMzYuMjE3IDMuNDczLTExLjQxIDMuMDc2LTIzLjgxNCAzLjg3LTM2LjIxNy00Ljc2My4xOTgtNy40NDItNC40NjUtMTAuODE2LTQuNzYzem0tOS4yMjgtMTIuMjA2Yy0uMjk4IDMuNDczLjQ5NiA0LjU2NSAxLjE5IDguNTM0IDExLjMxMiAzLjU3MiA5LjQyNy0xNS41NzktMS4xOS04LjUzNHptLTEyLjYwMi00LjE2N2MtNC44NjItMi42OC0xMi4yMDQtNS41NTctMTguNTU1LTYuNzQ3LTcuODM4LTEuNDg5LTcuMDQ1IDEwLjcxNi02Ljc0NyAxNy45Ni4yOTggNS43NTQgMy4yNzUgMTEuODA3IDQuNTY1IDE1LjY3Ny41OTUgMS43ODYuNzkzIDMuNjcxIDIuMjgyIDQuMDY4IDIuNjc5LjU5NiAxMS42MDktMi44NzcgMTQuMDktNC4yNjcgNS4zNTgtMi44NzcgOS41MjUtNy41NCAxNC4wOS0xMC43MTYuMDk5LTEuNDg4LjA5OS0zLjA3Ni4xOTgtNC41NjQtMi43NzgtMS4zOS01Ljg1NC0yLjI4Mi05LjkyMy0yLjQ4IDIuNjgtMS4zOSA2Ljc0OC0xLjM5IDkuMjI4LTIuOTc3IDAtLjU5NiAwLTEuMTkxLjEtMS43ODctNC41NjUtLjQ5Ni02LjI1Mi0yLjQ4LTkuMzI4LTQuMTY3em0tNDYuNjM1LTguNDM0Yy00LjA2OCA0LjE2NyAxMS40MSA5LjcyNCAxNi4yNzMgMTAuMDIyIDAtMi41OCAxLjQ4OC01LjA2IDEuMTktNi45NDYtNS44NTQtLjk5Mi0xMy40OTQtLjI5OC0xNy40NjMtMy4wNzZ6bTUwLjAxIDEuODg1YzAgLjM5Ny0uNDk3LjI5OC0uNTk2LjU5NiA1LjI1OSA0LjA2OCA5LjEyOCA0Ljk2IDE2LjE3MyA0LjU2NCAzLjE3Ni0yLjI4MiA2LjA1My01LjA2IDkuNDI3LTcuMjQ0LTcuNzQuNjk1LTE3LjQ2NCA1LjQ1OC0yNS4wMDUgMi4wODR6TTE5MiAxOTEuNDA1Yy0uMTk4LTQuNTY1LTEuMzktMTMuOTkxLTQuMjY3LTE1LjY3OC01Ljk1My0zLjQ3My0xNi40NzEgNy4wNDUtMjAuOTM2IDguNjMzLjQ5NiAxLjM4OSAxLjI5IDIuNDggMS4zODkgNC4yNjYgMi42OC0uNjk0IDUuODU0LS4xOTggOC4xMzYuODkzLTIuNjc5LjI5OC01LjU1Ni4yOTgtNy4zNDIgMS41ODgtLjU5NiAxLjg4NS4xOTggNC4zNjYtLjI5OCA2Ljk0NiA2LjI1MSAxLjc4NiAxMy40OTUgMi42NzkgMjEuNDMzIDIuOTc2IDEuNDg4LTEuOTg0IDIuMDgzLTUuNzU1IDEuODg1LTkuNjI0ek04OS4zMDIgMTc5LjU5N2MtMS4yOS0uODkzLTkuOTIyLTEyLjEwNi0xMS4xMTMtMTEuNjEtMTUuNTc4IDYuMTUzLTMwLjE2NCAxNi43Ny00My4xNjMgMjYuODkgMTIuNDAzIDI2LjY5MiAxNy40NjQgNTkuMzM3IDE4LjM1NyA5MC43OTEgMTQuMTkgNi42NDggMjYuNjkxIDE2LjI3MyA0Ni4wNCAxNy4yNjUtMi4yODItMTUuNzc2LTQuMjY2LTI5Ljk2Ni01LjU1Ni00NC44NS00Ljg2Mi0yLjA4My0xMS44MDguMS0xNi4zNzItLjU5NSAwLTUuNDU3IDYuOTQ1LTIuMzgxIDcuNTQtNi4wNTIuMzk4LTIuNzc5LTMuODctMi45NzctMi40OC03LjM0MyAzLjU3MiAxLjI5IDUuNDU3IDQuMTY3IDkuMjI4IDUuMjU5IDMuNDczLTcuNTQxIDAtMjAuOTM2LjQ5Ni0yNy4yODcuMS0xLjE5LjU5NS02LjU0OSAzLjI3NC01LjY1NiAyLjM4Mi43OTQtLjA5OSAxNC4zODguMSAyMC4zNDEuMTk4IDUuNTU3LS42OTUgMTAuODE2IDEuNTg3IDE0LjI4OSAxOC42NTUtMi41OCAzNy42MDctNC4xNjggNTcuODQ4LTQuNzYzLTQuNDY1LTEuODg1LTkuNzI0LTMuNjcxLTE1LjQ3OS02Ljk0Ni0zLjE3NS0xLjc4Ni0xMi45OTgtNS40NTctMTMuODkxLTguNDM0LTEuNDg5LTQuNzYzIDMuNzctNy4yNDMgNC42NjMtMTEuMzEyLTkuNDI2IDUuMTYtMTEuMjEyLTQuOTYtMTMuNDk0LTEyLjAwNi0xLjk4NS02LjQ1LTMuMTc1LTExLjMxMS0zLjY3MS0xNC45ODMtOC4yMzYtNC4xNjctMTYuOTY4LTguMDM3LTIzLjkxNC0xMi45OTh6bTk0LjQ2Mi0xMC4zMmMxMi45OTktNi4yNSAxNS4zOCAyMy41MTcgMTAuMjIgMzMuMTQyLjc5NCAyLjg3NyAzLjQ3MyAzLjk2OSA0LjU2NSA2LjU0OC03LjI0NCAxMi45OTktMTUuMjggMjUuMTA0LTIyLjcyMyAzNy45MDQgNS40NTgtMy40NzMgMTMuMzk2LS41OTUgMTkuODQ1LTMuMTc1IDIuMzgyLS44OTMgNC4wNjktNi4zNSA1Ljg1NS0xMC43MTYgNC45Ni0xMS45MDcgMTAuMTItMjYuOTkgMTIuNDAzLTM4LjMuNDk2LTIuNTggMS45ODQtOC4yMzcgMS41ODctMTAuNTE5LS41OTUtNC4xNjctNi4xNTItNy4yNDMtOS4wMy05LjcyNC01LjI1OC00Ljc2My04LjUzMy04LjgzLTE0LjA5LTEzLjI5Ni0yLjA4MyAzLjI3NS02Ljg0NiA1LjQ1Ny04LjYzMiA4LjEzN3ptLTEyNC4xMy0xMTUuMmMtNi4xNTIgNi44NDctNC44NjIgMTkuNTQ4LTQuMTY3IDI4LjY3NiAxMS4yMTItNy4wNDQgMjUuOTk3LjU5NiAyNS44OTcgMTIuNTAzIDUuMzU4LS4xIDEuOTg1LTYuNjQ4Ljk5My0xMC45MTUtMy4xNzYtMTMuNzkyIDUuMzU4LTI4LjY3Ni4zOTYtNDEuMjc3LTkuNjI0Ljc5My0xNy40NjMgNC42NjMtMjMuMTE5IDExLjAxNHptNDQuMjU0LTM5LjU5Yy0xMy45OSAzLjk2OS0zMS45NSAxNC4xODktMzcuNzA1IDI2Ljc5IDQuNDY1LS42OTQgNy41NDEtMi44NzcgMTEuOTA3LTMuMTc1IDEuNjg3LS4wOTkgMy44Ny42OTUgNS43NTUuMTk5IDMuNzctLjk5MiA3LjA0NS05LjUyNiA5LjkyMi0xMi43MDEgMi43NzktMy4wNzYgNi4xNTItNC40NjUgOC40MzUtNy4yNDMgMS40ODgtLjY5NSAzLjY3LS42OTUgMy43Ny0yLjg3OC0uNTk1LS42OTUtMS4yOS0xLjE5LTIuMDg0LS45OTJ6bTcyLjkzIDMuNzdjLTE0LjU4NS04LjIzNS0zOS4xOTMtMTQuMzg3LTU0LjY3Mi02LjY0OC0xMi41MDMgNi4yNTEtMjkuMzcgMTYuNTctMzUuMTI2IDI5LjU3IDUuMzU4IDEyLjYtMS41ODcgMjQuMTEtMi4wODQgMzYuOTEtLjE5OCA2Ljg0NyAzLjE3NiAxMi43MDIgMy40NzMgMjAuMTQ0LTEuODg1IDMuMDc2LTcuNDQyIDMuMzczLTExLjMxMSAzLjE3NS0xLjI5LTYuNTUtMy41NzItMTMuODkyLTEwLjMyLTE0LjY4Ni05LjUyNS0xLjA5MS0xNi41NyA2Ljg0Ny0xNi45NjcgMTUuMDgzLS40OTYgOS43MjQgNy40NDIgMjUuNzk4IDE4Ljc1MyAyNC43MDcgNC4zNjYtLjM5NyA1LjQ1OC00Ljc2MyAxMC4yMi00Ljc2MyAyLjU4IDUuMTYtMy45NjggNi43NDctNC42NjMgMTAuNDE4LS4xOTkuOTkzLjQ5NiA0LjY2NC45OTIgNi40NSAyLjA4NCA4LjQzNCA2LjY0OCAxOS40NDggMTEuMTEzIDI1Ljg5OCA1Ljc1NSA4LjIzNSAxNi45NjggOS40MjYgMjkuMDczIDEwLjIyIDIuMTgzLTQuNjY0IDEwLjEyMS00LjI2NyAxNS4yOC0zLjA3Ni02LjI1LTIuNDgtMTIuMDA1LTguNDM0LTE2Ljc2OC0xMy42OTMtNS40NTgtNi4wNTMtMTEuMDE0LTEyLjUwMi0xMS4zMTItMjAuNDQgMTAuNDE5IDE0LjM4NyAxOC45NTIgMjYuOTg5IDM3LjgwNSAzMy4zNCAxNC4yODggNC43NjIgMzAuOTU4LTIuMTg0IDQxLjk3Mi05LjkyMyA0LjU2NC0zLjE3NiA3LjI0My04LjMzNSAxMC41MTgtMTIuOSAxMi4xMDUtMTcuNDYzIDE3Ljc2MS00Mi4yNyAxNi41Ny02Ni4zODEtLjQ5Ni05LjkyMi0uNDk2LTE5Ljg0NS0zLjg3LTI2LjQ5My0zLjQ3Mi02Ljk0Ni0xNS4yOC0xMy4yOTYtMjIuMjI2LTYuOTQ2LTEuMjktNi44NDYgNS43NTUtMTEuMDE0IDEzLjk5LTguNTMzLTUuODUzLTcuNjQtMTIuMDA1LTE2LjY3LTIwLjQ0LTIxLjQzM3ptMjcuMTg4IDIyNC4zNDhjMTEuNDExLTUuNjU2IDMyLjY0NS0xNS4xODIgMzkuNjkgMCAyLjY4IDUuNjU1IDUuNzU1IDE1LjA4MiA3LjA0NSAyMC45MzYgMS44ODUgOC4xMzctMi4wODQgMjUuNDAyLTEwLjUxOCAyOC4wOC03LjQ0MiAyLjM4Mi0xNi4wNzQgMi4yODMtMjUuMDA0LjQ5Ny0xLjA5Mi0uODkzLTIuMTgzLTIuMzgyLTMuMDc2LTMuOTctNi4zNS0uMTk4LTEyLjQwMy4yOTktMTcuMzY1IDIuOTc4LjQ5NiA0Ljc2Mi0yLjY3OSA1LjQ1Ny01Ljc1NSA2LjQ1LTIuMTgzIDguODMgNC40NjUgMjAuMzQgMi44NzggMjguMjc4LTEuMDkyIDUuNzU1LTguMTM3IDYuNjQ4LTEzLjI5NiA3LjY0LS4xOTkgMy4xNzYuMTk4IDUuODU1LjU5NSA4LjUzNC0xLjE5IDQuMzY2LTYuNDUgNi44NDYtMTEuNTEgNy40NDItMTYuNTcgMS45ODQtNDEuNjc0IDIuODc3LTU3LjU1LTIuODc4LTQuNDY2LTEwLjkxNC03LjkzOC0yNC4xMTEtMTEuNjEtMzYuNTE0LTE1LjQ3OSAxLjY4Ni0yOC4wOC02LjY0OS0zOS44ODgtMTIuMjA1LTQuMDY4LTEuODg1LTkuNzI0LTIuOTc3LTExLjMxMi02LjI1MS0xLjQ4OC0zLjE3NS0uODkzLTkuMjI4LTEuMjktMTQuODg0LS44OTMtMTQuNTg2LTEuNzg2LTI4LjY3Ni01LjU1Ni00My41Ni0xLjY4Ny02Ljc0Ny00Ljc2My0xMi42MDEtNi44NDctMTkuMDUtMS45ODQtNS45NTQtNS4zNTgtMTMuMzk2LTYuMjUxLTE5LjM1LTEuMjktOC44MyA3LjA0NS05LjMyNyAxMi4zMDQtMTMuMTk3IDguMjM2LTUuOTUzIDE0LjY4NS05LjIyOCAyMy42MTUtMTQuNTg2IDIuNjgtMS41ODcgMTAuNjE3LTUuNTU2IDExLjUxLTcuNDQyIDEuNzg3LTMuNjctMy4wNzUtOC44My00LjM2NS0xMS43MDgtMi4wODQtNC41NjQtMy4xNzYtOC40MzQtMy40NzMtMTIuOS03LjQ0Mi0xLjE5LTEzLjE5Ny01LjY1NS0xNi41Ny0xMC42MTYtNS42NTctOC4zMzUtOS42MjYtMjMuNzE1LTQuNjY0LTM1LjMyNC4zOTctLjg5MyAyLjI4Mi0yLjc3OSAyLjU4LTQuMTY4LjU5NS0yLjc3OC0xLjA5Mi02LjQ1LTEuMTkxLTkuNDI2LS40OTYtMTUuMTgyIDIuNTgtMjguMjggMTIuOC0zMi44NDQgNC4xNjctMTYuNTcgMTkuMDUtMjIuMDI3IDMzLjA0Mi0zMC4yNjMgNS4yNTktMy4wNzYgMTEuMDE0LTUuMDYgMTYuOTY3LTcuMjQ0IDIxLjMzMy03LjgzOCA1NC4xNzctNi4zNSA3MS45MzggNy4wNDUgNy41NDEgNS42NTYgMTkuNTQ3IDE3LjY2MiAyMy44MTQgMjYuMzk0IDExLjQxIDIyLjkyMSAxMC41MTggNjEuMzIxIDIuNTggODkuMzAzLTEuMDkyIDMuNzctMi41OCA5LjIyNy00Ljc2MyAxMy43OTItMS40ODggMy4xNzUtNi4xNTIgOS40MjYtNS42NTYgMTIuMjA0LjU5NiAyLjg3OCAxMC43MTcgMTAuNTE4IDEyLjkgMTIuNjAyIDMuODcgMy43NyAxMS4zMTEgOC43MzIgMTEuOTA2IDEzLjQ5NS42OTUgNS4wNi0yLjE4MiAxMi4wMDYtMy42NyAxNi44NjgtNC43NjQgMTYuMjczLTkuNTI2IDMxLjI1Ni0xNC45ODQgNDUuODQyeiIvPjxwYXRoIGZpbGw9IiNGN0U0Q0QiIGQ9Ik0xMjguMSAxMjkuODg1Yy41OTUtLjc5NCAzLjk2OC0yLjA4MyA4LjczMS4xOTkgMCAwLTUuNjU2Ljg5My01LjE2IDEwLjMybC0yLjM4MS0uNDk3Yy4xLjEtMi4zODEtOC40MzQtMS4xOS0xMC4wMjIiLz48cGF0aCBmaWxsPSIjMUQxOTE5IiBkPSJNMTY5LjE3OCAyMTAuNDU2YzAgMS4zODktMS4xOSAyLjU4LTIuNTggMi41OC0xLjM4OSAwLTIuNTgtMS4xOTEtMi41OC0yLjU4IDAtMS4zOSAxLjE5MS0yLjU4IDIuNTgtMi41OCAxLjQ4OSAwIDIuNTggMS4xOSAyLjU4IDIuNThNMTcxLjc1OCAyMjIuNDYyYzAgMS4zOS0xLjE5IDIuNTgtMi41OCAyLjU4LTEuMzg5IDAtMi41OC0xLjE5LTIuNTgtMi41OCAwLTEuMzkgMS4xOTEtMi41OCAyLjU4LTIuNTggMS40ODkgMCAyLjU4IDEuMDkyIDIuNTggMi41OCIvPjxnIGZpbGw9IiMyMzFGMjAiPjxwYXRoIGQ9Ik0zNi42MTQgMzc0LjI3NmMtLjc5NC4xLTEuNDg4LjE5OC0yLjA4NC4yOTgtLjU5NS4wOTktMS4xOS4xOTgtMS45ODQuMzk3LS44OTMuMTk4LTEuMzkuNTk1LTEuNTg4IDEuMTktLjE5OC41OTYtLjM5NyAxLjE5LS4zOTcgMS45ODV2MjQuMjFhMTQuMzMgMTQuMzMgMCAwIDEtMS4zODkgNi4xNTNjLS44OTMgMS44ODUtMi4wODQgMy4zNzMtMy42NzEgNC42NjMtMS41ODggMS4xOS0zLjM3NCAyLjE4My01LjM1OCAyLjc3OC0xLjk4NS41OTYtNC4wNjkuOTkzLTYuMjUyLjk5My0zLjg3IDAtNi45NDUtLjg5My05LjMyNy0yLjc3OS0yLjM4MS0xLjg4NS0zLjU3Mi00LjM2Ni0zLjU3Mi03LjY0IDAtMS44ODUuNDk2LTMuNDczIDEuNTg4LTQuNzYzIDEuMDkxLTEuMjkgMi41OC0xLjg4NSA0LjQ2NS0xLjg4NSAxLjc4NiAwIDMuMTc1LjQ5NiA0LjI2NyAxLjU4OCAxLjA5MSAxLjA5MSAxLjU4NyAyLjM4MSAxLjU4NyAzLjg3IDAgMS4yOS0uNDk2IDIuNTgtMS4zODkgMy42Ny0uODkzIDEuMDkyLTEuOTg0IDIuMTg0LTMuMTc1IDMuMDc3di4zOTdjLjE5OC4zOTYuNTk1Ljc5MyAxLjE5IDEuMDkxLjU5Ni4yOTggMS4yOS4zOTcgMS44ODYuMzk3IDIuNDggMCA0LjQ2NS0uODkzIDUuODU0LTIuNjggMS4zOS0xLjc4NSAyLjA4NC00LjQ2NCAyLjA4NC04LjAzNnYtMjQuODA3YzAtLjY5NC0uMS0xLjM4OS0uMjk4LTEuODg1LS4xOTgtLjQ5Ni0uNzk0LS44OTMtMS42ODctMS4yOS0uNTk1LS4yOTctMS4zODktLjQ5Ni0yLjI4Mi0uNjk0LS44OTMtLjE5OS0xLjU4Ny0uMjk4LTIuMTgzLS4zOTd2LTIuMzgyaDIzLjQxN3YyLjQ4MWguMjk4ek03My4zMjcgNDA4LjQxYy0uNjk0IDEuMTktMS41ODcgMi4yODEtMi41OCAzLjM3My0uOTkyIDEuMDkxLTIuMTgzIDEuODg1LTMuNDczIDIuNjc5LTEuMzg5Ljc5NC0yLjc3OCAxLjM5LTQuMTY3IDEuNzg2LTEuMzkuMzk3LTMuMDc2LjU5NS00Ljg2Mi41OTUtMy4wNzYgMC01LjY1Ni0uMzk2LTcuOTM4LTEuMjktMi4xODMtLjg5My00LjA2OC0xLjk4NC01LjQ1Ny0zLjQ3Mi0xLjQ4OS0xLjQ4OS0yLjQ4MS0zLjE3Ni0zLjI3NS01LjE2YTE5LjU0OCAxOS41NDggMCAwIDEtMS4wOTEtNi40NWMwLTIuMDgzLjM5Ny00LjE2NyAxLjE5LTYuMDUyLjc5NC0xLjg4NiAxLjg4Ni0zLjY3MiAzLjI3NS01LjE2czMuMTc1LTIuNjggNS4zNTgtMy41NzJhMTguNzA5IDE4LjcwOSAwIDAgMSA3LjE0NC0xLjM5YzIuODc4IDAgNS4yNi4zOTggNy4xNDQgMS4wOTIgMS44ODYuNjk1IDMuMzc0IDEuNjg3IDQuNTY1IDIuODc4IDEuMTkgMS4xOSAxLjk4NCAyLjU4IDIuNTggNC4xNjcuNDk2IDEuNTg4Ljc5MyAzLjI3NS43OTMgNS4wNnYxLjk4NUg1MS41OTdjMCA0LjI2Ny43OTQgNy40NDIgMi40OCA5LjYyNSAxLjU4OCAyLjE4MyA0LjI2NyAzLjI3NCA3Ljc0IDMuMjc0IDEuOTg1IDAgMy42NzEtLjQ5NiA1LjI1OS0xLjU4N2ExNC4xMTEgMTQuMTExIDAgMCAwIDMuOTY5LTQuMDY5bDIuMjgyIDEuNjg3ek02MS41MiAzOTYuNjAxYzAtMS4xOTEtLjA5OS0yLjQ4MS0uMTk4LTMuNzcxLS4xLTEuMjktLjI5OC0yLjM4MS0uNjk1LTMuMTc1LS4zOTctLjk5Mi0uNzkzLTEuNjg3LTEuNDg4LTIuMTgzLS41OTUtLjQ5Ni0xLjM5LS42OTUtMi4yODItLjY5NS0xLjU4OCAwLTIuODc4Ljc5NC0zLjc3IDIuMzgyLS45OTMgMS41ODctMS40OSA0LjE2Ny0xLjU4OCA3LjY0bDEwLjAyMS0uMTk4ek0xMTcuMDg1IDQxNS43NTJIOTguNDMxdi0yLjI4MmMuMzk3IDAgLjg5My0uMSAxLjM5LS4xOTkuNTk1LS4wOTkuOTkxLS4xOTggMS4yOS0uMjk3LjM5Ni0uMTk5LjY5NC0uNTk2Ljg5Mi0uOTkzLjE5OS0uMzk3LjI5OC0xLjA5MS4yOTgtMS44ODVWMzk1LjYxYzAtMi4wODMtLjM5Ny0zLjY3MS0xLjE5LTQuNzYyLS43OTUtMS4wOTItMS44ODYtMS41ODgtMy40NzQtMS41ODgtLjc5NCAwLTEuNTg3LjEtMi4yODIuMzk3LS42OTUuMTk4LTEuMzkuNTk1LTIuMDg0IDEuMDkxLS41OTUuMzk3LTEuMDkxLjc5NC0xLjQ4OCAxLjI5LS4zOTcuMzk3LS42OTUuNzk0LS44OTMgMS4xOXYxNi41NzFjMCAuNjk1LjEgMS4yOS4yOTggMS43ODYuMTk4LjQ5Ny41OTUuODk0Ljk5MiAxLjA5Mi4yOTguMTk4LjY5NC4zOTcgMS4xOS40OTZsMS40ODkuMjk4djIuMjgySDc2LjAwNnYtMi4yODJjLjQ5NiAwIC45OTItLjEgMS41ODgtLjE5OS40OTYtLjA5OS45OTItLjE5OCAxLjM4OS0uMjk3LjY5NS0uMTk5IDEuMDkxLS41OTYgMS4zOS0xLjA5Mi4xOTgtLjQ5Ni4zOTYtMS4wOTEuMzk2LTEuODg1di0xOC4wNTljMC0uNTk1LS4xOTgtMS4yOS0uNDk2LTEuODg1LS4yOTgtLjU5Ni0uNzk0LTEuMDkyLTEuMjktMS40ODktLjM5Ny0uMTk4LS43OTQtLjQ5Ni0xLjM5LS41OTVhNS43NzcgNS43NzcgMCAwIDAtMS44ODQtLjI5OHYtMi4yODJsMTQuNzg0LS43OTQuNDk2LjQ5NnY0LjQ2NmguMWEyOS44MDggMjkuODA4IDAgMCAwIDIuMDgzLTEuODg2IDI5LjM2NyAyOS4zNjcgMCAwIDEgMi4yODItMS43ODZjLjc5NC0uNDk2IDEuNzg2LS44OTMgMi45NzctMS4yOSAxLjE5LS4zOTcgMi41OC0uNDk2IDMuOTY5LS40OTYgMy4zNzQgMCA1Ljg1NC45OTIgNy41NDEgMi44NzggMS42ODcgMS44ODUgMi40OCA0LjQ2NSAyLjQ4IDcuNjR2MTUuMTgxYzAgLjc5NC4xIDEuMzkuMjk4IDEuNzg2LjE5OS40OTcuNjk1Ljc5NCAxLjI5IDEuMDkyLjI5OC4xLjY5NS4yOTggMS4xOTEuMzk3LjQ5Ni4xLjk5Mi4xOTggMS42ODcuMjk4djIuMzhoLjE5OHpNMTU5Ljc1MiA0MTUuNzUyaC0xNC41ODZhMTEwLjM1MiAxMTAuMzUyIDAgMCAwLTQuOTYxLTguMDM3Yy0xLjQ4OS0yLjE4My0yLjg3OC00LjI2Ny00LjE2OC02LjA1M2wtMS43ODYgMS41ODh2Ni43NDdjMCAuNjk0LjEgMS4zODkuMjk4IDEuNzg2LjE5OC40OTYuNTk1Ljc5NCAxLjI5IDEuMDkxLjM5Ny4xOTkuNzk0LjI5OCAxLjI5LjM5Ny40OTYuMS45OTIuMTk5IDEuNDg4LjE5OXYyLjI4MmgtMTkuMjV2LTIuMjgyYy40OTcgMCAuOTkzLS4xIDEuNTg4LS4xOTkuNDk2LS4wOTkuOTkyLS4xOTggMS4zOS0uMjk3LjY5NC0uMTk5IDEuMDktLjU5NiAxLjM4OC0xLjA5Mi4xOTktLjQ5Ni4zOTctMS4wOTEuMzk3LTEuODg1di0zNC41M2MwLS42OTUtLjE5OC0xLjM5LS40OTYtMi4wODQtLjI5OC0uNjk1LS42OTQtMS4yOS0xLjI5LTEuNjg3LS4zOTctLjE5OC0uOTkyLS40OTYtMS43ODYtLjU5NS0uNzk0LS4xOTktMS40ODgtLjI5OC0yLjE4My0uMjk4di0yLjI4MmwxNS4zOC0uNzk0LjQ5Ni40OTZ2MzEuOTVjMS40ODktMS4zODkgMy4yNzUtMi45NzYgNS4xNi00Ljc2MiAxLjg4NS0xLjc4NiAzLjQ3My0zLjI3NSA0LjU2NC00LjQ2NS42OTUtLjY5NSAxLjA5Mi0xLjE5MSAxLjA5Mi0xLjU4OC4wOTktLjM5Ny4wOTktLjU5NS4wOTktLjY5NCAwLS4zOTctLjI5OC0uNjk1LS45OTItLjg5My0uNjk1LS4xOTktMS41ODgtLjQ5Ny0yLjk3Ny0uNjk1di0yLjE4M2gxNS42Nzd2Mi4xODNjLTIuMDgzLjU5NS0zLjY3IDEuMDkxLTQuNzYyIDEuNTg4LTEuMDkyLjQ5Ni0yLjI4MyAxLjE5LTMuNTcyIDEuOTg0YTUzLjcwOCA1My43MDggMCAwIDAtMi40ODEgMS43ODZjLS43OTQuNTk1LTEuNjg3IDEuMzktMi43NzggMi4yODIgMS45ODQgMi45NzcgMy44NyA1LjY1NiA1LjU1NiA4LjEzNyAxLjY4NyAyLjQ4IDMuNDczIDUuMTYgNS4zNTggNy45MzguNTk2Ljk5MiAxLjM5IDEuNTg3IDIuMzgyIDEuOTg0Ljk5Mi4yOTggMS44ODUuNDk2IDIuODc3LjU5NnYyLjM4aC4yOTh6TTE3OS41OTcgNDE1Ljc1MkgxNjAuMDV2LTIuMjgyYy40OTYgMCAxLjA5MS0uMSAxLjU4Ny0uMTk5cy45OTItLjE5OCAxLjI5LS4yOTdjLjY5NS0uMTk5IDEuMDkyLS41OTYgMS4zOS0xLjA5Mi4yOTctLjQ5Ni4zOTYtMS4wOTEuMzk2LTEuODg1di0xOC4wNTljMC0uNjk1LS4xOTgtMS4zOS0uNDk2LTEuODg1YTMuMDE2IDMuMDE2IDAgMCAwLTEuMTktMS4yOWMtLjM5OC0uMTk5LS44OTQtLjQ5Ni0xLjY4Ny0uNjk1LS43OTQtLjE5OC0xLjQ4OS0uMzk3LTIuMDg0LS4zOTd2LTIuMjgybDE1LjE4MS0uNzk0LjQ5Ni40OTZWNDA5LjdjMCAuNjk1LjE5OSAxLjI5LjQ5NiAxLjg4NS4yOTguNDk3Ljc5NC44OTQgMS4yOSAxLjA5Mi4zOTcuMTk4Ljg5My4zOTcgMS4zOS40OTYuNDk2LjEuOTkyLjE5OSAxLjU4Ny4yOTh2Mi4yODJoLS4xem0tNC40NjUtNDIuMTdjMCAxLjU4Ny0uNTk2IDIuODc3LTEuNzg2IDMuOTY4LTEuMTkxIDEuMDkyLTIuNjggMS42ODctNC4yNjcgMS42ODctMS42ODcgMC0zLjA3Ni0uNTk1LTQuMzY2LTEuNjg3LTEuMTktMS4wOTEtMS43ODYtMi40OC0xLjc4Ni0zLjk2OSAwLTEuNTg3LjU5NS0yLjg3NyAxLjc4Ni00LjA2OCAxLjE5LTEuMDkxIDIuNjgtMS42ODcgNC4zNjYtMS42ODcgMS42ODcgMCAzLjA3Ni41OTYgNC4yNjcgMS42ODcgMS4xOSAxLjA5MiAxLjc4NiAyLjQ4IDEuNzg2IDQuMDY4ek0yMjMuMzU1IDQxNS43NTJoLTE4LjY1NHYtMi4yODJjLjM5NyAwIC44OTMtLjEgMS4zODktLjE5OS41OTUtLjA5OS45OTItLjE5OCAxLjI5LS4yOTcuMzk3LS4xOTkuNjk0LS41OTYuODkzLS45OTMuMTk4LS4zOTcuMjk4LTEuMDkxLjI5OC0xLjg4NVYzOTUuNjFjMC0yLjA4My0uMzk3LTMuNjcxLTEuMTkxLTQuNzYyLS43OTQtMS4wOTItMS44ODUtMS41ODgtMy40NzMtMS41ODgtLjc5NCAwLTEuNTg4LjEtMi4yODIuMzk3LS42OTUuMjk3LTEuMzkuNTk1LTIuMDg0IDEuMDkxLS41OTUuMzk3LTEuMDkxLjc5NC0xLjQ4OCAxLjI5LS4zOTcuMzk3LS42OTUuNzk0LS44OTMgMS4xOXYxNi41NzFjMCAuNjk1LjA5OSAxLjI5LjI5NyAxLjc4Ni4xOTkuNDk3LjU5Ni44OTQuOTkzIDEuMDkyLjI5Ny4xOTguNjk0LjM5NyAxLjE5LjQ5NmwxLjQ4OS4yOTh2Mi4yODJoLTE4Ljg1M3YtMi4yODJjLjQ5NiAwIC45OTItLjEgMS41ODgtLjE5OS40OTYtLjA5OS45OTItLjE5OCAxLjM4OS0uMjk3LjY5NC0uMTk5IDEuMDkxLS41OTYgMS4zODktMS4wOTIuMTk4LS40OTYuMzk3LTEuMDkxLjM5Ny0xLjg4NXYtMTguMDU5YzAtLjU5NS0uMTk5LTEuMjktLjQ5Ni0xLjg4NS0uMjk4LS41OTYtLjc5NC0xLjA5Mi0xLjI5LTEuNDg5LS4zOTctLjE5OC0uNzk0LS40OTYtMS4zOS0uNTk1YTUuNzc3IDUuNzc3IDAgMCAwLTEuODg1LS4yOTh2LTIuMjgybDE0Ljc4NS0uNzk0LjQ5Ni40OTZ2NC40NjZoLjFhMjkuODA3IDI5LjgwNyAwIDAgMCAyLjA4My0xLjg4NiAyOS4zNjcgMjkuMzY3IDAgMCAxIDIuMjgyLTEuNzg2Yy43OTQtLjQ5NiAxLjc4Ni0uODkzIDIuOTc3LTEuMjkgMS4xOS0uMzk3IDIuNTgtLjQ5NiAzLjk2OS0uNDk2IDMuMzczIDAgNS44NTQuOTkyIDcuNTQgMi44NzggMS42ODggMS44ODUgMi40ODEgNC40NjUgMi40ODEgNy42NHYxNS4xODFjMCAuNzk0LjEgMS4zOS4yOTggMS43ODYuMTk5LjQ5Ny42OTUuNzk0IDEuMjkgMS4wOTIuMjk4LjEuNjk1LjI5OCAxLjE5LjM5Ny40OTcuMS45OTMuMTk4IDEuNjg4LjI5OHYyLjM4aC4xOTh6TTI0MC41MiA0MTYuODQzYy0xLjk4NCAwLTMuOTY4LS4yOTctNS44NTMtLjg5My0xLjg4Ni0uNTk1LTMuMzc0LTEuMTktNC40NjUtMS44ODVsLS44OTMgMi4wODRoLTIuMzgybC0uMzk3LTExLjUxaDIuMjgyYy4yOTguODkzLjc5NCAxLjk4NCAxLjU4OCAzLjE3NS42OTUgMS4xOSAxLjU4OCAyLjE4MyAyLjQ4IDMuMTc1YTE3LjA4MiAxNy4wODIgMCAwIDAgMy4zNzQgMi4zODJjMS4yOS41OTUgMi41OC45OTIgMy45Ny45OTIgMS44ODUgMCAzLjI3NC0uMzk3IDQuMTY3LTEuMDkyLjg5My0uNjk0IDEuMzg5LTEuODg1IDEuMzg5LTMuMzczIDAtLjc5NC0uMTk5LTEuNDg5LS41OTYtMi4wODQtLjM5Ni0uNDk2LS45OTItLjk5Mi0xLjY4Ni0xLjM5LS43OTQtLjM5Ni0xLjY4Ny0uNzkzLTIuNjgtMS4wOS0uOTkyLS4yOTgtMi4xODItLjU5Ni0zLjU3MS0xLjA5Mi0xLjM5LS4zOTctMi41OC0uNzk0LTMuNTczLTEuMjktLjk5Mi0uMzk3LTIuMDgzLTEuMDkyLTMuMDc2LTEuOTg1LS44OTMtLjc5My0xLjY4Ni0xLjc4Ni0yLjE4Mi0yLjg3Ny0uNTk2LTEuMDkyLS43OTQtMi40OC0uNzk0LTQuMDY4IDAtMi44NzggMS4xOS01LjI2IDMuNjcxLTcuMDQ1IDIuNDgtMS43ODYgNS42NTYtMi42OCA5LjYyNS0yLjY4IDEuODg1IDAgMy41NzIuMiA1LjE2LjU5NiAxLjU4Ny4zOTcgMi44NzcuNzk0IDMuOTY5IDEuMjlsLjY5NC0xLjc4NmgyLjM4MWwuNDk3IDEwLjUxOGgtMi4xODNjLS42OTUtMi4xODMtMS45ODUtMy45Ny0zLjY3Mi01LjU1Ny0xLjc4Ni0xLjU4Ny0zLjY3MS0yLjM4MS01LjY1NS0yLjM4MS0xLjU4OCAwLTIuODc4LjI5Ny0zLjc3MS45OTItLjg5My42OTUtMS4zOSAxLjU4OC0xLjM5IDIuNzc4IDAgMS41ODguNjk1IDIuNjggMS45ODUgMy4zNzQgMS4yOS42OTUgMy4xNzYgMS4zOSA1LjU1NyAxLjk4NCAzLjY3MS45OTMgNi4zNSAyLjI4MyA4LjEzNiAzLjg3IDEuNjg3IDEuNjg3IDIuNTggMy43NyAyLjU4IDYuMjUxIDAgMy4zNzQtMS4yOSA2LjA1My0zLjk2OSA3Ljg0LTIuOTc3IDEuNzg1LTYuNDUgMi43NzctMTAuNzE2IDIuNzc3eiIvPjwvZz48L3N2Zz4=" vertex="1" parent="1">
          <mxGeometry x="139" y="339.13" width="46.53" height="75.75" as="geometry" />
        </mxCell>
        <mxCell id="S7hA1KW036Cgnqv6eDFZ-14" value="" style="rounded=0;orthogonalLoop=1;jettySize=auto;html=1;" edge="1" parent="1" source="S7hA1KW036Cgnqv6eDFZ-1" target="Rg2q4Fr_N2kqhu6swv87-6">
          <mxGeometry relative="1" as="geometry" />
        </mxCell>
        <mxCell id="S7hA1KW036Cgnqv6eDFZ-27" value="Build and Push Docker Image" style="edgeLabel;html=1;align=center;verticalAlign=middle;resizable=0;points=[];" vertex="1" connectable="0" parent="S7hA1KW036Cgnqv6eDFZ-14">
          <mxGeometry x="0.3269" relative="1" as="geometry">
            <mxPoint x="-16" as="offset" />
          </mxGeometry>
        </mxCell>
        <mxCell id="S7hA1KW036Cgnqv6eDFZ-24" style="edgeStyle=orthogonalEdgeStyle;rounded=0;orthogonalLoop=1;jettySize=auto;html=1;entryX=0;entryY=0.5;entryDx=0;entryDy=0;" edge="1" parent="1" source="S7hA1KW036Cgnqv6eDFZ-1" target="Rg2q4Fr_N2kqhu6swv87-5">
          <mxGeometry relative="1" as="geometry">
            <Array as="points">
              <mxPoint x="519" y="376" />
              <mxPoint x="519" y="475" />
            </Array>
          </mxGeometry>
        </mxCell>
        <mxCell id="S7hA1KW036Cgnqv6eDFZ-32" value="Code Analysis" style="edgeLabel;html=1;align=center;verticalAlign=middle;resizable=0;points=[];" vertex="1" connectable="0" parent="S7hA1KW036Cgnqv6eDFZ-24">
          <mxGeometry x="0.1661" y="3" relative="1" as="geometry">
            <mxPoint x="26" y="2" as="offset" />
          </mxGeometry>
        </mxCell>
        <mxCell id="S7hA1KW036Cgnqv6eDFZ-25" style="edgeStyle=orthogonalEdgeStyle;rounded=0;orthogonalLoop=1;jettySize=auto;html=1;entryX=0;entryY=0.5;entryDx=0;entryDy=0;" edge="1" parent="1" source="S7hA1KW036Cgnqv6eDFZ-1" target="Rg2q4Fr_N2kqhu6swv87-11">
          <mxGeometry relative="1" as="geometry">
            <Array as="points">
              <mxPoint x="519" y="376" />
              <mxPoint x="519" y="260" />
            </Array>
          </mxGeometry>
        </mxCell>
        <mxCell id="S7hA1KW036Cgnqv6eDFZ-28" value="Update and push" style="edgeLabel;html=1;align=center;verticalAlign=middle;resizable=0;points=[];" vertex="1" connectable="0" parent="S7hA1KW036Cgnqv6eDFZ-25">
          <mxGeometry x="0.4338" y="-1" relative="1" as="geometry">
            <mxPoint x="-28" as="offset" />
          </mxGeometry>
        </mxCell>
        <mxCell id="S7hA1KW036Cgnqv6eDFZ-1" value="" style="rounded=0;whiteSpace=wrap;html=1;dashed=1;labelBackgroundColor=#ffffff;fillColor=none;gradientColor=none;container=1;pointerEvents=0;collapsible=0;recursiveResize=0;" vertex="1" parent="1">
          <mxGeometry x="265" y="251" width="190" height="250" as="geometry" />
        </mxCell>
        <mxCell id="S7hA1KW036Cgnqv6eDFZ-13" value="Agent" style="shape=image;verticalLabelPosition=bottom;verticalAlign=top;imageAspect=0;aspect=fixed;image=data:image/svg+xml,PHN2ZyB4bWxucz0iaHR0cDovL3d3dy53My5vcmcvMjAwMC9zdmciIHByZXNlcnZlQXNwZWN0UmF0aW89InhNaW5ZTWluIG1lZXQiIHZpZXdCb3g9IjAgMCAyNTYgNDE3IiBoZWlnaHQ9IjI1MDAiIHdpZHRoPSIxNTM1Ij48cGF0aCBmaWxsPSIjRDMzODMzIiBkPSJNMjUwLjc0MSAxNjkuMjc4YzAgNjkuNDU3LTU1LjA3IDEyNS44MTctMTIzLjAzOSAxMjUuODE3UzQuNjY0IDIzOC43MzUgNC42NjQgMTY5LjI3OGMwLTY5LjQ1OCA1NS4wNy0xMjUuODE4IDEyMy4wMzgtMTI1LjgxOCA2Ny45NyAwIDEyMy4wNCA1Ni4zNiAxMjMuMDQgMTI1LjgxOCIvPjxwYXRoIGZpbGw9IiNFRjNEM0EiIGQ9Ik05LjcyNCAyMDAuNDM0Uy43OTQgNjkuMjYgMTIxLjc0OSA2NS40ODhsLTguNDM0LTE0LjA5LTY1LjU4OCAyMi4wMjgtMTguNzUzIDIxLjUzMi0xNi4zNzIgMzEuMzU1LTkuMzI4IDM2LjUxNSAyLjc3OSAyNC40MSIvPjxwYXRoIGZpbGw9IiMyMzFGMjAiIGQ9Ik00My40NiA4My40NDhjLTIxLjUzMSAyMi4xMjctMzQuOTI3IDUyLjU5LTM0LjkyNyA4Ni4zMjYgMCAzMy43MzYgMTMuMzk2IDY0LjE5OCAzNC45MjcgODYuMzI1IDIxLjYzMSAyMi4xMjcgNTEuMyAzNS43MjEgODQuMjQyIDM1LjcyMSAzMi45NDMgMCA2Mi42MTEtMTMuNTk0IDg0LjI0Mi0zNS43MiAyMS41MzItMjIuMTI4IDM0LjkyNy01Mi41OSAzNC45MjctODYuMzI2IDAtMzMuNzM3LTEzLjM5NS02NC4xOTktMzQuOTI3LTg2LjMyNi0yMS42My0yMi4wMjgtNTEuMjk5LTM1LjcyLTg0LjI0Mi0zNS43Mi0zMi44NDMgMC02Mi42MSAxMy41OTMtODQuMjQyIDM1Ljcyem0tNS40NTcgMTc3LjkxQzE1LjA4MyAyMzcuOTQxLjg5MyAyMDUuNDk1Ljg5MyAxNjkuNzc0YzAtMzUuNzIxIDE0LjE5LTY4LjE2OCAzNy4xMS05MS42ODQgMjIuOTIxLTIzLjQxNyA1NC42NzMtMzguMDAzIDg5LjctMzguMDAzIDM1LjAyNiAwIDY2Ljc3OCAxNC41ODYgODkuNjk5IDM4LjAwMyAyMi45MiAyMy40MTcgMzcuMTEgNTUuODYzIDM3LjExIDkxLjY4NCAwIDM1LjcyLTE0LjE5IDY4LjE2Ny0zNy4xMSA5MS41ODQtMjIuOTIxIDIzLjUxNi01NC42NzMgMzguMDAzLTg5LjcgMzguMDAzLTM1LjAyNiAwLTY2Ljc3OC0xNC40ODctODkuNjk5LTM4LjAwM3oiLz48cGF0aCBmaWxsPSIjRjBENkI3IiBkPSJNMTc5LjQ5OCAxNjkuOTcybC0xOC43NTQgMi43NzgtMjUuMzAyIDIuODc4LTE2LjM3Mi4zOTctMTUuOTc1LS40OTYtMTIuMjA1LTMuNzctMTAuODE2LTExLjcxLTguNDM0LTIzLjkxMy0xLjg4NS01LjE2LTExLjIxMi0zLjc3LTYuNTUtMTAuODE1LTQuNjYzLTE1LjQ4IDUuMTYtMTMuNTkzIDEyLjIwNS00LjI2NyA5LjgyMyA0LjY2NCA0LjY2MyAxMC4zMiA1LjY1Ni0uODk0IDEuODg1LTIuMzgxLTEuODg1LTEwLjgxNi0uNDk2LTEzLjU5NCAyLjc3OC0xOC43NTMtLjA5OS0xMC43MTYgOC41MzMtMTMuNjkzIDE0Ljk4My0xMC44MTZMMTM2LjczMiA1LjE2bDI5LjA3MyA0LjI2NiAyNS4zMDIgMTguMjU4IDExLjcwOSAxOC43NTMgNy41NCAxMy41OTQgMS44ODYgMzMuNzM2LTUuNjU2IDI5LjA3My0xMC4zMiAyNS43OTktOS43MjMgMTMuNzkyIi8+PHBhdGggZmlsbD0iIzMzNTA2MSIgZD0iTTE2My42MjIgMjUxLjAzOWwtNjYuOTc3IDIuNzc4djExLjIxMmw1LjY1NiAzOS4zOTMtMi43NzkgMy4yNzQtNDYuODM0LTE1Ljk3NS0zLjI3NC01LjY1Ni00LjY2NC01Mi45ODYtMTEuMDE0LTMxLjc1Mi0yLjM4MS03LjU0MSAzNy41MDctMjUuNzk4IDExLjcwOS00LjY2NCAxMC4zMTkgMTIuNyA4LjkzIDcuOTM5IDEwLjMyIDMuMjc0IDQuNjYzIDEuMzkgNS42NTYgMjQuNDA5IDQuMjY3IDUuMTYgMTAuODE1LTMuNzcxTDEyOCAyMjkuMDFsNDAuNjgyIDE5LjI1LTUuMDYgMi43NzgiLz48cGF0aCBmaWxsPSIjNkQ2QjZEIiBkPSJNNTIuNDkgODcuNTE2bDEyLjIwNS00LjI2NiA5LjgyMyA0LjY2MyA0LjY2MyAxMC4zMiA1LjY1Ni0uODkzIDEuMzktNS42NTYtMi43NzktMTAuODE2IDIuNzc4LTI1Ljc5OC0yLjM4MS0xNC4wOSA4LjQzNC05LjgyMyAxOC4yNTctMTQuNDg3LTUuMTYtNy4wNDUtMjUuNzk4IDEyLjctMTAuODE1IDguNDM1LTYuMDUzIDEzLjA5Ny05LjMyNyAxMi43MDEtMi43NzggMTQuOTgzIDEuODg1IDE1Ljk3NSIvPjxwYXRoIGZpbGw9IiNEQ0Q5RDgiIGQ9Ik03MS43NCA0My40NnM3LjA0NC0xNy4zNjQgMzUuMTI1LTI1Ljc5OGMyOC4wOC04LjQzNCAxLjM5LTYuMDUzIDEuMzktNi4wNTNMNzcuNzkxIDIzLjMxOCA2Ni4wODQgMzUuMDI2bC01LjE2IDkuMzI3IDEwLjgxNi0uODkzTTU3LjY1IDg0LjI0MnMtOS44MjQtMzIuODQ0IDI3LjY4My0zNy41MDdsLTEuMzg5LTUuNjU2LTI1Ljc5OCA2LjA1My03LjU0MSAyNC40MSAxLjg4NSAxNS45NzQgNS4xNi0zLjI3NCIvPjxwYXRoIGZpbGw9IiNGN0U0Q0QiIGQ9Ik03Mi42MzMgMTI3LjgwMmw2LjE1MS01Ljk1NHMyLjc3OS4yOTggMy4yNzUgMy41NzJjLjQ5NiAzLjI3NSAxLjg4NSAzMi44NDQgMjIuMDI4IDQ4LjcyIDEuODg1IDEuNDg4LTE0Ljk4My0yLjM4Mi0xNC45ODMtMi4zODJMNzQuMTIgMTQ4LjM0MU0xNTguODU5IDExOC44NzFzMS4wOTEtMTQuMTg5IDQuOTYxLTEzLjA5N2MzLjg3IDEuMDkxIDMuODcgNC45NiAzLjg3IDQuOTZzLTkuMzI3IDUuOTU0LTguODMxIDguMTM3TTE5Ny43NTUgNjYuODc4cy03Ljc0IDEuNTg3LTguNDM0IDguNDM0Yy0uNjk1IDYuODQ2IDguNDM0IDEuMzg5IDkuODIzLjg5M00xNDEuMDk4IDY3LjM3NHMtMTAuMzIgMS4zODktMTAuMzIgNy45MzhjMCA2LjU0OCAxMS43MDkgNi4wNTIgMTQuOTgzIDMuMjc0TTc3LjM5NSA5Ny44MzZTNTkuNjM1IDg3LjAyIDU3Ljc1IDk3LjM0Yy0xLjg4NSAxMC4zMTktNi4wNTMgMTcuNzYgMi43NzggMjguNTc2bC02LjA1My0xLjg4NS01LjY1NS0xNC40ODctMS44ODYtMTQuMDlMNTcuNzUgODQuMjQybDEyLjIwNC44OTMgNy4wNDUgNS42NTYuMzk3IDcuMDQ1TTg1LjgzIDY4LjI2N3M3LjkzNy00MS4yNzggNDguMjIzLTQ5LjIxNmMzMy4xNC02LjU0OSA1MC42MDQgMS4zOSA1Ny4xNTMgOC45MyAwIDAtMjkuNTY5LTM1LjEyNS01Ny42NS0yNC40MDktMjguMDggMTAuODE2LTQ4LjcxOSAzMC40NjItNDguMjIzIDQzLjA2NC43OTQgMjEuNjMuNDk2IDIxLjYzLjQ5NiAyMS42M00xOTQuNDggMzIuNjQ1cy0xMy41OTMtLjQ5Ni0xNC4wOSAxMS43MDhjMCAwIDAgMS44ODYuODk0IDMuNzcxIDAgMCAxMC44MTUtMTIuMjA1IDE3LjM2NC01LjY1NiIvPjxwYXRoIGZpbGw9IiNGN0U0Q0QiIGQ9Ik0xMzUuMDQ1IDQ5LjQxNHMtMi4zODEtMTguNjU0LTE4LjI1Ny03LjgzOWMtMTAuMzIgNy4wNDUtOS4zMjggMTYuODY4LTcuNTQxIDE4Ljc1NCAxLjg4NSAxLjg4NSAxLjM4OSA1LjY1NSAyLjc3OCAzLjA3NiAxLjM4OS0yLjU4Ljk5Mi0xMS4wMTQgNi4xNTItMTMuMzk2IDUuMDYtMi4zODEgMTMuNTk0LTQuOTYgMTYuODY4LS41OTUiLz48cGF0aCBmaWxsPSIjNDk3MjhCIiBkPSJNOTAuOTkgMTc2LjAyNUw0Ni45MzIgMTk1LjY3czE4LjI1OCA3Mi42MzMgOC45MyA5NS4xNTdsLTYuNTQ4LTIuMzgxLS40OTYtMjcuNjg0LTEyLjIwNS01Mi4zOS01LjE2LTE0LjQ4OCA0NS45NDEtMzAuOTU4IDEzLjU5NCAxMy4wOThNOTUuNDU0IDIxNi4yMWw2LjI1MSA3LjY0MXYyOC4wOGgtNy40NDFzLS44OTMtMTkuNjQ2LS44OTMtMjIuMDI3YzAtMi4zODIuODkzLTEwLjgxNi44OTMtMTAuODE2TTk1LjY1MyAyNTYuMTk4bC0yMS4xMzUuODkzIDYuMDUzIDQuMjY3IDE0Ljk4MiAyLjM4MiIvPjxwYXRoIGZpbGw9IiMzMzUwNjEiIGQ9Ik0xNjcuNzkgMjUxLjUzNWwxNy4zNjMtLjQ5NiA0LjI2NyA0My4wNjMtMTcuNzYxIDIuMzgyLTMuODctNDQuOTUiLz48cGF0aCBmaWxsPSIjMzM1MDYxIiBkPSJNMTcyLjQ1MyAyNTEuNTM1bDI2LjE5NS0xLjM5czEwLjgxNi0yNy4xODcgMTAuODE2LTI4LjU3NmMwLTEuMzkgOS4zMjctMzkuMzkyIDkuMzI3LTM5LjM5MmwtMjEuMTM1LTIyLjAyOC00LjI2Ny0zLjc3LTExLjIxMiAxMS4yMTJ2NDMuNTZsLTkuNzI0IDQwLjM4NCIvPjxwYXRoIGZpbGw9IiM0OTcyOEIiIGQ9Ik0xODQuMTYxIDI0OC4yNmwtMTYuMzcyIDMuMjc1IDIuMzgyIDEzLjA5OGM2LjA1MiAyLjc3OCAxNi4zNzItNC42NjQgMTYuMzcyLTQuNjY0TTE4NC42NTcgMTY2LjIwMmwzMi44NDQgMjQuNDA5Ljg5My0xMS4yMTMtMjQuODA2LTIyLjkyLTguOTMgOS43MjQiLz48cGF0aCBmaWxsPSIjRkZGIiBkPSJNMTExLjkyNiAzNDMuODE0bC05LjcyNC0zOS4zOTItNC44NjItMjkuMDczLS43OTQtMjEuNTMyIDQzLjk1Ni0yLjM4MWgyNy4yODdsLTIuNDggNDkuMjE1IDQuMjY2IDM4LjAwMy0uNDk2IDcuMDQ1LTM1LjYyMiAyLjc3OS0yMS41MzEtNC42NjQiLz48cGF0aCBmaWxsPSIjRENEOUQ4IiBkPSJNMTYxLjczNiAyNTEuMDM5cy0yLjM4MSA0OC43MiA0LjY2NCA4My40NDhjMCAwLTE0LjA5IDguOTMtMzQuNjMgMTEuMjEybDM5LjM5My0xLjM4OSA0LjY2My0yLjc3OC01LjY1NS03Ni44LTEuNDg5LTE2LjQ3MiIvPjxwYXRoIGZpbGw9IiNGRkYiIGQ9Ik0xOTAuMTE1IDI5MC40MzFsMTguMjU3LTUuMTYgMzQuNjMtMS44ODUgNS4xNi0xNS45NzUtOS4zMjgtMjcuNjg0LTEwLjgxNS0xLjM4OS0xNC45ODMgNC42NjQtMTQuMjg5IDcuMDQ1LTcuNjQtMS4zOS01Ljk1NCAyLjM4MiIvPjxwYXRoIGZpbGw9IiNEQ0Q5RDgiIGQ9Ik0xODkuODE3IDI4MS4wMDVzMTIuMjA1LTUuNjU2IDE0LjA5LTUuMTZsLTUuMTYtMjUuNzk4IDYuMDUzLTIuMzgyczQuMjY3IDI0LjQxIDQuMjY3IDI3LjE4OGMwIDAgMjYuMTk1IDEuMzg5IDI4LjU3NiAxLjM4OSAwIDAgNS42NTYtMTAuODE2IDQuMjY3LTIyLjAyOGw1LjE2IDE0Ljk4My40OTYgOC40MzQtNy41NDEgMTEuMjEyLTguNDM0IDEuODg2LTE0LjA5LS40OTYtNC42NjQtNi4wNTMtMTYuMzcyIDIuMzgxLTUuMTYgMS44ODYiLz48cGF0aCBmaWxsPSIjRkZGIiBkPSJNMTcxLjM2MSAyNDcuNzY0bC0xMC4zMi0yNi4xOTUtMTAuODE1LTE1LjQ4czIuMzgyLTYuNTQ4IDUuNjU2LTYuNTQ4aDEwLjgxNmwxMC4zMiAzLjc3LS44OTQgMTcuMzY1LTQuNzYzIDI3LjA4OCIvPjxwYXRoIGZpbGw9IiNEQ0Q5RDgiIGQ9Ik0xNzMuNDQ1IDIzOC44MzRzLTEzLjA5OC0yNS4zMDItMTMuMDk4LTI5LjA3M2MwIDAgMi4zODItNS42NTYgNS42NTYtNC4yNjYgMy4yNzUgMS4zODkgMTAuMzIgNS4xNiAxMC4zMiA1LjE2di04LjkzMWwtMTUuOTc2LTMuMjc0LTEwLjgxNSAxLjM4OSAxOC4yNTcgNDMuMjYyIDMuNzcuNDk2Ii8+PHBhdGggZmlsbD0iI0ZGRiIgZD0iTTExNi4wOTMgMTc3LjAxN2wtMTIuOTk4LTEuMzktMTIuMjA1LTMuNzd2NC4yNjdsNS45NTMgNi41NDkgMTguNzU0IDguNDM0Ii8+PHBhdGggZmlsbD0iI0RDRDlEOCIgZD0iTTk1LjE1NyAxNzguNDA2czE0LjQ4NiA2LjA1MyAxOS4yNSA0LjY2NGwuNDk1IDUuNjU2LTEzLjA5Ny0yLjc3OS03LjkzOC01LjY1NiAxLjI5LTEuODg1Ii8+PHBhdGggZmlsbD0iI0QzMzgzMyIgZD0iTTE5MC4xMTUgMjAxLjEyOWMtNy45MzgtLjE5OS0xNS4xODItMS4xOTEtMjEuNDMzLTIuOTc3LjM5Ny0yLjU4LS4zOTctNS4wNi4yOTgtNi45NDYgMS43ODYtMS4yOSA0LjY2My0xLjI5IDcuMzQyLTEuNTg3LTIuMjgyLTEuMDkyLTUuNTU2LTEuNTg4LTguMTM2LS44OTMtLjEtMS43ODYtLjg5My0yLjg3OC0xLjM5LTQuMjY3IDQuNDY2LTEuNTg4IDE0Ljk4NC0xMi4wMDYgMjAuOTM3LTguNjMzIDIuODc4IDEuNjg3IDQuMDY5IDExLjAxNCA0LjI2NyAxNS42NzguMTk4IDMuNzctLjM5NyA3LjU0MS0xLjg4NSA5LjYyNSIvPjxwYXRoIHN0cm9rZS13aWR0aD0iMiIgc3Ryb2tlPSIjRDMzODMzIiBkPSJNMTkwLjExNSAyMDEuMTI5Yy03LjkzOC0uMTk5LTE1LjE4Mi0xLjE5MS0yMS40MzMtMi45NzcuMzk3LTIuNTgtLjM5Ny01LjA2LjI5OC02Ljk0NiAxLjc4Ni0xLjI5IDQuNjYzLTEuMjkgNy4zNDItMS41ODctMi4yODItMS4wOTItNS41NTYtMS41ODgtOC4xMzYtLjg5My0uMS0xLjc4Ni0uODkzLTIuODc4LTEuMzktNC4yNjcgNC40NjYtMS41ODggMTQuOTg0LTEyLjAwNiAyMC45MzctOC42MzMgMi44NzggMS42ODcgNC4wNjkgMTEuMDE0IDQuMjY3IDE1LjY3OC4xOTggMy43Ny0uMzk3IDcuNTQxLTEuODg1IDkuNjI1eiIvPjxwYXRoIGZpbGw9IiNEMzM4MzMiIGQ9Ik0xNTIuMTEyIDE4OC4xM2MwIC41OTYgMCAxLjE5LS4xIDEuNzg2LTIuNDggMS41ODgtNi40NSAxLjU4OC05LjIyOCAyLjk3NyAzLjk3LjE5OCA3LjE0NSAxLjE5IDkuOTIzIDIuNDgtLjEgMS40ODktLjEgMy4wNzctLjE5OCA0LjU2NS00LjU2NSAzLjA3Ni04LjczMiA3Ljc0LTE0LjA5IDEwLjcxNi0yLjU4IDEuMzktMTEuNDExIDQuOTYyLTE0LjA5IDQuMjY3LTEuNDg5LS4zOTctMS42ODctMi4yODItMi4yODItNC4wNjgtMS4yOS0zLjc3LTQuMjY3LTkuOTIzLTQuNTY1LTE1LjY3OC0uMjk4LTcuMjQzLTEuMDkxLTE5LjQ0OCA2Ljc0Ny0xNy45NiA2LjM1IDEuMTkxIDEzLjY5MyA0LjA2OSAxOC41NTUgNi43NDggMy4wNzYgMS43ODYgNC43NjMgMy43NyA5LjMyOCA0LjE2NyIvPjxwYXRoIHN0cm9rZS13aWR0aD0iMiIgc3Ryb2tlPSIjRDMzODMzIiBkPSJNMTUyLjExMiAxODguMTNjMCAuNTk2IDAgMS4xOS0uMSAxLjc4Ni0yLjQ4IDEuNTg4LTYuNDUgMS41ODgtOS4yMjggMi45NzcgMy45Ny4xOTggNy4xNDUgMS4xOSA5LjkyMyAyLjQ4LS4xIDEuNDg5LS4xIDMuMDc3LS4xOTggNC41NjUtNC41NjUgMy4wNzYtOC43MzIgNy43NC0xNC4wOSAxMC43MTYtMi41OCAxLjM5LTExLjQxMSA0Ljk2Mi0xNC4wOSA0LjI2Ny0xLjQ4OS0uMzk3LTEuNjg3LTIuMjgyLTIuMjgyLTQuMDY4LTEuMjktMy43Ny00LjI2Ny05LjkyMy00LjU2NS0xNS42NzgtLjI5OC03LjI0My0xLjA5MS0xOS40NDggNi43NDctMTcuOTYgNi4zNSAxLjE5MSAxMy42OTMgNC4wNjkgMTguNTU1IDYuNzQ4IDMuMDc2IDEuNzg2IDQuNzYzIDMuNzcgOS4zMjggNC4xNjd6Ii8+PHBhdGggZmlsbD0iI0QzMzgzMyIgZD0iTTE1Ni41NzcgMTk2Ljc2M2MtLjY5NS0zLjk3LTEuNDg5LTUuMDYtMS4xOTEtOC41MzQgMTAuNjE3LTcuMDQ1IDEyLjUwMiAxMi4xMDYgMS4xOSA4LjUzNCIvPjxwYXRoIHN0cm9rZS13aWR0aD0iMiIgc3Ryb2tlPSIjRDMzODMzIiBkPSJNMTU2LjU3NyAxOTYuNzYzYy0uNjk1LTMuOTctMS40ODktNS4wNi0xLjE5MS04LjUzNCAxMC42MTctNy4wNDUgMTIuNTAyIDEyLjEwNiAxLjE5IDguNTM0eiIvPjxwYXRoIGZpbGw9IiNFRjNEM0EiIGQ9Ik0xNzEuODU3IDE5OS45MzhzLTMuMjc0LTQuNjY0LS44OTMtNi4wNTNjMi4zODItMS4zODkgNC42NjQgMCA2LjA1My0yLjM4MSAxLjM5LTIuMzgyIDAtMy43Ny40OTYtNi41NDkuNDk2LTIuNzc4IDIuNzc4LTMuMjc0IDUuMTYtMy43NyAyLjM4MS0uNDk3IDguOTMtMS4zOSA5LjgyMy44OTNsLTIuNzc4LTguNDM1LTUuNjU2LTEuODg1LTE3Ljc2MSAxMC4zMi0uODkzIDUuMTZ2MTAuMzE5TTEyMi42NDIgMjE1LjQxN2MtLjU5NS03LjM0My0xLjE5LTE0LjU4Ni0xLjc4Ni0yMS45MjktLjk5Mi0xMC45MTQgMi41OC05LjAzIDEyLjEwNS05LjAzIDEuNDg5IDAgOC45MyAxLjY4OCA5LjQyNyAyLjc4IDIuNTggNS4yNTgtNC4yNjcgNC4wNjcgMi45NzYgOC4wMzYgNi4wNTMgMy4yNzUgMTYuODY5LTEuOTg0IDE0LjM4OC05LjQyNi0xLjM5LTEuNjg3LTcuMTQ0LS40OTYtOS4yMjgtMS41ODhsLTExLjAxNC01LjY1NWMtNC42NjMtMi4zODItMTUuMzgtNS45NTQtMjAuMzQxLTIuNTgtMTIuNjAyIDguNTMzLjc5NCAyOS45NjYgNS4yNTkgMzguODk2Ii8+PHBhdGggZmlsbD0iIzIzMUYyMCIgZD0iTTEzNS4wNDUgNDkuNDE0Yy0xMi44LTIuOTc3LTE5LjE1IDUuMzU4LTIzLjAyIDEzLjk5LTMuNDczLS43OTMtMi4wODQtNS41NTYtMS4xOS03LjkzNyAyLjI4MS02LjI1MSAxMS41MS0xNC42ODYgMTkuMDUtMTMuNDk1IDMuMTc1LjM5NyA3LjU0MSAzLjM3NCA1LjE2IDcuNDQyTTE5Ny4yNTkgNjMuOWguNTk1YzIuODc4IDUuOTU0IDUuMzU4IDEyLjMwNSA5LjAzIDE3LjY2My0yLjQ4IDUuNzU1LTE4LjQ1NiAxMC43MTYtMTguMjU4LjU5NSAzLjQ3My0xLjQ4OCA5LjQyNy0uMjk4IDEyLjUwMy0yLjI4Mi0xLjc4Ni00Ljg2Mi00LjI2Ny05LjAzLTMuODctMTUuOTc1TTE0MS40OTUgNjQuMWMyLjc3OCA1LjA2IDMuNjcgMTAuMzE5IDcuNTQgMTQuMDkgMS43ODcgMS42ODYgNS4xNiAzLjc3IDMuNDc0IDguNTMyLS4zOTcgMS4wOTItMy4yNzUgMy41NzMtNC45NjIgNC4wNjktNi4wNTIgMS43ODYtMjAuMjQyLjM5Ny0xNS40NzktNy4yNDQgNS4wNi4xOTkgMTEuODA4IDMuMjc1IDE1LjU3OS0uMzk3LTIuODc4LTQuNTY0LTguMDM4LTEzLjY5My02LjE1Mi0xOS4wNU0xOTQuOTc3IDExNS4xYy05LjEyOSA1Ljg1NS0xOS4zNSAxMi4zMDUtMzQuNDMxIDEwLjgxNi0zLjE3NS0yLjc3OC00LjQ2NS05LjAzLTEuMjktMTMuMDk3IDEuNTg3IDIuNzc4LjU5NSA3LjkzOCA1LjE2IDguNzMxIDguNTMzIDEuNDg5IDE4LjQ1NS01LjI1OSAyNC42MDctNy41NCAzLjc3LTYuNDUtLjI5Ny04LjczMi0zLjc3LTEyLjktNy4wNDUtOC40MzQtMTYuMzcyLTE4Ljk1Mi0xNi4wNzUtMzEuNTUzIDIuODc4LTIuMDg0IDMuMDc2IDMuMTc1IDMuNDczIDQuMDY4IDMuNjcxIDguNTMzIDEyLjkgMTkuNTQ3IDE5LjU0NyAyNi44OSAxLjY4NyAxLjc4NiA0LjM2NiAzLjU3MiA0LjY2NCA0Ljc2My44OTMgMy4zNzMtMi4yODIgNy41NC0xLjg4NSA5LjgyM003NC4xMiAxMDguOTQ5Yy0yLjg3Ny0xLjY4Ny0zLjU3MS04LjgzMS02Ljk0NS05LjAzLTQuODYyLS4yOTctMy45NjkgOS4zMjgtMy45NjkgMTQuOTgzLTMuMjc0LTIuOTc2LTMuODctMTIuMzA0LTEuNDg4LTE3LjA2Ni0yLjc3OC0xLjM5LTMuOTcgMS40ODgtNS41NTcgMi40OCAyLjA4NC0xNC4zODcgMjEuMTM1LTYuNjQ4IDE3Ljk2IDguNjMzTTIwMC43MzIgMTIxLjE1M2MtNC4yNjcgOC4xMzctMTAuMzIgMTcuMDY3LTIyLjgyMiAxNy4zNjUtLjI5OC0yLjU4LS40OTYtNi42NDggMC04LjIzNiA5LjYyNS0uOTkyIDE1LjU3OC01Ljg1NCAyMi44MjItOS4xMjlNMTQwLjggMTI2LjQxMmM3LjkzOCA0LjE2OCAyMi42MjMgNC42NjQgMzMuNTM4IDQuMzY2LjU5NSAyLjM4Mi41OTUgNS4zNTguNTk1IDguMjM2LTEzLjk5LjU5NS0zMC40NjItMi44NzgtMzQuMTMzLTEyLjYwMk0xMzkuMzEyIDEzNC4xNTJjNS41NTYgMTMuODkxIDI0LjUwOCAxMi4zMDQgNDAuNDgzIDExLjkwNy0uNjk0IDEuNzg2LTIuMTgzIDMuOTY5LTQuMTY3IDQuNjYzLTUuMTYgMi4wODQtMTkuMjUgMy42NzItMjYuMzk0LS4wOTktNC40NjUtMi4zODEtNy40NDItNy44MzktOS45MjItMTEuMDE0LTEuMDkyLTEuNDg4LTcuMDQ1LTUuMzU4IDAtNS40NTciLz48cGF0aCBmaWxsPSIjODFCMEM0IiBkPSJNMTk0LjI4MiAyMTAuNjU0Yy02LjQ1IDExLjExMy0xMi43IDIyLjUyNC0yMC4zNCAzMi4yNDggMy4xNzQtOS40MjYgNC41NjMtMjUuMzAyIDUuMDYtMzcuNDA3IDYuNzQ3LTMuMTc2IDEyLjUwMi42OTQgMTUuMjggNS4xNiIvPjxwYXRoIGZpbGw9IiMyMzFGMjAiIGQ9Ik0yMjkuMTEgMjUwLjU0M2MtNy4yNDMgMS40ODgtMTIuMzA0IDguNTMzLTE5LjQ0OCA4LjAzNyAzLjk2OS01LjQ1OCAxMC43MTYtNy44MzkgMTkuNDQ4LTguMDM3TTIzMi4yODUgMjYxLjg1NGMtNS45NTMuNTk2LTEyLjg5OSAxLjU4OC0xOC44NTIgMS4wOTIgMi44NzctNC4zNjYgMTMuNzkyLTIuNzc5IDE4Ljg1Mi0xLjA5Mk0yMzQuMzY5IDI3MS42NzhjLTYuNjQ4LjA5OS0xNC44ODQgMC0yMS4yMzQtLjQ5NyAzLjc3LTQuMDY4IDE2Ljk2Ny0xLjQ4OCAyMS4yMzQuNDk3Ii8+PHBhdGggZmlsbD0iI0RDRDlEOCIgZD0iTTE4MS43OCAyOTguNDY4Yy45OTIgOC4zMzUgNC4yNjcgMTYuNzcgMy44NyAyNS44OTgtMy42NzIgMS4xOS01Ljc1NSAyLjI4Mi0xMC43MTcgMi4yODItLjI5Ny03Ljc0LTEuMzg5LTE5LjY0Ni0xLjA5MS0yNy4wODggMi4zODEuMTk4IDUuOTUzLTEuNjg3IDcuOTM4LTEuMDkyIi8+PHBhdGggZmlsbD0iI0YwRDZCNyIgZD0iTTE3MS4wNjQgMTc1LjQzYy0zLjM3NCAyLjE4Mi02LjE1MiA0Ljg2MS05LjQyNyA3LjI0My03LjE0NC4zOTctMTEuMDE0LS40OTYtMTYuMTczLTQuNTY0LjA5OS0uMjk4LjU5NS0uMTk5LjU5NS0uNTk2IDcuNjQgMy4zNzQgMTcuMzY0LTEuMzg5IDI1LjAwNS0yLjA4NCIvPjxwYXRoIGZpbGw9IiM4MUIwQzQiIGQ9Ik0xMzEuMTc1IDIyNy4zMjRjMi4wODQtOS4wMyAxMC4zMi0xMy43OTIgMTcuNzYxLTE4Ljc1MyA3LjY0IDkuNzI0IDEyLjMwNCAyMi4yMjYgMTcuNDY0IDM0LjMzMS0xMi4yMDUtMy42NzEtMjQuNjA4LTkuNTI1LTM1LjIyNS0xNS41NzgiLz48cGF0aCBmaWxsPSIjMjMxRjIwIiBkPSJNMTczLjg0MiAyOTkuNjU5Yy0uMjk4IDcuNDQyLjY5NCAxOS4yNSAxLjA5MSAyNy4wODggNC45NjIgMCA3LjA0NS0xLjA5MSAxMC43MTctMi4yODIuMzk3LTkuMTI5LTIuODc4LTE3LjU2My0zLjg3LTI1Ljg5OC0xLjk4NS0uNjk0LTUuNTU3IDEuMTkxLTcuOTM4IDEuMDkyek05Ny4yNCAyNTcuNTg4YzMuMjc1IDI5Ljg2NiA3LjkzOCA1NC44NyAxNi41NyA4MS4zNjQgMTkuMTUxIDUuODU0IDQyLjE3MSA2LjM1IDU5LjEzOSAxLjA5MS0zLjA3Ni0xNC44ODMtMS43ODYtMzMuMDQxLTMuNTcyLTQ5LjAxNy0xLjM5LTEyLjAwNi0uNjk1LTI0LjAxMi0yLjU4LTM2LjIxNy0yMC41NC00LjI2Ni00OS41MTMtLjk5Mi02OS41NTcgMi43Nzl6bTc0LjQxOS0yLjU4Yy0uMTk5IDEyLjguNTk1IDI1LjUgMS41ODggMzguMyA0Ljk2LS42OTQgOC4yMzUtMS4xOSAxMi44LTIuMjgyLTEuNDg5LTEyLjMwNC0xLjI5LTI2LjI5NC00LjM2Ni0zNy4yMDktMy40NzMuMS02LjU1IDAtMTAuMDIyIDEuMTl6bTI0LjkwNS0yLjA4NGMtMi4zODEtLjQ5Ni01LjA2IDAtNy4yNDMgMCAxLjA5MSAxMC40MTkgMy41NzIgMjEuOTI5IDQuNDY1IDMyLjk0MyAzLjQ3My4wOTkgNS4zNTgtMS41ODggOC4yMzYtMi4wODQuMTk4LTkuNjI1LS43OTQtMjIuOTIxLTUuNDU4LTMwLjg1OXptMzcuODA1IDM0LjUzYzcuMzQzLTEuNzg2IDExLjkwNy0xMC43MTYgOS44MjMtMTkuOTQ0LTEuMzg5LTYuMTUyLTMuNzctMTcuODYtNi40NS0yMS44My0xLjg4NS0yLjg3Ny03LjE0NC02Ljc0Ny0xMS40MS00LjA2OC02Ljg0NyA0LjM2Ni0xOC44NTMgNS42NTYtMjMuODE0IDEwLjkxNSAyLjQ4IDguMzM1IDMuMjc0IDE5LjY0NyA0LjI2NiAzMC4xNjQgOC41MzQuNDk3IDE4Ljk1Mi0yLjM4IDI2LjA5Ny42OTUtNC45NjIgMS41ODgtMTEuMzEyIDEuNTg4LTE1LjU3OSAzLjk2OSAzLjU3MiAxLjY4NyAxMS43MDkgMS4zOSAxNy4wNjcuMXptLTY4LjA2OC00NC41NTJjLTUuMTYtMTIuMTA1LTkuODIzLTI0LjYwNy0xNy40NjQtMzQuMzMxLTcuNDQyIDQuOTYtMTUuNTc4IDkuNzI0LTE3Ljc2MSAxOC43NTMgMTAuNzE2IDYuMDUzIDIzLjEyIDExLjkwNyAzNS4yMjUgMTUuNTc4em0xMi43LTM3LjQwN2MtLjQ5NiAxMi4xMDUtMS44ODUgMjcuOTgxLTUuMDYgMzcuNDA3IDcuNjQtOS44MjMgMTMuODkyLTIxLjEzNSAyMC4zNDEtMzIuMjQ4LTIuNzc4LTQuNDY1LTguNTMzLTguMzM1LTE1LjI4LTUuMTZ6bS0xNC4zODctNS4wNmMtMi44NzgtLjI5OS01LjM1OCAzLjM3My05LjEyOSAxLjc4NS0uODkzLjk5Mi0xLjY4NyAxLjk4NS0yLjU4IDIuOTc3IDguMzM1IDEwLjEyIDEyLjIwNSAyNC40MSAxOC42NTUgMzYuMjE3IDMuNDczLTExLjQxIDMuMDc2LTIzLjgxNCAzLjg3LTM2LjIxNy00Ljc2My4xOTgtNy40NDItNC40NjUtMTAuODE2LTQuNzYzem0tOS4yMjgtMTIuMjA2Yy0uMjk4IDMuNDczLjQ5NiA0LjU2NSAxLjE5IDguNTM0IDExLjMxMiAzLjU3MiA5LjQyNy0xNS41NzktMS4xOS04LjUzNHptLTEyLjYwMi00LjE2N2MtNC44NjItMi42OC0xMi4yMDQtNS41NTctMTguNTU1LTYuNzQ3LTcuODM4LTEuNDg5LTcuMDQ1IDEwLjcxNi02Ljc0NyAxNy45Ni4yOTggNS43NTQgMy4yNzUgMTEuODA3IDQuNTY1IDE1LjY3Ny41OTUgMS43ODYuNzkzIDMuNjcxIDIuMjgyIDQuMDY4IDIuNjc5LjU5NiAxMS42MDktMi44NzcgMTQuMDktNC4yNjcgNS4zNTgtMi44NzcgOS41MjUtNy41NCAxNC4wOS0xMC43MTYuMDk5LTEuNDg4LjA5OS0zLjA3Ni4xOTgtNC41NjQtMi43NzgtMS4zOS01Ljg1NC0yLjI4Mi05LjkyMy0yLjQ4IDIuNjgtMS4zOSA2Ljc0OC0xLjM5IDkuMjI4LTIuOTc3IDAtLjU5NiAwLTEuMTkxLjEtMS43ODctNC41NjUtLjQ5Ni02LjI1Mi0yLjQ4LTkuMzI4LTQuMTY3em0tNDYuNjM1LTguNDM0Yy00LjA2OCA0LjE2NyAxMS40MSA5LjcyNCAxNi4yNzMgMTAuMDIyIDAtMi41OCAxLjQ4OC01LjA2IDEuMTktNi45NDYtNS44NTQtLjk5Mi0xMy40OTQtLjI5OC0xNy40NjMtMy4wNzZ6bTUwLjAxIDEuODg1YzAgLjM5Ny0uNDk3LjI5OC0uNTk2LjU5NiA1LjI1OSA0LjA2OCA5LjEyOCA0Ljk2IDE2LjE3MyA0LjU2NCAzLjE3Ni0yLjI4MiA2LjA1My01LjA2IDkuNDI3LTcuMjQ0LTcuNzQuNjk1LTE3LjQ2NCA1LjQ1OC0yNS4wMDUgMi4wODR6TTE5MiAxOTEuNDA1Yy0uMTk4LTQuNTY1LTEuMzktMTMuOTkxLTQuMjY3LTE1LjY3OC01Ljk1My0zLjQ3My0xNi40NzEgNy4wNDUtMjAuOTM2IDguNjMzLjQ5NiAxLjM4OSAxLjI5IDIuNDggMS4zODkgNC4yNjYgMi42OC0uNjk0IDUuODU0LS4xOTggOC4xMzYuODkzLTIuNjc5LjI5OC01LjU1Ni4yOTgtNy4zNDIgMS41ODgtLjU5NiAxLjg4NS4xOTggNC4zNjYtLjI5OCA2Ljk0NiA2LjI1MSAxLjc4NiAxMy40OTUgMi42NzkgMjEuNDMzIDIuOTc2IDEuNDg4LTEuOTg0IDIuMDgzLTUuNzU1IDEuODg1LTkuNjI0ek04OS4zMDIgMTc5LjU5N2MtMS4yOS0uODkzLTkuOTIyLTEyLjEwNi0xMS4xMTMtMTEuNjEtMTUuNTc4IDYuMTUzLTMwLjE2NCAxNi43Ny00My4xNjMgMjYuODkgMTIuNDAzIDI2LjY5MiAxNy40NjQgNTkuMzM3IDE4LjM1NyA5MC43OTEgMTQuMTkgNi42NDggMjYuNjkxIDE2LjI3MyA0Ni4wNCAxNy4yNjUtMi4yODItMTUuNzc2LTQuMjY2LTI5Ljk2Ni01LjU1Ni00NC44NS00Ljg2Mi0yLjA4My0xMS44MDguMS0xNi4zNzItLjU5NSAwLTUuNDU3IDYuOTQ1LTIuMzgxIDcuNTQtNi4wNTIuMzk4LTIuNzc5LTMuODctMi45NzctMi40OC03LjM0MyAzLjU3MiAxLjI5IDUuNDU3IDQuMTY3IDkuMjI4IDUuMjU5IDMuNDczLTcuNTQxIDAtMjAuOTM2LjQ5Ni0yNy4yODcuMS0xLjE5LjU5NS02LjU0OSAzLjI3NC01LjY1NiAyLjM4Mi43OTQtLjA5OSAxNC4zODguMSAyMC4zNDEuMTk4IDUuNTU3LS42OTUgMTAuODE2IDEuNTg3IDE0LjI4OSAxOC42NTUtMi41OCAzNy42MDctNC4xNjggNTcuODQ4LTQuNzYzLTQuNDY1LTEuODg1LTkuNzI0LTMuNjcxLTE1LjQ3OS02Ljk0Ni0zLjE3NS0xLjc4Ni0xMi45OTgtNS40NTctMTMuODkxLTguNDM0LTEuNDg5LTQuNzYzIDMuNzctNy4yNDMgNC42NjMtMTEuMzEyLTkuNDI2IDUuMTYtMTEuMjEyLTQuOTYtMTMuNDk0LTEyLjAwNi0xLjk4NS02LjQ1LTMuMTc1LTExLjMxMS0zLjY3MS0xNC45ODMtOC4yMzYtNC4xNjctMTYuOTY4LTguMDM3LTIzLjkxNC0xMi45OTh6bTk0LjQ2Mi0xMC4zMmMxMi45OTktNi4yNSAxNS4zOCAyMy41MTcgMTAuMjIgMzMuMTQyLjc5NCAyLjg3NyAzLjQ3MyAzLjk2OSA0LjU2NSA2LjU0OC03LjI0NCAxMi45OTktMTUuMjggMjUuMTA0LTIyLjcyMyAzNy45MDQgNS40NTgtMy40NzMgMTMuMzk2LS41OTUgMTkuODQ1LTMuMTc1IDIuMzgyLS44OTMgNC4wNjktNi4zNSA1Ljg1NS0xMC43MTYgNC45Ni0xMS45MDcgMTAuMTItMjYuOTkgMTIuNDAzLTM4LjMuNDk2LTIuNTggMS45ODQtOC4yMzcgMS41ODctMTAuNTE5LS41OTUtNC4xNjctNi4xNTItNy4yNDMtOS4wMy05LjcyNC01LjI1OC00Ljc2My04LjUzMy04LjgzLTE0LjA5LTEzLjI5Ni0yLjA4MyAzLjI3NS02Ljg0NiA1LjQ1Ny04LjYzMiA4LjEzN3ptLTEyNC4xMy0xMTUuMmMtNi4xNTIgNi44NDctNC44NjIgMTkuNTQ4LTQuMTY3IDI4LjY3NiAxMS4yMTItNy4wNDQgMjUuOTk3LjU5NiAyNS44OTcgMTIuNTAzIDUuMzU4LS4xIDEuOTg1LTYuNjQ4Ljk5My0xMC45MTUtMy4xNzYtMTMuNzkyIDUuMzU4LTI4LjY3Ni4zOTYtNDEuMjc3LTkuNjI0Ljc5My0xNy40NjMgNC42NjMtMjMuMTE5IDExLjAxNHptNDQuMjU0LTM5LjU5Yy0xMy45OSAzLjk2OS0zMS45NSAxNC4xODktMzcuNzA1IDI2Ljc5IDQuNDY1LS42OTQgNy41NDEtMi44NzcgMTEuOTA3LTMuMTc1IDEuNjg3LS4wOTkgMy44Ny42OTUgNS43NTUuMTk5IDMuNzctLjk5MiA3LjA0NS05LjUyNiA5LjkyMi0xMi43MDEgMi43NzktMy4wNzYgNi4xNTItNC40NjUgOC40MzUtNy4yNDMgMS40ODgtLjY5NSAzLjY3LS42OTUgMy43Ny0yLjg3OC0uNTk1LS42OTUtMS4yOS0xLjE5LTIuMDg0LS45OTJ6bTcyLjkzIDMuNzdjLTE0LjU4NS04LjIzNS0zOS4xOTMtMTQuMzg3LTU0LjY3Mi02LjY0OC0xMi41MDMgNi4yNTEtMjkuMzcgMTYuNTctMzUuMTI2IDI5LjU3IDUuMzU4IDEyLjYtMS41ODcgMjQuMTEtMi4wODQgMzYuOTEtLjE5OCA2Ljg0NyAzLjE3NiAxMi43MDIgMy40NzMgMjAuMTQ0LTEuODg1IDMuMDc2LTcuNDQyIDMuMzczLTExLjMxMSAzLjE3NS0xLjI5LTYuNTUtMy41NzItMTMuODkyLTEwLjMyLTE0LjY4Ni05LjUyNS0xLjA5MS0xNi41NyA2Ljg0Ny0xNi45NjcgMTUuMDgzLS40OTYgOS43MjQgNy40NDIgMjUuNzk4IDE4Ljc1MyAyNC43MDcgNC4zNjYtLjM5NyA1LjQ1OC00Ljc2MyAxMC4yMi00Ljc2MyAyLjU4IDUuMTYtMy45NjggNi43NDctNC42NjMgMTAuNDE4LS4xOTkuOTkzLjQ5NiA0LjY2NC45OTIgNi40NSAyLjA4NCA4LjQzNCA2LjY0OCAxOS40NDggMTEuMTEzIDI1Ljg5OCA1Ljc1NSA4LjIzNSAxNi45NjggOS40MjYgMjkuMDczIDEwLjIyIDIuMTgzLTQuNjY0IDEwLjEyMS00LjI2NyAxNS4yOC0zLjA3Ni02LjI1LTIuNDgtMTIuMDA1LTguNDM0LTE2Ljc2OC0xMy42OTMtNS40NTgtNi4wNTMtMTEuMDE0LTEyLjUwMi0xMS4zMTItMjAuNDQgMTAuNDE5IDE0LjM4NyAxOC45NTIgMjYuOTg5IDM3LjgwNSAzMy4zNCAxNC4yODggNC43NjIgMzAuOTU4LTIuMTg0IDQxLjk3Mi05LjkyMyA0LjU2NC0zLjE3NiA3LjI0My04LjMzNSAxMC41MTgtMTIuOSAxMi4xMDUtMTcuNDYzIDE3Ljc2MS00Mi4yNyAxNi41Ny02Ni4zODEtLjQ5Ni05LjkyMi0uNDk2LTE5Ljg0NS0zLjg3LTI2LjQ5My0zLjQ3Mi02Ljk0Ni0xNS4yOC0xMy4yOTYtMjIuMjI2LTYuOTQ2LTEuMjktNi44NDYgNS43NTUtMTEuMDE0IDEzLjk5LTguNTMzLTUuODUzLTcuNjQtMTIuMDA1LTE2LjY3LTIwLjQ0LTIxLjQzM3ptMjcuMTg4IDIyNC4zNDhjMTEuNDExLTUuNjU2IDMyLjY0NS0xNS4xODIgMzkuNjkgMCAyLjY4IDUuNjU1IDUuNzU1IDE1LjA4MiA3LjA0NSAyMC45MzYgMS44ODUgOC4xMzctMi4wODQgMjUuNDAyLTEwLjUxOCAyOC4wOC03LjQ0MiAyLjM4Mi0xNi4wNzQgMi4yODMtMjUuMDA0LjQ5Ny0xLjA5Mi0uODkzLTIuMTgzLTIuMzgyLTMuMDc2LTMuOTctNi4zNS0uMTk4LTEyLjQwMy4yOTktMTcuMzY1IDIuOTc4LjQ5NiA0Ljc2Mi0yLjY3OSA1LjQ1Ny01Ljc1NSA2LjQ1LTIuMTgzIDguODMgNC40NjUgMjAuMzQgMi44NzggMjguMjc4LTEuMDkyIDUuNzU1LTguMTM3IDYuNjQ4LTEzLjI5NiA3LjY0LS4xOTkgMy4xNzYuMTk4IDUuODU1LjU5NSA4LjUzNC0xLjE5IDQuMzY2LTYuNDUgNi44NDYtMTEuNTEgNy40NDItMTYuNTcgMS45ODQtNDEuNjc0IDIuODc3LTU3LjU1LTIuODc4LTQuNDY2LTEwLjkxNC03LjkzOC0yNC4xMTEtMTEuNjEtMzYuNTE0LTE1LjQ3OSAxLjY4Ni0yOC4wOC02LjY0OS0zOS44ODgtMTIuMjA1LTQuMDY4LTEuODg1LTkuNzI0LTIuOTc3LTExLjMxMi02LjI1MS0xLjQ4OC0zLjE3NS0uODkzLTkuMjI4LTEuMjktMTQuODg0LS44OTMtMTQuNTg2LTEuNzg2LTI4LjY3Ni01LjU1Ni00My41Ni0xLjY4Ny02Ljc0Ny00Ljc2My0xMi42MDEtNi44NDctMTkuMDUtMS45ODQtNS45NTQtNS4zNTgtMTMuMzk2LTYuMjUxLTE5LjM1LTEuMjktOC44MyA3LjA0NS05LjMyNyAxMi4zMDQtMTMuMTk3IDguMjM2LTUuOTUzIDE0LjY4NS05LjIyOCAyMy42MTUtMTQuNTg2IDIuNjgtMS41ODcgMTAuNjE3LTUuNTU2IDExLjUxLTcuNDQyIDEuNzg3LTMuNjctMy4wNzUtOC44My00LjM2NS0xMS43MDgtMi4wODQtNC41NjQtMy4xNzYtOC40MzQtMy40NzMtMTIuOS03LjQ0Mi0xLjE5LTEzLjE5Ny01LjY1NS0xNi41Ny0xMC42MTYtNS42NTctOC4zMzUtOS42MjYtMjMuNzE1LTQuNjY0LTM1LjMyNC4zOTctLjg5MyAyLjI4Mi0yLjc3OSAyLjU4LTQuMTY4LjU5NS0yLjc3OC0xLjA5Mi02LjQ1LTEuMTkxLTkuNDI2LS40OTYtMTUuMTgyIDIuNTgtMjguMjggMTIuOC0zMi44NDQgNC4xNjctMTYuNTcgMTkuMDUtMjIuMDI3IDMzLjA0Mi0zMC4yNjMgNS4yNTktMy4wNzYgMTEuMDE0LTUuMDYgMTYuOTY3LTcuMjQ0IDIxLjMzMy03LjgzOCA1NC4xNzctNi4zNSA3MS45MzggNy4wNDUgNy41NDEgNS42NTYgMTkuNTQ3IDE3LjY2MiAyMy44MTQgMjYuMzk0IDExLjQxIDIyLjkyMSAxMC41MTggNjEuMzIxIDIuNTggODkuMzAzLTEuMDkyIDMuNzctMi41OCA5LjIyNy00Ljc2MyAxMy43OTItMS40ODggMy4xNzUtNi4xNTIgOS40MjYtNS42NTYgMTIuMjA0LjU5NiAyLjg3OCAxMC43MTcgMTAuNTE4IDEyLjkgMTIuNjAyIDMuODcgMy43NyAxMS4zMTEgOC43MzIgMTEuOTA2IDEzLjQ5NS42OTUgNS4wNi0yLjE4MiAxMi4wMDYtMy42NyAxNi44NjgtNC43NjQgMTYuMjczLTkuNTI2IDMxLjI1Ni0xNC45ODQgNDUuODQyeiIvPjxwYXRoIGZpbGw9IiNGN0U0Q0QiIGQ9Ik0xMjguMSAxMjkuODg1Yy41OTUtLjc5NCAzLjk2OC0yLjA4MyA4LjczMS4xOTkgMCAwLTUuNjU2Ljg5My01LjE2IDEwLjMybC0yLjM4MS0uNDk3Yy4xLjEtMi4zODEtOC40MzQtMS4xOS0xMC4wMjIiLz48cGF0aCBmaWxsPSIjMUQxOTE5IiBkPSJNMTY5LjE3OCAyMTAuNDU2YzAgMS4zODktMS4xOSAyLjU4LTIuNTggMi41OC0xLjM4OSAwLTIuNTgtMS4xOTEtMi41OC0yLjU4IDAtMS4zOSAxLjE5MS0yLjU4IDIuNTgtMi41OCAxLjQ4OSAwIDIuNTggMS4xOSAyLjU4IDIuNThNMTcxLjc1OCAyMjIuNDYyYzAgMS4zOS0xLjE5IDIuNTgtMi41OCAyLjU4LTEuMzg5IDAtMi41OC0xLjE5LTIuNTgtMi41OCAwLTEuMzkgMS4xOTEtMi41OCAyLjU4LTIuNTggMS40ODkgMCAyLjU4IDEuMDkyIDIuNTggMi41OCIvPjxnIGZpbGw9IiMyMzFGMjAiPjxwYXRoIGQ9Ik0zNi42MTQgMzc0LjI3NmMtLjc5NC4xLTEuNDg4LjE5OC0yLjA4NC4yOTgtLjU5NS4wOTktMS4xOS4xOTgtMS45ODQuMzk3LS44OTMuMTk4LTEuMzkuNTk1LTEuNTg4IDEuMTktLjE5OC41OTYtLjM5NyAxLjE5LS4zOTcgMS45ODV2MjQuMjFhMTQuMzMgMTQuMzMgMCAwIDEtMS4zODkgNi4xNTNjLS44OTMgMS44ODUtMi4wODQgMy4zNzMtMy42NzEgNC42NjMtMS41ODggMS4xOS0zLjM3NCAyLjE4My01LjM1OCAyLjc3OC0xLjk4NS41OTYtNC4wNjkuOTkzLTYuMjUyLjk5My0zLjg3IDAtNi45NDUtLjg5My05LjMyNy0yLjc3OS0yLjM4MS0xLjg4NS0zLjU3Mi00LjM2Ni0zLjU3Mi03LjY0IDAtMS44ODUuNDk2LTMuNDczIDEuNTg4LTQuNzYzIDEuMDkxLTEuMjkgMi41OC0xLjg4NSA0LjQ2NS0xLjg4NSAxLjc4NiAwIDMuMTc1LjQ5NiA0LjI2NyAxLjU4OCAxLjA5MSAxLjA5MSAxLjU4NyAyLjM4MSAxLjU4NyAzLjg3IDAgMS4yOS0uNDk2IDIuNTgtMS4zODkgMy42Ny0uODkzIDEuMDkyLTEuOTg0IDIuMTg0LTMuMTc1IDMuMDc3di4zOTdjLjE5OC4zOTYuNTk1Ljc5MyAxLjE5IDEuMDkxLjU5Ni4yOTggMS4yOS4zOTcgMS44ODYuMzk3IDIuNDggMCA0LjQ2NS0uODkzIDUuODU0LTIuNjggMS4zOS0xLjc4NSAyLjA4NC00LjQ2NCAyLjA4NC04LjAzNnYtMjQuODA3YzAtLjY5NC0uMS0xLjM4OS0uMjk4LTEuODg1LS4xOTgtLjQ5Ni0uNzk0LS44OTMtMS42ODctMS4yOS0uNTk1LS4yOTctMS4zODktLjQ5Ni0yLjI4Mi0uNjk0LS44OTMtLjE5OS0xLjU4Ny0uMjk4LTIuMTgzLS4zOTd2LTIuMzgyaDIzLjQxN3YyLjQ4MWguMjk4ek03My4zMjcgNDA4LjQxYy0uNjk0IDEuMTktMS41ODcgMi4yODEtMi41OCAzLjM3My0uOTkyIDEuMDkxLTIuMTgzIDEuODg1LTMuNDczIDIuNjc5LTEuMzg5Ljc5NC0yLjc3OCAxLjM5LTQuMTY3IDEuNzg2LTEuMzkuMzk3LTMuMDc2LjU5NS00Ljg2Mi41OTUtMy4wNzYgMC01LjY1Ni0uMzk2LTcuOTM4LTEuMjktMi4xODMtLjg5My00LjA2OC0xLjk4NC01LjQ1Ny0zLjQ3Mi0xLjQ4OS0xLjQ4OS0yLjQ4MS0zLjE3Ni0zLjI3NS01LjE2YTE5LjU0OCAxOS41NDggMCAwIDEtMS4wOTEtNi40NWMwLTIuMDgzLjM5Ny00LjE2NyAxLjE5LTYuMDUyLjc5NC0xLjg4NiAxLjg4Ni0zLjY3MiAzLjI3NS01LjE2czMuMTc1LTIuNjggNS4zNTgtMy41NzJhMTguNzA5IDE4LjcwOSAwIDAgMSA3LjE0NC0xLjM5YzIuODc4IDAgNS4yNi4zOTggNy4xNDQgMS4wOTIgMS44ODYuNjk1IDMuMzc0IDEuNjg3IDQuNTY1IDIuODc4IDEuMTkgMS4xOSAxLjk4NCAyLjU4IDIuNTggNC4xNjcuNDk2IDEuNTg4Ljc5MyAzLjI3NS43OTMgNS4wNnYxLjk4NUg1MS41OTdjMCA0LjI2Ny43OTQgNy40NDIgMi40OCA5LjYyNSAxLjU4OCAyLjE4MyA0LjI2NyAzLjI3NCA3Ljc0IDMuMjc0IDEuOTg1IDAgMy42NzEtLjQ5NiA1LjI1OS0xLjU4N2ExNC4xMTEgMTQuMTExIDAgMCAwIDMuOTY5LTQuMDY5bDIuMjgyIDEuNjg3ek02MS41MiAzOTYuNjAxYzAtMS4xOTEtLjA5OS0yLjQ4MS0uMTk4LTMuNzcxLS4xLTEuMjktLjI5OC0yLjM4MS0uNjk1LTMuMTc1LS4zOTctLjk5Mi0uNzkzLTEuNjg3LTEuNDg4LTIuMTgzLS41OTUtLjQ5Ni0xLjM5LS42OTUtMi4yODItLjY5NS0xLjU4OCAwLTIuODc4Ljc5NC0zLjc3IDIuMzgyLS45OTMgMS41ODctMS40OSA0LjE2Ny0xLjU4OCA3LjY0bDEwLjAyMS0uMTk4ek0xMTcuMDg1IDQxNS43NTJIOTguNDMxdi0yLjI4MmMuMzk3IDAgLjg5My0uMSAxLjM5LS4xOTkuNTk1LS4wOTkuOTkxLS4xOTggMS4yOS0uMjk3LjM5Ni0uMTk5LjY5NC0uNTk2Ljg5Mi0uOTkzLjE5OS0uMzk3LjI5OC0xLjA5MS4yOTgtMS44ODVWMzk1LjYxYzAtMi4wODMtLjM5Ny0zLjY3MS0xLjE5LTQuNzYyLS43OTUtMS4wOTItMS44ODYtMS41ODgtMy40NzQtMS41ODgtLjc5NCAwLTEuNTg3LjEtMi4yODIuMzk3LS42OTUuMTk4LTEuMzkuNTk1LTIuMDg0IDEuMDkxLS41OTUuMzk3LTEuMDkxLjc5NC0xLjQ4OCAxLjI5LS4zOTcuMzk3LS42OTUuNzk0LS44OTMgMS4xOXYxNi41NzFjMCAuNjk1LjEgMS4yOS4yOTggMS43ODYuMTk4LjQ5Ny41OTUuODk0Ljk5MiAxLjA5Mi4yOTguMTk4LjY5NC4zOTcgMS4xOS40OTZsMS40ODkuMjk4djIuMjgySDc2LjAwNnYtMi4yODJjLjQ5NiAwIC45OTItLjEgMS41ODgtLjE5OS40OTYtLjA5OS45OTItLjE5OCAxLjM4OS0uMjk3LjY5NS0uMTk5IDEuMDkxLS41OTYgMS4zOS0xLjA5Mi4xOTgtLjQ5Ni4zOTYtMS4wOTEuMzk2LTEuODg1di0xOC4wNTljMC0uNTk1LS4xOTgtMS4yOS0uNDk2LTEuODg1LS4yOTgtLjU5Ni0uNzk0LTEuMDkyLTEuMjktMS40ODktLjM5Ny0uMTk4LS43OTQtLjQ5Ni0xLjM5LS41OTVhNS43NzcgNS43NzcgMCAwIDAtMS44ODQtLjI5OHYtMi4yODJsMTQuNzg0LS43OTQuNDk2LjQ5NnY0LjQ2NmguMWEyOS44MDggMjkuODA4IDAgMCAwIDIuMDgzLTEuODg2IDI5LjM2NyAyOS4zNjcgMCAwIDEgMi4yODItMS43ODZjLjc5NC0uNDk2IDEuNzg2LS44OTMgMi45NzctMS4yOSAxLjE5LS4zOTcgMi41OC0uNDk2IDMuOTY5LS40OTYgMy4zNzQgMCA1Ljg1NC45OTIgNy41NDEgMi44NzggMS42ODcgMS44ODUgMi40OCA0LjQ2NSAyLjQ4IDcuNjR2MTUuMTgxYzAgLjc5NC4xIDEuMzkuMjk4IDEuNzg2LjE5OS40OTcuNjk1Ljc5NCAxLjI5IDEuMDkyLjI5OC4xLjY5NS4yOTggMS4xOTEuMzk3LjQ5Ni4xLjk5Mi4xOTggMS42ODcuMjk4djIuMzhoLjE5OHpNMTU5Ljc1MiA0MTUuNzUyaC0xNC41ODZhMTEwLjM1MiAxMTAuMzUyIDAgMCAwLTQuOTYxLTguMDM3Yy0xLjQ4OS0yLjE4My0yLjg3OC00LjI2Ny00LjE2OC02LjA1M2wtMS43ODYgMS41ODh2Ni43NDdjMCAuNjk0LjEgMS4zODkuMjk4IDEuNzg2LjE5OC40OTYuNTk1Ljc5NCAxLjI5IDEuMDkxLjM5Ny4xOTkuNzk0LjI5OCAxLjI5LjM5Ny40OTYuMS45OTIuMTk5IDEuNDg4LjE5OXYyLjI4MmgtMTkuMjV2LTIuMjgyYy40OTcgMCAuOTkzLS4xIDEuNTg4LS4xOTkuNDk2LS4wOTkuOTkyLS4xOTggMS4zOS0uMjk3LjY5NC0uMTk5IDEuMDktLjU5NiAxLjM4OC0xLjA5Mi4xOTktLjQ5Ni4zOTctMS4wOTEuMzk3LTEuODg1di0zNC41M2MwLS42OTUtLjE5OC0xLjM5LS40OTYtMi4wODQtLjI5OC0uNjk1LS42OTQtMS4yOS0xLjI5LTEuNjg3LS4zOTctLjE5OC0uOTkyLS40OTYtMS43ODYtLjU5NS0uNzk0LS4xOTktMS40ODgtLjI5OC0yLjE4My0uMjk4di0yLjI4MmwxNS4zOC0uNzk0LjQ5Ni40OTZ2MzEuOTVjMS40ODktMS4zODkgMy4yNzUtMi45NzYgNS4xNi00Ljc2MiAxLjg4NS0xLjc4NiAzLjQ3My0zLjI3NSA0LjU2NC00LjQ2NS42OTUtLjY5NSAxLjA5Mi0xLjE5MSAxLjA5Mi0xLjU4OC4wOTktLjM5Ny4wOTktLjU5NS4wOTktLjY5NCAwLS4zOTctLjI5OC0uNjk1LS45OTItLjg5My0uNjk1LS4xOTktMS41ODgtLjQ5Ny0yLjk3Ny0uNjk1di0yLjE4M2gxNS42Nzd2Mi4xODNjLTIuMDgzLjU5NS0zLjY3IDEuMDkxLTQuNzYyIDEuNTg4LTEuMDkyLjQ5Ni0yLjI4MyAxLjE5LTMuNTcyIDEuOTg0YTUzLjcwOCA1My43MDggMCAwIDAtMi40ODEgMS43ODZjLS43OTQuNTk1LTEuNjg3IDEuMzktMi43NzggMi4yODIgMS45ODQgMi45NzcgMy44NyA1LjY1NiA1LjU1NiA4LjEzNyAxLjY4NyAyLjQ4IDMuNDczIDUuMTYgNS4zNTggNy45MzguNTk2Ljk5MiAxLjM5IDEuNTg3IDIuMzgyIDEuOTg0Ljk5Mi4yOTggMS44ODUuNDk2IDIuODc3LjU5NnYyLjM4aC4yOTh6TTE3OS41OTcgNDE1Ljc1MkgxNjAuMDV2LTIuMjgyYy40OTYgMCAxLjA5MS0uMSAxLjU4Ny0uMTk5cy45OTItLjE5OCAxLjI5LS4yOTdjLjY5NS0uMTk5IDEuMDkyLS41OTYgMS4zOS0xLjA5Mi4yOTctLjQ5Ni4zOTYtMS4wOTEuMzk2LTEuODg1di0xOC4wNTljMC0uNjk1LS4xOTgtMS4zOS0uNDk2LTEuODg1YTMuMDE2IDMuMDE2IDAgMCAwLTEuMTktMS4yOWMtLjM5OC0uMTk5LS44OTQtLjQ5Ni0xLjY4Ny0uNjk1LS43OTQtLjE5OC0xLjQ4OS0uMzk3LTIuMDg0LS4zOTd2LTIuMjgybDE1LjE4MS0uNzk0LjQ5Ni40OTZWNDA5LjdjMCAuNjk1LjE5OSAxLjI5LjQ5NiAxLjg4NS4yOTguNDk3Ljc5NC44OTQgMS4yOSAxLjA5Mi4zOTcuMTk4Ljg5My4zOTcgMS4zOS40OTYuNDk2LjEuOTkyLjE5OSAxLjU4Ny4yOTh2Mi4yODJoLS4xem0tNC40NjUtNDIuMTdjMCAxLjU4Ny0uNTk2IDIuODc3LTEuNzg2IDMuOTY4LTEuMTkxIDEuMDkyLTIuNjggMS42ODctNC4yNjcgMS42ODctMS42ODcgMC0zLjA3Ni0uNTk1LTQuMzY2LTEuNjg3LTEuMTktMS4wOTEtMS43ODYtMi40OC0xLjc4Ni0zLjk2OSAwLTEuNTg3LjU5NS0yLjg3NyAxLjc4Ni00LjA2OCAxLjE5LTEuMDkxIDIuNjgtMS42ODcgNC4zNjYtMS42ODcgMS42ODcgMCAzLjA3Ni41OTYgNC4yNjcgMS42ODcgMS4xOSAxLjA5MiAxLjc4NiAyLjQ4IDEuNzg2IDQuMDY4ek0yMjMuMzU1IDQxNS43NTJoLTE4LjY1NHYtMi4yODJjLjM5NyAwIC44OTMtLjEgMS4zODktLjE5OS41OTUtLjA5OS45OTItLjE5OCAxLjI5LS4yOTcuMzk3LS4xOTkuNjk0LS41OTYuODkzLS45OTMuMTk4LS4zOTcuMjk4LTEuMDkxLjI5OC0xLjg4NVYzOTUuNjFjMC0yLjA4My0uMzk3LTMuNjcxLTEuMTkxLTQuNzYyLS43OTQtMS4wOTItMS44ODUtMS41ODgtMy40NzMtMS41ODgtLjc5NCAwLTEuNTg4LjEtMi4yODIuMzk3LS42OTUuMjk3LTEuMzkuNTk1LTIuMDg0IDEuMDkxLS41OTUuMzk3LTEuMDkxLjc5NC0xLjQ4OCAxLjI5LS4zOTcuMzk3LS42OTUuNzk0LS44OTMgMS4xOXYxNi41NzFjMCAuNjk1LjA5OSAxLjI5LjI5NyAxLjc4Ni4xOTkuNDk3LjU5Ni44OTQuOTkzIDEuMDkyLjI5Ny4xOTguNjk0LjM5NyAxLjE5LjQ5NmwxLjQ4OS4yOTh2Mi4yODJoLTE4Ljg1M3YtMi4yODJjLjQ5NiAwIC45OTItLjEgMS41ODgtLjE5OS40OTYtLjA5OS45OTItLjE5OCAxLjM4OS0uMjk3LjY5NC0uMTk5IDEuMDkxLS41OTYgMS4zODktMS4wOTIuMTk4LS40OTYuMzk3LTEuMDkxLjM5Ny0xLjg4NXYtMTguMDU5YzAtLjU5NS0uMTk5LTEuMjktLjQ5Ni0xLjg4NS0uMjk4LS41OTYtLjc5NC0xLjA5Mi0xLjI5LTEuNDg5LS4zOTctLjE5OC0uNzk0LS40OTYtMS4zOS0uNTk1YTUuNzc3IDUuNzc3IDAgMCAwLTEuODg1LS4yOTh2LTIuMjgybDE0Ljc4NS0uNzk0LjQ5Ni40OTZ2NC40NjZoLjFhMjkuODA3IDI5LjgwNyAwIDAgMCAyLjA4My0xLjg4NiAyOS4zNjcgMjkuMzY3IDAgMCAxIDIuMjgyLTEuNzg2Yy43OTQtLjQ5NiAxLjc4Ni0uODkzIDIuOTc3LTEuMjkgMS4xOS0uMzk3IDIuNTgtLjQ5NiAzLjk2OS0uNDk2IDMuMzczIDAgNS44NTQuOTkyIDcuNTQgMi44NzggMS42ODggMS44ODUgMi40ODEgNC40NjUgMi40ODEgNy42NHYxNS4xODFjMCAuNzk0LjEgMS4zOS4yOTggMS43ODYuMTk5LjQ5Ny42OTUuNzk0IDEuMjkgMS4wOTIuMjk4LjEuNjk1LjI5OCAxLjE5LjM5Ny40OTcuMS45OTMuMTk4IDEuNjg4LjI5OHYyLjM4aC4xOTh6TTI0MC41MiA0MTYuODQzYy0xLjk4NCAwLTMuOTY4LS4yOTctNS44NTMtLjg5My0xLjg4Ni0uNTk1LTMuMzc0LTEuMTktNC40NjUtMS44ODVsLS44OTMgMi4wODRoLTIuMzgybC0uMzk3LTExLjUxaDIuMjgyYy4yOTguODkzLjc5NCAxLjk4NCAxLjU4OCAzLjE3NS42OTUgMS4xOSAxLjU4OCAyLjE4MyAyLjQ4IDMuMTc1YTE3LjA4MiAxNy4wODIgMCAwIDAgMy4zNzQgMi4zODJjMS4yOS41OTUgMi41OC45OTIgMy45Ny45OTIgMS44ODUgMCAzLjI3NC0uMzk3IDQuMTY3LTEuMDkyLjg5My0uNjk0IDEuMzg5LTEuODg1IDEuMzg5LTMuMzczIDAtLjc5NC0uMTk5LTEuNDg5LS41OTYtMi4wODQtLjM5Ni0uNDk2LS45OTItLjk5Mi0xLjY4Ni0xLjM5LS43OTQtLjM5Ni0xLjY4Ny0uNzkzLTIuNjgtMS4wOS0uOTkyLS4yOTgtMi4xODItLjU5Ni0zLjU3MS0xLjA5Mi0xLjM5LS4zOTctMi41OC0uNzk0LTMuNTczLTEuMjktLjk5Mi0uMzk3LTIuMDgzLTEuMDkyLTMuMDc2LTEuOTg1LS44OTMtLjc5My0xLjY4Ni0xLjc4Ni0yLjE4Mi0yLjg3Ny0uNTk2LTEuMDkyLS43OTQtMi40OC0uNzk0LTQuMDY4IDAtMi44NzggMS4xOS01LjI2IDMuNjcxLTcuMDQ1IDIuNDgtMS43ODYgNS42NTYtMi42OCA5LjYyNS0yLjY4IDEuODg1IDAgMy41NzIuMiA1LjE2LjU5NiAxLjU4Ny4zOTcgMi44NzcuNzk0IDMuOTY5IDEuMjlsLjY5NC0xLjc4NmgyLjM4MWwuNDk3IDEwLjUxOGgtMi4xODNjLS42OTUtMi4xODMtMS45ODUtMy45Ny0zLjY3Mi01LjU1Ny0xLjc4Ni0xLjU4Ny0zLjY3MS0yLjM4MS01LjY1NS0yLjM4MS0xLjU4OCAwLTIuODc4LjI5Ny0zLjc3MS45OTItLjg5My42OTUtMS4zOSAxLjU4OC0xLjM5IDIuNzc4IDAgMS41ODguNjk1IDIuNjggMS45ODUgMy4zNzQgMS4yOS42OTUgMy4xNzYgMS4zOSA1LjU1NyAxLjk4NCAzLjY3MS45OTMgNi4zNSAyLjI4MyA4LjEzNiAzLjg3IDEuNjg3IDEuNjg3IDIuNTggMy43NyAyLjU4IDYuMjUxIDAgMy4zNzQtMS4yOSA2LjA1My0zLjk2OSA3Ljg0LTIuOTc3IDEuNzg1LTYuNDUgMi43NzctMTAuNzE2IDIuNzc3eiIvPjwvZz48L3N2Zz4=" vertex="1" parent="S7hA1KW036Cgnqv6eDFZ-1">
          <mxGeometry x="3.1399999999999864" width="36.86" height="60" as="geometry" />
        </mxCell>
        <mxCell id="S7hA1KW036Cgnqv6eDFZ-8" value="" style="rounded=0;whiteSpace=wrap;html=1;dashed=1;labelBackgroundColor=#ffffff;fillColor=none;gradientColor=none;container=1;pointerEvents=0;collapsible=0;recursiveResize=0;" vertex="1" parent="1">
          <mxGeometry x="295" y="331" width="150" height="160" as="geometry" />
        </mxCell>
        <mxCell id="S7hA1KW036Cgnqv6eDFZ-9" value="Agent" style="text;html=1;align=center;verticalAlign=middle;whiteSpace=wrap;rounded=0;" vertex="1" parent="S7hA1KW036Cgnqv6eDFZ-8">
          <mxGeometry x="3" y="1" width="60" height="30" as="geometry" />
        </mxCell>
        <mxCell id="S7hA1KW036Cgnqv6eDFZ-11" value="" style="image;sketch=0;aspect=fixed;html=1;points=[];align=center;fontSize=12;image=img/lib/mscae/Docker.svg;" vertex="1" parent="S7hA1KW036Cgnqv6eDFZ-8">
          <mxGeometry x="4.949999999999989" width="56.1" height="46" as="geometry" />
        </mxCell>
        <mxCell id="Rg2q4Fr_N2kqhu6swv87-15" value="" style="shape=image;verticalLabelPosition=bottom;verticalAlign=top;imageAspect=0;aspect=fixed;image=data:image/svg+xml,PHN2ZyB4bWxuczp4bGluaz0iaHR0cDovL3d3dy53My5vcmcvMTk5OS94bGluayIgeG1sbnM9Imh0dHA6Ly93d3cudzMub3JnLzIwMDAvc3ZnIiB4bWw6c3BhY2U9InByZXNlcnZlIiBzdHlsZT0iZW5hYmxlLWJhY2tncm91bmQ6bmV3IDAgMCA4NTkuNyA1OTQuNDsiIHZpZXdCb3g9IjAgMCA4NTkuNyA1OTQuNCIgeT0iMHB4IiB4PSIwcHgiIGlkPSJMYXllcl8xIiB2ZXJzaW9uPSIxLjAiPiYjeGE7PHN0eWxlIHR5cGU9InRleHQvY3NzIj4mI3hhOwkuc3Qwe2ZpbGw6dXJsKCNwYXRoNzI1OF8wMDAwMDA0NDE1ODg4MzU2NzUyNDY2ODY1MDAwMDAxMTM3NjkyNDcwMjQyNjY1MzA2M18pO30mI3hhOwkuc3Qxe2ZpbGw6bm9uZTt9JiN4YTsJLnN0MntmaWxsOiNCRTIwMkU7fSYjeGE7CS5zdDN7b3BhY2l0eTowLjM1O2ZpbGw6I0JFMjAyRTtlbmFibGUtYmFja2dyb3VuZDpuZXcgICAgO30mI3hhOwkuc3Q0e2ZpbGw6dXJsKCNwYXRoNzI4Nl8wMDAwMDEyNDEzNDgzMjcxNjY3MDU4NTU4MDAwMDAwNTIyNjA3NzQ3ODM0MzgzOTkyNV8pO30mI3hhOwkuc3Q1e2ZpbGw6dXJsKCNwYXRoNzI5OF8wMDAwMDEzOTI4NDMwOTc4OTMyMzQ3NTM5MDAwMDAxNDc5MTUxOTYzNjU2MDQ5OTEzMV8pO30mI3hhOwkuc3Q2e2ZpbGw6dXJsKCNwYXRoNzMxMF8wMDAwMDEzNDIxMjM2Mjg1MzAzNTQwMjI5MDAwMDAwMTYwNTc0Mzg4NTEzMzkzMDM4M18pO30mI3hhOwkuc3Q3e2ZpbGw6dXJsKCNwYXRoNzMyMl8wMDAwMDA2OTM5OTMxNDg1MTkzOTM5Njc1MDAwMDAxNzQ0MTEwNDUxMTAxNjEwNDU4NF8pO30mI3hhOwkuc3Q4e2ZpbGw6dXJsKCNwYXRoNzMzNF8wMDAwMDE0NjQ5NDgwNTg5NzcwMzQ0OTIzMDAwMDAxMDIyMzM5ODU4MDgyNDEwMjA1MV8pO30mI3hhOwkuc3Q5e2ZpbGw6dXJsKCNwYXRoNzM0Nl8wMDAwMDA4MDg5MDk0NzczMDMyMDA1OTEyMDAwMDAwNTYwODE2OTUwODAzODAyMjI5Ml8pO30mI3hhOwkuc3QxMHtmaWxsOnVybCgjcGF0aDczNjJfMDAwMDAxMjA1MTkyNjA4Njc2MDg3NjI3NDAwMDAwMDk2MjgzNjM5NTIxOTQ4ODk4ODlfKTt9JiN4YTsJLnN0MTF7ZmlsbDp1cmwoI3BhdGg3Mzc4XzAwMDAwMTA2MTQxNjMzNzkzNTU1OTYzODAwMDAwMDAzNjk5MTMwMTEwMDQwNzE1OTMzXyk7fSYjeGE7CS5zdDEye2ZpbGw6dXJsKCNwYXRoNzM5NF8wMDAwMDAzNDc3NzM4MjA0MTEwMTY0NzIzMDAwMDAxMTg1MTExMDcwOTc1MzA5NTA2M18pO30mI3hhOwkuc3QxM3tmaWxsOnVybCgjcGF0aDQ3MTBfMDAwMDAxMzIwNzAzNDk3NzI0MzkzMTE0OTAwMDAwMDgyNzA3MjQyODkyNDQ3NDc0NTNfKTt9JiN4YTsJLnN0MTR7ZmlsbDp1cmwoI3BhdGg0NzM3XzAwMDAwMTQ1MDM1MzIzNTQ3Njc0NjMyNTUwMDAwMDA0NDI0MDg0Nzg4NTI3MzM1MzMzXyk7fSYjeGE7CS5zdDE1e2ZpbGw6dXJsKCNwYXRoNDc0OF8wMDAwMDEzOTk5ODEzMDU2MzA5MjY5MjQ4MDAwMDAwODExMjk0MzEwNTk2MTIwMzM2N18pO30mI3hhOwkuc3QxNntmaWxsOnVybCgjcGF0aDQ3NTlfMDAwMDAxNjg4MTM5ODYwMDAyOTY2NTA3OTAwMDAwMTQyNzAyNzM5MTE1MzEzMjA3NDNfKTt9JiN4YTsJLnN0MTd7ZmlsbDp1cmwoI3BhdGg0NzcwXzAwMDAwMDUxMzcxNjQyMDM3ODUzODEyMzEwMDAwMDEwODgwNTYyMTg0Mzk0OTg3OTYyXyk7fSYjeGE7CS5zdDE4e2ZpbGw6dXJsKCNwYXRoNDc4MV8wMDAwMDE1NjU2NjYxOTM0NTUyNDU3NDQzMDAwMDAxMDc4NTczMjQyNTk2ODYyNDc3N18pO30mI3hhOwkuc3QxOXtmaWxsOnVybCgjcGF0aDQ3OTJfMDAwMDAxNjE2Mjc0MzA2NzA3NDMyOTE5NTAwMDAwMDAxMDQ4MTE4Mjc3ODU4MzU0NDVfKTt9JiN4YTsJLnN0MjB7ZmlsbDp1cmwoI3BhdGg0ODA3XzAwMDAwMTQyMTM5NjIxNTcyMTY0MDc5NzAwMDAwMDAxNzQ1NjU4NzkwOTc5OTE5NTAwXyk7fSYjeGE7CS5zdDIxe2ZpbGw6dXJsKCNwYXRoNDgyMl8wMDAwMDEzODU2MzA3MzA5NDQ0OTM4MDQxMDAwMDAwMDAwNDM4NTE4OTc5Mjk4OTg1OF8pO30mI3hhOwkuc3QyMntmaWxsOnVybCgjcGF0aDQ4MzdfMDAwMDAwOTc0NzQxNjI0NTM2Mjg3MzgwMDAwMDAwMTE1NDM1NTk1Nzg5NDE5ODIzOTVfKTt9JiN4YTs8L3N0eWxlPiYjeGE7PGcgaWQ9Imc4OTI3Ij4mI3hhOwk8ZyBpZD0iZzcyNDgiPiYjeGE7CQkmI3hhOwkJCTxsaW5lYXJHcmFkaWVudCBncmFkaWVudFRyYW5zZm9ybT0ibWF0cml4KC0yLjAwMDAwMGUtMDIgLTAuMTIgMC4xMiAtMi4wMDAwMDBlLTAyIDIyMC4zMTY4IC0xMDkwLjU4MTcpIiB5Mj0iLTQ2NC4xNjU3IiB4Mj0iLTExMjY1LjE4NzUiIHkxPSItNjU3LjU0NTgiIHgxPSItMTE0MzAuNTY3NCIgZ3JhZGllbnRVbml0cz0idXNlclNwYWNlT25Vc2UiIGlkPSJwYXRoNzI1OF8wMDAwMDE0MjE2MDI1NjU3MTI1NTYxMDEyMDAwMDAwMDA3MzIzNDk3Njk4MTAxNjQ1NF8iPiYjeGE7CQkJPHN0b3Agc3R5bGU9InN0b3AtY29sb3I6I0Y2OTkyMyIgb2Zmc2V0PSIwIi8+JiN4YTsJCQk8c3RvcCBzdHlsZT0ic3RvcC1jb2xvcjojRjc5QTIzIiBvZmZzZXQ9IjAuMzEiLz4mI3hhOwkJCTxzdG9wIHN0eWxlPSJzdG9wLWNvbG9yOiNFOTc4MjYiIG9mZnNldD0iMC44NCIvPiYjeGE7CQk8L2xpbmVhckdyYWRpZW50PiYjeGE7CQk8cGF0aCBkPSJNNDAyLjIsMjQyLjEmIzEwOyYjOTsmIzk7JiM5O2MtMSwyLjMtMS44LDcuNC0yLjEsMTQuMmw3LjYsMy43Yy0wLjEtNC41LDAuMS05LjEsMC42LTEzLjZjMC0wLjMsMC4xLTAuNSwwLjEtMC41YzAsMC4yLDAsMC4zLTAuMSwwLjVjLTAuNCw0LjUtMC40LDguOSwwLDEzLjQmIzEwOyYjOTsmIzk7JiM5O2M0LTMuNCw3LjctNi45LDExLjMtMTAuN2MtMy44LTcuOC04LjUtOS4xLTguNS05LjFTNDA0LjMsMjM3LjMsNDAyLjIsMjQyLjF6IiBzdHlsZT0iZmlsbDp1cmwoI3BhdGg3MjU4XzAwMDAwMTQyMTYwMjU2NTcxMjU1NjEwMTIwMDAwMDAwMDczMjM0OTc2OTgxMDE2NDU0Xyk7IiBpZD0icGF0aDcyNTgiLz4mI3hhOwkJPHBhdGggZD0iTTQyMi4xLDI4MC42QzQyMi4xLDI4MC41LDQyMi4xLDI4MC41LDQyMi4xLDI4MC42bC0wLjQsMC4zYzAsMCwwLDAuMS0wLjEsMC4xTDQyMi4xLDI4MC42eiIgY2xhc3M9InN0MSIgaWQ9InBhdGg3MjYwIi8+JiN4YTsJCTxwYXRoIGQ9Ik00MjYuOCwyOTMuOGMtMC4yLDAuMi0wLjUsMC41LTAuNywwLjdDNDI2LjMsMjk0LjIsNDI2LjYsMjk0LDQyNi44LDI5My44eiIgY2xhc3M9InN0MSIgaWQ9InBhdGg3MjYyIi8+JiN4YTsJCTxwYXRoIGQ9Ik00MjIuMywzMzQuM2MwLTAuMS0wLjEtMC4yLTAuMS0wLjNjLTAuNy0yLjQtMS4zLTQuNy0xLjktN2MtMC43LTIuNS0xLjMtNS0xLjktNy40JiMxMDsmIzk7JiM5OyYjOTtzLTEuMi01LTEuOC03LjRzLTEuMS00LjktMS43LTcuM2MtMC40LTEuOS0wLjgtMy44LTEuMi01LjZjLTAuMS0wLjYtMC4yLTEuMi0wLjQtMS44Yy0wLjItMS4yLTAuNS0yLjMtMC43LTMuNXMtMC40LTIuMS0wLjYtMy4xJiMxMDsmIzk7JiM5OyYjOTtjLTAuMS0wLjMtMC4xLTAuNy0wLjItMXYtMC4ybC0wLjQsMC4zbC0wLjgtMC40YzAsMC4xLDAsMC4yLDAsMC4yYzAuMiwxLjUsMC41LDMuMSwwLjgsNC42YzAuMiwwLjksMC4zLDEuOCwwLjUsMi43JiMxMDsmIzk7JiM5OyYjOTtjMC41LDIuNSwxLDUsMS41LDcuNXMxLjEsNSwxLjYsNy41czEuMSw0LjksMS43LDcuM3MxLjIsNC44LDEuOCw3LjJzMS4zLDQuOSwyLDcuNGMwLjEsMC41LDAuMywxLjEsMC41LDEuNiYjMTA7JiM5OyYjOTsmIzk7YzAuNSwyLDEuMSwzLjksMS42LDUuN2wxLjIsMC42bDAuNC0wLjRjMC0wLjEsMC0wLjEsMC0wLjFDNDIzLjcsMzM5LjEsNDIzLDMzNi43LDQyMi4zLDMzNC4zeiIgY2xhc3M9InN0MSIgaWQ9InBhdGg3MjY0Ii8+JiN4YTsJCTxwYXRoIGQ9Ik00MjguNywzMDAuN2MtMC40LDAuNC0wLjcsMC44LTEuMSwxLjFsMCwwYzAuMi0wLjIsMC40LTAuNCwwLjYtMC42JiMxMDsmIzk7JiM5OyYjOTtDNDI4LjQsMzAxLjEsNDI4LjUsMzAwLjksNDI4LjcsMzAwLjd6IiBjbGFzcz0ic3QyIiBpZD0icGF0aDcyNjgiLz4mI3hhOwkJPHBhdGggZD0iTTQyOC43LDMwMC43Yy0wLjQsMC40LTAuNywwLjgtMS4xLDEuMWwwLDBjMC4yLTAuMiwwLjQtMC40LDAuNi0wLjYmIzEwOyYjOTsmIzk7JiM5O0M0MjguNCwzMDEuMSw0MjguNSwzMDAuOSw0MjguNywzMDAuN3oiIGNsYXNzPSJzdDMiIGlkPSJwYXRoNzI3MCIvPiYjeGE7CQk8cGF0aCBkPSJNNDI1LjksMjk0LjZMNDI1LjksMjk0LjZsMC4yLTAuMmMwLjItMC4yLDAuNS0wLjUsMC43LTAuN0M0MjYuNSwyOTQsNDI2LjIsMjk0LjMsNDI1LjksMjk0LjYmIzEwOyYjOTsmIzk7JiM5O0w0MjUuOSwyOTQuNnoiIGNsYXNzPSJzdDIiIGlkPSJwYXRoNzI3MiIvPiYjeGE7CQk8cGF0aCBkPSJNNDI1LjksMjk0LjZMNDI1LjksMjk0LjZsMC4yLTAuMmMwLjItMC4yLDAuNS0wLjUsMC43LTAuN0M0MjYuNSwyOTQsNDI2LjIsMjk0LjMsNDI1LjksMjk0LjYmIzEwOyYjOTsmIzk7JiM5O0w0MjUuOSwyOTQuNnoiIGNsYXNzPSJzdDMiIGlkPSJwYXRoNzI3NCIvPiYjeGE7CQkmI3hhOwkJCTxsaW5lYXJHcmFkaWVudCBncmFkaWVudFRyYW5zZm9ybT0ibWF0cml4KC0yLjAwMDAwMGUtMDIgLTAuMTIgMC4xMiAtMi4wMDAwMDBlLTAyIDIyMC4zMTY4IC0xMDkwLjU4MTcpIiB5Mj0iLTM1MS4zMjAyIiB4Mj0iLTExNDU2LjI1MzkiIHkxPSItMzUxLjMyMDIiIHgxPSItMTI2MzYuMTY0MSIgZ3JhZGllbnRVbml0cz0idXNlclNwYWNlT25Vc2UiIGlkPSJwYXRoNzI4Nl8wMDAwMDE0NDMzMTA4MzM0ODA1MjQ1MTI5MDAwMDAxNTkzNjM0MDcyMjQ2NDQxOTc3NV8iPiYjeGE7CQkJPHN0b3Agc3R5bGU9InN0b3AtY29sb3I6IzlFMjA2NCIgb2Zmc2V0PSIwLjMyIi8+JiN4YTsJCQk8c3RvcCBzdHlsZT0ic3RvcC1jb2xvcjojQzkyMDM3IiBvZmZzZXQ9IjAuNjMiLz4mI3hhOwkJCTxzdG9wIHN0eWxlPSJzdG9wLWNvbG9yOiNDRDIzMzUiIG9mZnNldD0iMC43NSIvPiYjeGE7CQkJPHN0b3Agc3R5bGU9InN0b3AtY29sb3I6I0U5NzgyNiIgb2Zmc2V0PSIxIi8+JiN4YTsJCTwvbGluZWFyR3JhZGllbnQ+JiN4YTsJCTxwYXRoIGQ9Ik00MDkuNywyODIuNSYjMTA7JiM5OyYjOTsmIzk7Yy0wLjQtMi41LTAuNy01LTEtNy41cy0wLjUtNS0wLjctNy41YzAtMC4xLDAtMC4zLDAtMC40Yy0wLjItMi40LTAuMy00LjgtMC4zLTcuMWwtNy42LTMuN2MwLDAuNSwwLDAuOS0wLjEsMS40JiMxMDsmIzk7JiM5OyYjOTtjLTAuMSwxLjgtMC4xLDMuOC0wLjEsNS44YzAsMi4zLDAsNC43LDAsNy4yYzAsMi4zLDAuMSw0LjcsMC4zLDcuMmMwLjEsMi4xLDAuMyw0LjIsMC40LDYuNGMwLDAuMSwwLDAuMiwwLDAuMmwxMC4yLDUuMiYjMTA7JiM5OyYjOTsmIzk7QzQxMC41LDI4Ny4zLDQxMC4xLDI4NC45LDQwOS43LDI4Mi41eiIgc3R5bGU9ImZpbGw6dXJsKCNwYXRoNzI4Nl8wMDAwMDE0NDMzMTA4MzM0ODA1MjQ1MTI5MDAwMDAxNTkzNjM0MDcyMjQ2NDQxOTc3NV8pOyIgaWQ9InBhdGg3Mjg2Ii8+JiN4YTsJCSYjeGE7CQkJPGxpbmVhckdyYWRpZW50IGdyYWRpZW50VHJhbnNmb3JtPSJtYXRyaXgoLTIuMDAwMDAwZS0wMiAtMC4xMiAwLjEyIC0yLjAwMDAwMGUtMDIgMjIwLjMxNjggLTEwOTAuNTgxNykiIHkyPSItMjE4LjY0NDEiIHgyPSItMTE3OTAuNjI0IiB5MT0iLTIxOC42NDQxIiB4MT0iLTEyNDkzLjczNDQiIGdyYWRpZW50VW5pdHM9InVzZXJTcGFjZU9uVXNlIiBpZD0icGF0aDcyOThfMDAwMDAwNjcyMzE0OTMzNTE3MDIwNDA1MzAwMDAwMDIwMDI0MDIzMzQxMzM0NjIxODFfIj4mI3hhOwkJCTxzdG9wIHN0eWxlPSJzdG9wLWNvbG9yOiMyODI2NjIiIG9mZnNldD0iMCIvPiYjeGE7CQkJPHN0b3Agc3R5bGU9InN0b3AtY29sb3I6IzY2MkU4RCIgb2Zmc2V0PSIwLjEiLz4mI3hhOwkJCTxzdG9wIHN0eWxlPSJzdG9wLWNvbG9yOiM5RjIwNjQiIG9mZnNldD0iMC43OSIvPiYjeGE7CQkJPHN0b3Agc3R5bGU9InN0b3AtY29sb3I6I0NEMjAzMiIgb2Zmc2V0PSIwLjk1Ii8+JiN4YTsJCTwvbGluZWFyR3JhZGllbnQ+JiN4YTsJCTxwYXRoIGQ9Ik00MjQuOCwzNDIuOCYjMTA7JiM5OyYjOTsmIzk7YzAuNiwxLjksMS4xLDMuOSwxLjgsNS45YzAsMCwwLDAsMCwwLjFjMC4xLDAuMywwLjIsMC42LDAuMywwLjhjMC40LDEuMywwLjgsMi41LDEuNiw1LjNjMS42LTAuMywzLjcsMC40LDUuOSwxLjQmIzEwOyYjOTsmIzk7JiM5O2MtMS40LTEuNy0zLjQtMi44LTUuNi0zYzYuMi00LjIsMTAuMy05LjUsOS44LTE1LjljLTAuMS0wLjYtMC4xLTEuMi0wLjItMS44Yy0wLjEsMi41LTEuMSw0LjItNC4xLDYuMmwwLDBsMCwwJiMxMDsmIzk7JiM5OyYjOTtjMi44LTUsMy42LTguMywzLjMtMTIuN2MtMC4xLTEtMC4yLTIuMS0wLjQtMy4zYy0wLjYsNS44LTQuMiwxMC44LTkuNSwxMy4ybC0zLjEsMi45TDQyNC44LDM0Mi44eiIgc3R5bGU9ImZpbGw6dXJsKCNwYXRoNzI5OF8wMDAwMDA2NzIzMTQ5MzM1MTcwMjA0MDUzMDAwMDAwMjAwMjQwMjMzNDEzMzQ2MjE4MV8pOyIgaWQ9InBhdGg3Mjk4Ii8+JiN4YTsJCSYjeGE7CQkJPGxpbmVhckdyYWRpZW50IGdyYWRpZW50VHJhbnNmb3JtPSJtYXRyaXgoLTIuMDAwMDAwZS0wMiAtMC4xMiAwLjEyIC0yLjAwMDAwMGUtMDIgMjIwLjMxNjggLTEwOTAuNTgxNykiIHkyPSItMzQ3LjkyNzkiIHgyPSItMTEzODkuOTg0NCIgeTE9Ii0zNDcuOTI3OSIgeDE9Ii0xMjU2OS45MDQzIiBncmFkaWVudFVuaXRzPSJ1c2VyU3BhY2VPblVzZSIgaWQ9InBhdGg3MzEwXzAwMDAwMDM0Nzg2OTc3MTIzNTQ3MDc0ODUwMDAwMDEzNjUwOTU5MzY0MDM1OTQ0ODUzXyI+JiN4YTsJCQk8c3RvcCBzdHlsZT0ic3RvcC1jb2xvcjojOUUyMDY0IiBvZmZzZXQ9IjAuMzIiLz4mI3hhOwkJCTxzdG9wIHN0eWxlPSJzdG9wLWNvbG9yOiNDOTIwMzciIG9mZnNldD0iMC42MyIvPiYjeGE7CQkJPHN0b3Agc3R5bGU9InN0b3AtY29sb3I6I0NEMjMzNSIgb2Zmc2V0PSIwLjc1Ii8+JiN4YTsJCQk8c3RvcCBzdHlsZT0ic3RvcC1jb2xvcjojRTk3ODI2IiBvZmZzZXQ9IjEiLz4mI3hhOwkJPC9saW5lYXJHcmFkaWVudD4mI3hhOwkJPHBhdGggZD0iTTQyMC44LDMzNC4xJiMxMDsmIzk7JiM5OyYjOTtjLTAuNi0yLjQtMS4zLTQuOS0yLTcuNHMtMS4yLTQuOC0xLjgtNy4ycy0xLjItNC45LTEuNy03LjNzLTEuMS01LTEuNi03LjVzLTEtNS0xLjUtNy41Yy0wLjItMC45LTAuMy0xLjgtMC41LTIuNyYjMTA7JiM5OyYjOTsmIzk7Yy0wLjMtMS41LTAuNS0zLjEtMC44LTQuNmMwLTAuMSwwLTAuMi0wLjEtMC4ybC0xMC4xLTUuMmMwLDAuMiwwLDAuMywwLDAuNWMwLjIsMi4zLDAuNCw0LjYsMC43LDdzMC42LDQuOCwwLjksNy4yJiMxMDsmIzk7JiM5OyYjOTtjMC4zLDIsMC42LDQsMSw2LjFjMC4xLDAuNCwwLjEsMC44LDAuMiwxLjJjMC41LDIuNSwxLDUsMS41LDcuMmMwLjYsMi42LDEuMiw1LDEuOSw3LjJjMC40LDEuNSwwLjksMi45LDEuMyw0LjImIzEwOyYjOTsmIzk7JiM5O2MwLjQsMS4xLDAuOCwyLjMsMS4yLDMuNGMxLDIuNiwyLDUuMiwzLjIsNy43bDEwLjIsNS4xYy0wLjUtMS45LTEtMy44LTEuNi01LjdDNDIxLjEsMzM1LjIsNDIxLDMzNC43LDQyMC44LDMzNC4xeiIgc3R5bGU9ImZpbGw6dXJsKCNwYXRoNzMxMF8wMDAwMDAzNDc4Njk3NzEyMzU0NzA3NDg1MDAwMDAxMzY1MDk1OTM2NDAzNTk0NDg1M18pOyIgaWQ9InBhdGg3MzEwIi8+JiN4YTsJCSYjeGE7CQkJPGxpbmVhckdyYWRpZW50IGdyYWRpZW50VHJhbnNmb3JtPSJtYXRyaXgoLTIuMDAwMDAwZS0wMiAtMC4xMiAwLjEyIC0yLjAwMDAwMGUtMDIgMjIwLjMxNjggLTEwOTAuNTgxNykiIHkyPSItMzIxLjExNSIgeDI9Ii0xMTg2My43NjQ2IiB5MT0iLTMyMS4xMTUiIHgxPSItMTI0ODMuODQ0NyIgZ3JhZGllbnRVbml0cz0idXNlclNwYWNlT25Vc2UiIGlkPSJwYXRoNzMyMl8wMDAwMDAzOTExODU5OTU0MjQyMjg0Njg3MDAwMDAxMDE2NzQyNDExMzM2NTMzOTUyM18iPiYjeGE7CQkJPHN0b3Agc3R5bGU9InN0b3AtY29sb3I6IzI4MjY2MiIgb2Zmc2V0PSIwIi8+JiN4YTsJCQk8c3RvcCBzdHlsZT0ic3RvcC1jb2xvcjojNjYyRThEIiBvZmZzZXQ9IjAuMSIvPiYjeGE7CQkJPHN0b3Agc3R5bGU9InN0b3AtY29sb3I6IzlGMjA2NCIgb2Zmc2V0PSIwLjc5Ii8+JiN4YTsJCQk8c3RvcCBzdHlsZT0ic3RvcC1jb2xvcjojQ0QyMDMyIiBvZmZzZXQ9IjAuOTUiLz4mI3hhOwkJPC9saW5lYXJHcmFkaWVudD4mI3hhOwkJPHBhdGggZD0iTTQxMi44LDMzNi42JiMxMDsmIzk7JiM5OyYjOTtjMS40LDMsMyw1LjksNC43LDguN2MwLjEsMC4xLDAuMSwwLjIsMC4yLDAuM2MtMi44LTEuMS03LjktMC42LTcuOC0wLjZjNS4yLDEuOCw5LjcsNCwxMi42LDcuM2MtMS4xLDEuMi0zLjMsMi4yLTYsMyYjMTA7JiM5OyYjOTsmIzk7YzIuMiwwLjQsNC40LDAuMiw2LjUtMC42Yy0xLjksMS42LTMsNC42LTQsNy43YzIuMi0zLjYsNC4zLTUuOSw2LjQtNi44YzMuMSwxMC4yLDYuOCwyMS4yLDEwLjksMzIuOGMwLjYtMC44LDAuOC0xLjksMC41LTIuOSYjMTA7JiM5OyYjOTsmIzk7Yy0wLjgtMi4xLTUuNi0xNS45LTExLjItMzQuNmMtMC4yLTAuNS0wLjMtMS4xLTAuNS0xLjZMNDI1LDM0OWMtMC42LTItMS4xLTQtMS43LTZjLTAuMS0wLjUtMC4zLTAuOS0wLjQtMS40bDAsMGwtMTAuMi01LjImIzEwOyYjOTsmIzk7JiM5O0M0MTIuNywzMzYuNCw0MTIuNywzMzYuNSw0MTIuOCwzMzYuNnoiIHN0eWxlPSJmaWxsOnVybCgjcGF0aDczMjJfMDAwMDAwMzkxMTg1OTk1NDI0MjI4NDY4NzAwMDAwMTAxNjc0MjQxMTMzNjUzMzk1MjNfKTsiIGlkPSJwYXRoNzMyMiIvPiYjeGE7CQkmI3hhOwkJCTxsaW5lYXJHcmFkaWVudCBncmFkaWVudFRyYW5zZm9ybT0ibWF0cml4KC0yLjAwMDAwMGUtMDIgLTAuMTIgMC4xMiAtMi4wMDAwMDBlLTAyIDIyMC4zMTY4IC0xMDkwLjU4MTcpIiB5Mj0iLTIzNC44NDIiIHgyPSItMTEzODkuOTg0NCIgeTE9Ii0yMzQuODQyIiB4MT0iLTEyNTY5LjkwNDMiIGdyYWRpZW50VW5pdHM9InVzZXJTcGFjZU9uVXNlIiBpZD0icGF0aDczMzRfMDAwMDAxNDI4NTczMjIxNDIwMTI3ODI4ODAwMDAwMDU0MDI1Mzk4NTMxOTYxNDk2MzdfIj4mI3hhOwkJCTxzdG9wIHN0eWxlPSJzdG9wLWNvbG9yOiM5RTIwNjQiIG9mZnNldD0iMC4zMiIvPiYjeGE7CQkJPHN0b3Agc3R5bGU9InN0b3AtY29sb3I6I0M5MjAzNyIgb2Zmc2V0PSIwLjYzIi8+JiN4YTsJCQk8c3RvcCBzdHlsZT0ic3RvcC1jb2xvcjojQ0QyMzM1IiBvZmZzZXQ9IjAuNzUiLz4mI3hhOwkJCTxzdG9wIHN0eWxlPSJzdG9wLWNvbG9yOiNFOTc4MjYiIG9mZnNldD0iMSIvPiYjeGE7CQk8L2xpbmVhckdyYWRpZW50PiYjeGE7CQk8cGF0aCBkPSJNNDEyLDI4OS45JiMxMDsmIzk7JiM5OyYjOTtjMC4xLDAuMywwLjEsMC42LDAuMiwxYzAuMiwxLDAuNCwyLDAuNiwzLjFzMC41LDIuMywwLjcsMy41YzAuMSwwLjYsMC4yLDEuMiwwLjQsMS44YzAuNCwxLjgsMC44LDMuNywxLjIsNS42JiMxMDsmIzk7JiM5OyYjOTtjMC41LDIuNCwxLjEsNC44LDEuNyw3LjNzMS4yLDQuOSwxLjgsNy40czEuMiw0LjksMS45LDcuNGMwLjYsMi4zLDEuMiw0LjYsMS45LDdjMCwwLjEsMC4xLDAuMiwwLjEsMC4zYzAuNywyLjQsMS40LDQuOCwyLjEsNy4yJiMxMDsmIzk7JiM5OyYjOTtjMCwwLjEsMCwwLjEsMCwwLjJsMy4xLTIuOWwtMC4yLDAuMWMzLjctMy41LDYuOC0xMC40LDcuNS0xNi42YzAuMy0zLjEsMC4zLTYuMi0wLjEtOS4zYy0wLjMtMi43LTAuOC01LjMtMS41LTgmIzEwOyYjOTsmIzk7JiM5O2MtMC42LTIuNS0xLjQtNS0yLjMtNy44Yy0wLjYsMS4yLTEuNCwyLjQtMi40LDMuNGwtMC41LDAuNmMtMC4yLDAuMi0wLjQsMC40LTAuNiwwLjZsMCwwYzIuNy00LjIsMy04LjcsMi4yLTEzLjQmIzEwOyYjOTsmIzk7JiM5O2MtMC43LDEuOS0xLjcsMy43LTMuMSw1LjNjLTAuMiwwLjMtMC40LDAuNS0wLjcsMC43Yy0wLjEsMC0wLjEsMC4xLTAuMiwwLjJsMCwwYzAuOC0xLjQsMS41LTIuOCwyLTQuNGMwLjEtMC4zLDAuMi0wLjYsMC4yLTAuOSYjMTA7JiM5OyYjOTsmIzk7YzAuMS0wLjUsMC4yLTAuOSwwLjItMS40YzAtMC4zLDAuMS0wLjYsMC4xLTAuOWMwLjEtMC43LDAuMS0xLjUsMC0yLjJjMC0wLjIsMC0wLjUtMC4xLTAuN3MtMC4xLTAuNy0wLjItMSYjMTA7JiM5OyYjOTsmIzk7Yy0wLjItMS40LTAuNS0yLjctMC44LTMuOGMtMC4xLTAuNS0wLjMtMS0wLjQtMS41Yy0wLjEtMC4yLTAuMS0wLjQtMC4yLTAuNWMtMC4yLTAuNS0wLjMtMC45LTAuNS0xLjNjLTAuMi0wLjQtMC4zLTAuOS0wLjYtMS4zJiMxMDsmIzk7JiM5OyYjOTtsMCwwYy0wLjEsMC4yLTAuMSwwLjQtMC4yLDAuNmMtMC45LDEuOC0yLjEsMy41LTMuNSw1bDIuOS0yLjZsLTIuOCwyLjZjMCwwLDAsMCwwLDAuMWMtMC4xLDAuMS0wLjMsMC4zLTAuNCwwLjRjMCwwLDAtMC4xLDAtMC4xJiMxMDsmIzk7JiM5OyYjOTtsLTkuNyw4LjlDNDEyLDI4OS44LDQxMiwyODkuOSw0MTIsMjg5Ljl6IiBzdHlsZT0iZmlsbDp1cmwoI3BhdGg3MzM0XzAwMDAwMTQyODU3MzIyMTQyMDEyNzgyODgwMDAwMDA1NDAyNTM5ODUzMTk2MTQ5NjM3Xyk7IiBpZD0icGF0aDczMzQiLz4mI3hhOwkJJiN4YTsJCQk8bGluZWFyR3JhZGllbnQgZ3JhZGllbnRUcmFuc2Zvcm09Im1hdHJpeCgtMi4wMDAwMDBlLTAyIC0wLjEyIDAuMTIgLTIuMDAwMDAwZS0wMiAyMjAuMzE2OCAtMTA5MC41ODE3KSIgeTI9Ii0yNDcuMzY5IiB4Mj0iLTExNDYzLjE4NDYiIHkxPSItMjQ3LjM2OSIgeDE9Ii0xMjY0My4wOTQ3IiBncmFkaWVudFVuaXRzPSJ1c2VyU3BhY2VPblVzZSIgaWQ9InBhdGg3MzQ2XzAwMDAwMTgzMjI1ODAwNDkxMDM5MzgxODgwMDAwMDExNjI4NzIzODc5NDA3NjA1OTA0XyI+JiN4YTsJCQk8c3RvcCBzdHlsZT0ic3RvcC1jb2xvcjojOUUyMDY0IiBvZmZzZXQ9IjAuMzIiLz4mI3hhOwkJCTxzdG9wIHN0eWxlPSJzdG9wLWNvbG9yOiNDOTIwMzciIG9mZnNldD0iMC42MyIvPiYjeGE7CQkJPHN0b3Agc3R5bGU9InN0b3AtY29sb3I6I0NEMjMzNSIgb2Zmc2V0PSIwLjc1Ii8+JiN4YTsJCQk8c3RvcCBzdHlsZT0ic3RvcC1jb2xvcjojRTk3ODI2IiBvZmZzZXQ9IjEiLz4mI3hhOwkJPC9saW5lYXJHcmFkaWVudD4mI3hhOwkJPHBhdGggZD0iTTQwOC4zLDI1OS44JiMxMDsmIzk7JiM5OyYjOTtjMC4xLDIuMSwwLjMsNC41LDAuNSw3LjJjMCwwLjEsMCwwLjMsMCwwLjRjMC4yLDIuMywwLjUsNC44LDAuOSw3LjVjMC4zLDIuNCwwLjYsNC44LDEuMSw3LjVjMC40LDIuMywwLjgsNC43LDEuMiw3LjNsOS43LTguOSYjMTA7JiM5OyYjOTsmIzk7YzItMy43LDIuNS02LDIuNS04LjhjMC0wLjgtMC4xLTEuNi0wLjEtMi40Yy0wLjItMi42LTAuNS01LjEtMC45LTcuN2MtMC40LTIuMy0wLjgtNC42LTEuNS02LjljLTAuNC0xLjMtMC43LTIuNS0xLjEtMy41JiMxMDsmIzk7JiM5OyYjOTtzLTAuNy0xLjctMS4xLTIuNEM0MTUuOSwyNTIuOSw0MTIuMiwyNTYuNSw0MDguMywyNTkuOHoiIHN0eWxlPSJmaWxsOnVybCgjcGF0aDczNDZfMDAwMDAxODMyMjU4MDA0OTEwMzkzODE4ODAwMDAwMTE2Mjg3MjM4Nzk0MDc2MDU5MDRfKTsiIGlkPSJwYXRoNzM0NiIvPiYjeGE7CQk8cGF0aCBkPSJNNDI4LjIsMzAxLjNsLTAuNiwwLjZsMCwwQzQyNy44LDMwMS43LDQyOCwzMDEuNSw0MjguMiwzMDEuM3oiIGNsYXNzPSJzdDIiIGlkPSJwYXRoNzM0OCIvPiYjeGE7CQk8cGF0aCBkPSJNNDI4LjIsMzAxLjNsLTAuNiwwLjZsMCwwQzQyNy44LDMwMS43LDQyOCwzMDEuNSw0MjguMiwzMDEuM3oiIGNsYXNzPSJzdDMiIGlkPSJwYXRoNzM1MCIvPiYjeGE7CQkmI3hhOwkJCTxsaW5lYXJHcmFkaWVudCBncmFkaWVudFRyYW5zZm9ybT0ibWF0cml4KC0yLjAwMDAwMGUtMDIgLTAuMTIgMC4xMiAtMi4wMDAwMDBlLTAyIDIyMC4zMTY4IC0xMDkwLjU4MTcpIiB5Mj0iLTE5OC4yNDU3IiB4Mj0iLTExMzg5Ljk4NDQiIHkxPSItMTk4LjI0NTciIHgxPSItMTI1NjkuOTA0MyIgZ3JhZGllbnRVbml0cz0idXNlclNwYWNlT25Vc2UiIGlkPSJwYXRoNzM2Ml8wMDAwMDEzOTI3NTI5MTAwMTIxNjU1NTk5MDAwMDAwNDIyMTI4OTAzNTY1NDMyODk2N18iPiYjeGE7CQkJPHN0b3Agc3R5bGU9InN0b3AtY29sb3I6IzlFMjA2NCIgb2Zmc2V0PSIwLjMyIi8+JiN4YTsJCQk8c3RvcCBzdHlsZT0ic3RvcC1jb2xvcjojQzkyMDM3IiBvZmZzZXQ9IjAuNjMiLz4mI3hhOwkJCTxzdG9wIHN0eWxlPSJzdG9wLWNvbG9yOiNDRDIzMzUiIG9mZnNldD0iMC43NSIvPiYjeGE7CQkJPHN0b3Agc3R5bGU9InN0b3AtY29sb3I6I0U5NzgyNiIgb2Zmc2V0PSIxIi8+JiN4YTsJCTwvbGluZWFyR3JhZGllbnQ+JiN4YTsJCTxwYXRoIGQ9Ik00MjguMiwzMDEuM2wtMC42LDAuNiYjMTA7JiM5OyYjOTsmIzk7bDAsMEM0MjcuOCwzMDEuNyw0MjgsMzAxLjUsNDI4LjIsMzAxLjN6IiBzdHlsZT0iZmlsbDp1cmwoI3BhdGg3MzYyXzAwMDAwMTM5Mjc1MjkxMDAxMjE2NTU1OTkwMDAwMDA0MjIxMjg5MDM1NjU0MzI4OTY3Xyk7IiBpZD0icGF0aDczNjIiLz4mI3hhOwkJPHBhdGggZD0iTTQyNS45LDI5NC43YzAuMSwwLDAuMS0wLjEsMC4yLTAuMkw0MjUuOSwyOTQuN3oiIGNsYXNzPSJzdDIiIGlkPSJwYXRoNzM2NCIvPiYjeGE7CQk8cGF0aCBkPSJNNDI1LjksMjk0LjdjMC4xLDAsMC4xLTAuMSwwLjItMC4yTDQyNS45LDI5NC43eiIgY2xhc3M9InN0MyIgaWQ9InBhdGg3MzY2Ii8+JiN4YTsJCSYjeGE7CQkJPGxpbmVhckdyYWRpZW50IGdyYWRpZW50VHJhbnNmb3JtPSJtYXRyaXgoLTIuMDAwMDAwZS0wMiAtMC4xMiAwLjEyIC0yLjAwMDAwMGUtMDIgMjIwLjMxNjggLTEwOTAuNTgxNykiIHkyPSItMjA0LjMyNjkiIHgyPSItMTEzODkuOTg0NCIgeTE9Ii0yMDQuMzI2OSIgeDE9Ii0xMjU2OS45MDQzIiBncmFkaWVudFVuaXRzPSJ1c2VyU3BhY2VPblVzZSIgaWQ9InBhdGg3Mzc4XzAwMDAwMTAxODE4MjYzNjUwODY5OTkxNzYwMDAwMDA4OTkxMjczNjYzNjMwNTE5NDgzXyI+JiN4YTsJCQk8c3RvcCBzdHlsZT0ic3RvcC1jb2xvcjojOUUyMDY0IiBvZmZzZXQ9IjAuMzIiLz4mI3hhOwkJCTxzdG9wIHN0eWxlPSJzdG9wLWNvbG9yOiNDOTIwMzciIG9mZnNldD0iMC42MyIvPiYjeGE7CQkJPHN0b3Agc3R5bGU9InN0b3AtY29sb3I6I0NEMjMzNSIgb2Zmc2V0PSIwLjc1Ii8+JiN4YTsJCQk8c3RvcCBzdHlsZT0ic3RvcC1jb2xvcjojRTk3ODI2IiBvZmZzZXQ9IjEiLz4mI3hhOwkJPC9saW5lYXJHcmFkaWVudD4mI3hhOwkJPHBhdGggZD0iTTQyNS45LDI5NC43JiMxMDsmIzk7JiM5OyYjOTtjMC4xLDAsMC4xLTAuMSwwLjItMC4yTDQyNS45LDI5NC43eiIgc3R5bGU9ImZpbGw6dXJsKCNwYXRoNzM3OF8wMDAwMDEwMTgxODI2MzY1MDg2OTk5MTc2MDAwMDAwODk5MTI3MzY2MzYzMDUxOTQ4M18pOyIgaWQ9InBhdGg3Mzc4Ii8+JiN4YTsJPC9nPiYjeGE7CTxnIGlkPSJ0ZXh0NTQ5MiI+JiN4YTsJCTxwYXRoIGQ9Ik0xMDQuNywyMDUuNGgzNS43YzIuNSwwLDQuMiwwLjUsNS4yLDEuNWMwLjksMC44LDEuNSwyLDEuNSwzLjNjMC4yLDEuMywwLjQsMi42LDAuNywzLjkmIzEwOyYjOTsmIzk7JiM5O2MwLjMsMi4zLDAuNiw0LjcsMC45LDcuMmMwLjQsMi4zLDAuOCw0LjcsMS4xLDcuMmMxLjYsOS4yLDIuOSwxOC41LDMuOSwyOGMxLjIsOS41LDIuNiwxOC45LDQuMiwyOC4yYzAuNiwzLDEsNiwxLjMsOSYjMTA7JiM5OyYjOTsmIzk7YzAuMywzLDAuNyw2LDEuMyw5bDAuNCwyLjJjMC4xLDAuNywwLjUsMS4zLDEuMSwxLjhjMC4yLDAuMSwwLjUsMC4zLDAuNywwLjRjMC40LDAuMSwwLjgsMC4xLDEuMS0wLjJjMS4zLTAuNCwyLjMtMS40LDIuOC0yLjYmIzEwOyYjOTsmIzk7JiM5O2MwLjctMS41LDEuNS0yLjgsMi4yLTMuOWMxLjgtMy40LDMuNC02LjYsNS05LjhzMy4zLTYuNyw1LjItMTAuMWwxNC0yNi43YzQuOC05LDkuNi0xOC4xLDE0LjItMjcuMWMxLjItMi4zLDIuMy00LjYsMy41LTYuOCYjMTA7JiM5OyYjOTsmIzk7YzEuMy0yLjMsMi42LTQuNywzLjctN2MwLjYtMS4yLDEuMi0yLjMsMi0zLjVjMC44LTEuMiwxLjgtMi4yLDMuMS0yLjljMS0wLjcsMi4yLTEuMSwzLjUtMS4xaDM3LjZjMS4xLTAuMSwyLjIsMC4yLDMuMSwwLjkmIzEwOyYjOTsmIzk7JiM5O2MxLjUsMC45LDEuOSwyLjUsMS4zLDVzLTAuOSw0LjctMS4zLDcuMmwtNi41LDMyLjhsLTE2LjQsODEuM2wtMy43LDE5Yy0wLjMsMS42LTAuNiwzLjItMS4xLDQuOGMtMC4zLDEuMy0xLjEsMi41LTIuMiwzLjMmIzEwOyYjOTsmIzk7JiM5O2MtMSwwLjctMi4yLDEuMi0zLjUsMS4zaC0yMC44Yy0wLjktMC4zLTEuOS0wLjUtMi44LTAuN2MtMC44LTAuMi0xLjQtMC44LTEuOC0xLjVjLTAuNS0wLjktMC42LTEuOS0wLjQtMi44JiMxMDsmIzk7JiM5OyYjOTtjMC4zLTEuMiwwLjYtMi40LDAuOS0zLjdsMi4yLTExLjFsMTEuNC01Ni4yYzAuMy0yLDAuNi0zLjksMC45LTUuN2MwLjQtMS45LDAuOC0zLjgsMS4xLTUuN2wwLjktMy41YzAuMy0xLjIsMC40LTIuNSwwLjQtMy43JiMxMDsmIzk7JiM5OyYjOTtjLTAuMS0xLjEtMC4xLTIuMiwwLTMuM2MwLjMtMS4yLDAuMS0xLjktMC42LTIuMmMtMC40LTAuMi0wLjgtMC4xLTEuMSwwLjJsLTAuNywwLjdjLTAuOCwwLjYtMS41LDEuNC0yLDIuMmwtMS4zLDIuMiYjMTA7JiM5OyYjOTsmIzk7Yy0xLjMsMi4yLTIuNiw0LjQtMy45LDYuOGMtMS4yLDIuMy0yLjUsNC43LTMuOSw3Yy0wLjQsMC45LTAuOSwxLjgtMS4zLDIuNmMtMC4zLDAuOS0wLjgsMS44LTEuMywyLjZjLTEuMiwxLjktMi4zLDMuOC0zLjMsNS43JiMxMDsmIzk7JiM5OyYjOTtjLTAuOSwyLTEuOSwzLjgtMy4xLDUuN2MtMC4zLDAuNS0wLjUsMS0wLjcsMS41Yy0wLjIsMC41LTAuNCwwLjktMC43LDEuM2MtMC45LDEuMy0xLjcsMi43LTIuNCw0LjJjLTAuNiwxLjUtMS40LDMtMi40LDQuNCYjMTA7JiM5OyYjOTsmIzk7Yy0wLjksMS4zLTEuNywyLjctMi40LDQuMWMtMC42LDEuNS0xLjMsMy0yLjIsNC40Yy0yLjYsNC4yLTUsOC41LTcuMiwxMi45Yy0yLjIsNC4yLTQuNSw4LjUtNi44LDEyLjdjLTAuNCwwLjQtMC43LDAuOC0wLjksMS4zJiMxMDsmIzk7JiM5OyYjOTtjMCwwLjUtMC4zLDEtMC43LDEuM2MtMSwxLjYtMiwzLjMtMi44LDVjLTAuOCwxLjctMS42LDMuMy0yLjYsNC44Yy0wLjYsMS0xLjIsMi0xLjgsMi44Yy0wLjYsMC44LTEuMiwxLjYtMiwyLjImIzEwOyYjOTsmIzk7JiM5O2MtMC43LDAuNS0xLjUsMC45LTIuNCwxLjFjLTEsMC0xLjksMC4yLTIuOCwwLjRoLTVjLTEuMiwwLTIuNSwwLjEtMy43LDAuMkgxNDZjLTEuMiwwLTIuNS0wLjEtMy43LTAuMmMtMC45LDAtMS43LTAuMy0yLjQtMC45JiMxMDsmIzk7JiM5OyYjOTtjLTAuOS0wLjYtMS42LTEuNC0yLTIuNGMtMC4yLTEuMi0wLjUtMi40LTAuOS0zLjVjLTAuMy0xLjctMC41LTMuNS0wLjctNS4yYy0wLjEtMS44LTAuNC0zLjctMC45LTUuNWwtMC4yLTImIzEwOyYjOTsmIzk7JiM5O2MtMC40LTEuOC0wLjctMy42LTAuOS01LjVjLTAuMS0xLjktMC40LTMuOC0wLjktNS43di0xLjFjMC0wLjQtMC4xLTAuOS0wLjItMS4zYy0wLjQtMS4zLTAuNy0yLjctMC45LTQuMSYjMTA7JiM5OyYjOTsmIzk7Yy0wLjEtMS41LTAuNC0yLjktMC43LTQuNHYtMS4xYzAtMC40LTAuMS0wLjctMC4yLTEuMWMtMC4zLTEuNC0wLjUtMi45LTAuNi00LjRjMC0xLjUtMC4yLTMtMC43LTQuNGMtMC42LTIuOS0xLjEtNi0xLjUtOS4yJiMxMDsmIzk7JiM5OyYjOTtjLTAuMy0zLjItMC43LTYuMy0xLjMtOS40Yy0wLjYtMy42LTEuMS03LjQtMS41LTExLjFjLTAuMy0zLjctMS03LjQtMi0xMC45Yy0wLjItMS43LTAuNy0zLjQtMS4zLTVjLTAuMy0wLjMtMC42LTAuNS0wLjktMC42JiMxMDsmIzk7JiM5OyYjOTtjLTAuMS0wLjMtMC40LTAuMy0wLjksMGMtMC45LDAuNC0xLjUsMS4yLTEuNywyLjFjLTAuMiwxLjEtMC41LDIuMS0wLjksMy4xYy0wLjYsMS0wLjksMi4xLTEuMSwzLjNjLTAuMSwxLTAuMywyLjEtMC40LDMuMyYjMTA7JiM5OyYjOTsmIzk7Yy0wLjMsMS42LTAuNywzLjItMS4xLDQuOGMtMC4zLDEuNi0wLjcsMy4yLTEuMSw0LjhsLTExLjYsNTguMmwtMi4yLDEwLjdsLTAuOSwzLjVjLTAuMSwxLjEtMC42LDIuMS0xLjMsMi44JiMxMDsmIzk7JiM5OyYjOTtjLTAuOSwxLjEtMi4zLDEuOS0zLjcsMmMtMS4xLDAuMy0yLjIsMC40LTMuMywwLjRjLTEuMi0wLjEtMi4zLTAuMi0zLjUtMC4ySDcyLjNjLTEuMS0wLjEtMi4yLTAuNS0zLjEtMS4zJiMxMDsmIzk7JiM5OyYjOTtjLTAuOC0wLjktMS4xLTIuMS0wLjktMy4zbDAuOS00LjhsMy43LTE5LjNsMTYuNC04MS4zbDYuMS0zMC42YzAuMS0wLjksMC4zLTEuOSwwLjQtMy4xYzAuMy0xLjMsMC42LTIuNiwwLjktMy43czAuNi0yLjMsMC45LTMuMyYjMTA7JiM5OyYjOTsmIzk7YzAuMy0wLjksMC43LTEuOCwxLjEtMi42YzEtMS4xLDIuNC0xLjksMy45LTIuMmMwLjQtMC4xLDAuNy0wLjEsMC45LDBDMTAzLjksMjA1LjYsMTA0LjMsMjA1LjYsMTA0LjcsMjA1LjRMMTA0LjcsMjA1LjR6IiBpZD0icGF0aDQzMTciLz4mI3hhOwkJPHBhdGggZD0iTTM2NiwzNTIuNmMwLDEuNi0wLjEsMy4yLTAuNCw0LjhjLTAuMiwxLjUtMS4zLDIuOC0yLjgsMy4zYy0xLDAuNC0yLjIsMC43LTMuMywwLjdoLTE5LjImIzEwOyYjOTsmIzk7JiM5O2MtMS0wLjEtMS45LTAuNS0yLjYtMS4xYy0wLjktMC42LTEuNS0xLjQtMS44LTIuNGMtMC4yLTEuMS0wLjgtMi4xLTEuNS0yLjljLTAuMy0wLjMtMC43LTAuNS0xLjEtMC42Yy0wLjQtMC4zLTEtMC40LTEuNS0wLjImIzEwOyYjOTsmIzk7JiM5O2MtMC44LDAuMy0xLjYsMC42LTIuNCwxLjFjLTAuNywwLjQtMS40LDAuOC0yLjIsMS4xYy0wLjksMC42LTEuOCwxLjEtMi44LDEuNWMtMC45LDAuNC0xLjgsMC45LTIuOCwxLjNjLTIuMSwwLjktNC4yLDEuNi02LjMsMi4yJiMxMDsmIzk7JiM5OyYjOTtjLTIuMiwwLjQtNC40LDAuOS02LjYsMS41Yy0xLjEsMC4zLTIuMiwwLjQtMy4zLDAuNGMtMC45LDAuMS0xLjgsMC4zLTIuOCwwLjRoLTEuM2MtMC40LDAuMS0wLjksMC4yLTEuMywwLjJoLTIuNCYjMTA7JiM5OyYjOTsmIzk7Yy0xLjQsMC4zLTIuOSwwLjMtNC40LDBoLTJjLTEtMC4zLTItMC40LTMuMS0wLjRjLTAuOSwwLjEtMS44LDAuMS0yLjYtMC4ybC0zLjktMC44Yy0xLjItMC4xLTIuNC0wLjUtMy41LTEuMSYjMTA7JiM5OyYjOTsmIzk7Yy0zLjYtMS40LTYuOS0zLjUtOS42LTYuMWMtMi42LTIuOS00LjMtNi40LTUtMTAuM2MtMC4zLTEuMS0wLjUtMi4yLTAuNi0zLjNjMC0xLjItMC4xLTIuNS0wLjItMy43Yy0wLjEtMC43LTAuMS0xLjUsMC0yLjImIzEwOyYjOTsmIzk7JiM5O2MwLjMtMC43LDAuNC0xLjQsMC40LTIuMmMwLTAuNCwwLjEtMS4zLDAuMi0yLjZjMC4yLTEuMSwwLjUtMi4xLDAuOS0zLjFjMC41LTEuMiwwLjktMi40LDEuMS0zLjdsMi4yLTQuOCYjMTA7JiM5OyYjOTsmIzk7YzAuOC0xLjYsMS43LTMuMiwyLjgtNC42YzIuOC0zLjksNi4zLTcuMSwxMC4zLTkuN2M0LjItMi40LDguOC00LjQsMTMuNS01LjdjMi0wLjcsNC0xLjIsNi4xLTEuNWMyLTAuMyw0LjItMC42LDYuMy0xLjEmIzEwOyYjOTsmIzk7JiM5O2MxLjItMC4zLDIuNS0wLjQsMy43LTAuNGMxLjQtMC4xLDIuOC0wLjMsNC4xLTAuNmMxLTAuMywyLTAuNCwzLjEtMC4yYzEuMiwwLDIuNC0wLjIsMy41LTAuNGMxLTAuMywyLTAuNCwzLjEtMC40JiMxMDsmIzk7JiM5OyYjOTtjMS4xLDAsMi4yLTAuMiwzLjMtMC40YzMuMi0wLjcsNi4xLTEuMyw4LjgtMS44YzIuOS0wLjcsNS42LTIsNy45LTMuOWMxLjQtMS4yLDIuNi0yLjcsMy41LTQuNGMwLjEtMC40LDAuMi0wLjcsMC4yLTEuMSYjMTA7JiM5OyYjOTsmIzk7YzAtMC4zLDAuMS0wLjYsMC4yLTAuOWMwLjMtMC40LDAuNS0wLjgsMC40LTEuM2MwLjEtMC41LDAuMi0wLjksMC40LTEuM3YtMy4zYy0wLjYtNC40LTMuMS03LjQtNy40LTljLTEuNS0wLjUtMy0wLjgtNC42LTAuOSYjMTA7JiM5OyYjOTsmIzk7Yy0xLjgtMC4zLTMuNi0wLjQtNS41LTAuMmMtMS45LDAtMy44LDAuMS01LjcsMC40Yy0xLjYsMC4yLTMuMSwwLjYtNC42LDEuMWMtMSwwLjMtMiwwLjctMi44LDEuM2MtMC45LDAuNS0xLjgsMS0yLjYsMS41JiMxMDsmIzk7JiM5OyYjOTtjLTEsMC43LTIsMS41LTIuOSwyLjRjLTAuOSwwLjgtMS42LDEuOC0yLjIsMi44Yy0wLjksMS4zLTEuOCwyLjctMi42LDQuMWMtMC44LDEuNC0yLjIsMi4zLTMuNywyLjZjLTEuMiwwLjMtMi41LDAuNC0zLjcsMC40JiMxMDsmIzk7JiM5OyYjOTtoLTEyLjJjLTAuOCwwLTEuNiwwLjEtMi40LDAuMmMtMC42LDAtMS4yLTAuMS0xLjgtMC4yaC0yYy0wLjMtMC4xLTAuNy0wLjItMS4xLTAuMmMtMC40LDAtMC44LTAuMi0xLjEtMC40JiMxMDsmIzk7JiM5OyYjOTtjLTEtMC4zLTEuNi0xLjItMS44LTIuOGMwLTAuOCwwLjItMS41LDAuNC0yLjJjMC4zLTAuNywwLjYtMS40LDAuOS0yYzAuNy0xLjYsMS41LTMuMSwyLjItNC40YzAuOC0xLjQsMS43LTIuNywyLjYtMy45bDEuOC0yLjImIzEwOyYjOTsmIzk7JiM5O2wxLjgtMi4yYzEuNi0xLjcsMy4zLTMuMiw1LjItNC42YzAuNi0wLjIsMS4xLTAuNiwxLjUtMS4xYzAuOS0wLjYsMS42LTEuMSwyLjItMS41czEuNS0wLjksMi40LTEuM2MyLjctMS42LDUuNS0yLjgsOC41LTMuNyYjMTA7JiM5OyYjOTsmIzk7YzMuMS0xLDYuMS0yLDkuMi0yLjhjMS45LTAuNCwzLjgtMC43LDUuNy0wLjljMi0wLjIsNC0wLjQsNS45LTAuOWMwLjktMC4yLDEuOC0wLjIsMi42LDBjMC44LDAuMiwxLjYsMC4xLDIuNC0wLjImIzEwOyYjOTsmIzk7JiM5O2M1LjYtMC4yLDExLjIsMC4xLDE2LjgsMC42YzQuOSwwLjUsOS42LDEuNiwxNC4yLDMuM2MzLjksMS40LDcuNCwzLjYsMTAuMyw2LjZjMi45LDIuOCw0LjgsNi40LDUuNSwxMC4zYzAuNCwyLjgsMC40LDUuNywwLDguNSYjMTA7JiM5OyYjOTsmIzk7Yy0wLjQsMy4yLTEsNi41LTEuOCw5LjhsLTkuOCw0OC44Yy0wLjQsMi44LTAuOSw1LjYtMS41LDguNWMtMC42LDIuNS0wLjgsNS4xLTAuNiw3LjZjMCwwLjUtMC4xLDEtMC4yLDEuNUwzNjYsMzUyLjZMMzY2LDM1Mi42eiYjMTA7JiM5OyYjOTsmIzk7IE0zNDAuNiwzMTguOWMwLjMtMC44LDAuNS0xLjYsMC42LTIuNGMwLjEtMC45LDAuMi0xLjcsMC4yLTIuNmMwLTAuOCwwLjEtMS42LDAuMi0yLjRjMC4yLTAuNy0wLjEtMS40LTAuNy0xLjgmIzEwOyYjOTsmIzk7JiM5O2MtMC45LTAuNy0yLTEtMy4xLTAuOWMtMC42LDAuMS0xLjEsMC4zLTEuNSwwLjRjLTAuNiwwLTEuMiwwLjEtMS44LDAuMmMtMS4xLDAuMy0yLjIsMC41LTMuMywwLjdjLTEuMiwwLjEtMi40LDAuNC0zLjcsMC42JiMxMDsmIzk7JiM5OyYjOTtjLTAuNywwLjItMS4zLDAuMy0yLDAuMmMtMS45LDAuNC0zLjksMC43LTUuOSwwLjljLTEuOSwwLjItMy44LDAuNS01LjcsMS4xbC0zLjUsMC45Yy0xLjEsMC4yLTIuMSwwLjUtMy4xLDAuOSYjMTA7JiM5OyYjOTsmIzk7Yy0zLjQsMS4zLTYuNCwzLjMtOSw1LjljLTIuNiwyLjYtNC4xLDYuMy00LjYsMTAuOWMtMC4yLDIuMSwwLjIsNC4zLDEuMyw2LjFjMC43LDEuNywyLDMuMSwzLjcsMy45YzIsMC45LDQuMiwxLjYsNi4zLDImIzEwOyYjOTsmIzk7JiM5O2MyLjUsMC40LDQuOSwwLjYsNy40LDAuNGMyLjctMC4zLDUuMy0wLjgsNy45LTEuNWMzLjctMSw3LjItMi45LDEwLjEtNS41YzIuOS0yLjgsNS4yLTYsNy05LjZjMC40LTEsMC44LTIsMS4xLTMuMSYjMTA7JiM5OyYjOTsmIzk7YzAuMy0xLjIsMC43LTIuNCwxLjMtMy41TDM0MC42LDMxOC45TDM0MC42LDMxOC45eiIgaWQ9InBhdGg0MzE5Ii8+JiN4YTsJCTxwYXRoIGQ9Ik00MDUuOCwyNDguNWgxNmMxLjUsMCwzLjEsMC4xLDQuNiwwLjJjMS4yLTAuMSwyLjQsMC4yLDMuNSwwLjljMS41LDEsMi4yLDIuOSwyLjIsNS43JiMxMDsmIzk7JiM5OyYjOTtjMC4xLDIuNCwwLjQsNC43LDAuOSw3YzAuNiw0LjgsMS4xLDkuOCwxLjUsMTQuOWMwLjQsNSwxLDkuOSwxLjUsMTQuOWMwLjYsMy41LDEsNy4xLDEuMywxMC43YzAuMywzLjYsMC43LDcuMSwxLjMsMTAuNSYjMTA7JiM5OyYjOTsmIzk7YzAuMSwxLjMsMC4zLDIuNywwLjQsNC4xYzAuMiwxLjQsMS41LDIuNCwyLjgsMi4yYzAuMy0wLjIsMC42LTAuNCwwLjktMC40bDAuNi0wLjdjMC42LTAuNywxLjEtMS40LDEuNS0yLjImIzEwOyYjOTsmIzk7JiM5O2MwLjQtMC43LDAuOS0xLjUsMS4zLTIuNGMxLjEtMS41LDItMy4yLDIuNi01YzAuNy0xLjcsMS42LTMuNCwyLjYtNWMzLjItNi4xLDYuMy0xMi4yLDkuNC0xOC40YzMuMS02LjMsNi4yLTEyLjUsOS40LTE4LjYmIzEwOyYjOTsmIzk7JiM5O2MxLjEtMS43LDIuMS0zLjQsMi45LTUuMmMwLjktMS45LDEuNy0zLjYsMi42LTUuMmwxLjgtMy41YzAuNy0xLjEsMS42LTIuMSwyLjYtMi44YzEtMC41LDItMSwzLjEtMS4zYzAuOS0wLjMsMS45LTAuNCwyLjktMC4yJiMxMDsmIzk7JiM5OyYjOTtoMTMuNWMxLjUsMCwyLjksMC4xLDQuNCwwLjJjMS4xLTAuMSwyLjMsMC4zLDMuMSwxLjFjMC43LDAuNywwLjgsMS44LDAuMiwzLjNjLTAuNCwxLjEtMC44LDIuMi0xLjMsMy4zYy0xLjIsMi0yLjMsNC4yLTMuNSw2LjYmIzEwOyYjOTsmIzk7JiM5O3MtMi4zLDQuMy0zLjUsNi4zYy0wLjYsMS0xLjEsMi0xLjUsMy4xYy0wLjQsMC45LTAuOSwxLjgtMS4zLDIuNmMtMSwxLjYtMiwzLjItMi44LDQuOGMtMC45LDEuNi0xLjgsMy4yLTIuNiw0LjgmIzEwOyYjOTsmIzk7JiM5O2MtMC4yLDAuNS0wLjQsMS0wLjcsMS41Yy0wLjIsMC41LTAuNCwwLjktMC43LDEuM2MtMS4zLDIuMi0yLjYsNC40LTMuNyw2LjhsLTMuNSw2LjVjLTIuNSw0LjQtNC45LDguOS03LjIsMTMuNiYjMTA7JiM5OyYjOTsmIzk7Yy0yLjMsNC41LTQuOCw5LTcuNCwxMy4zYy0xLjIsMi0yLjMsNC4xLTMuMyw2LjFjLTAuOSwxLjktMS45LDMuOS0zLjEsNS45Yy0wLjQsMC43LTAuOCwxLjQtMS4xLDJzLTAuNywxLTEuMSwxLjgmIzEwOyYjOTsmIzk7JiM5O2MtMC45LDEuNi0xLjcsMy4zLTIuNiw1Yy0wLjgsMS43LTEuNiwzLjMtMi42LDQuOGMtMSwxLjYtMiwzLjEtMi44LDQuNmMtMC45LDEuMy0yLjIsMi4zLTMuNywyLjhjLTEuMywwLjQtMi42LDAuNy0zLjksMC43JiMxMDsmIzk7JiM5OyYjOTtjLTEuMy0wLjEtMi42LTAuMi0zLjktMC4yaC0xOWMtMS4zLDAtMi42LTAuMy0zLjctMC45Yy0wLjgtMC43LTEuNC0xLjYtMS44LTIuNmMtMC4xLTEuMi0wLjMtMi40LTAuNC0zLjcmIzEwOyYjOTsmIzk7JiM5O2MtMC40LTEuOC0wLjgtMy42LTEuMS01LjVzLTAuNC0zLjctMC43LTUuNWMtMC4xLTAuNS0wLjItMS0wLjItMS41YzAtMC43LTAuMS0xLjMtMC4yLTJjLTAuNC0xLjgtMC43LTMuNi0wLjktNS41JiMxMDsmIzk7JiM5OyYjOTtjLTAuMS0xLjktMC40LTMuOC0wLjktNS43Yy0wLjEtMC43LTAuMi0xLjMtMC4yLTJjMC0wLjctMC4xLTEuNS0wLjItMi4yYy0wLjMtMS4zLTAuNS0yLjYtMC42LTMuOWMtMC4xLTEuNC0wLjQtMi44LTAuNy00LjEmIzEwOyYjOTsmIzk7JiM5O2MtMC4xLTAuNC0wLjItMC45LTAuMi0xLjNjMC4yLTAuNSwwLjItMSwwLTEuNWMtMC4zLTEuMy0wLjUtMi42LTAuNy0zLjljLTAuMS0xLjMtMC40LTIuNy0wLjYtNC4xYy0wLjYtMy40LTEuMS02LjgtMS41LTEwLjMmIzEwOyYjOTsmIzk7JiM5O3MtMC45LTcuMi0xLjMtMTAuN2MtMC45LTMuOS0xLjUtNy44LTItMTEuOGMtMC4zLTQtMC44LTgtMS41LTEybC0wLjctNS45Yy0wLjItMC41LTAuMi0xLTAuMi0xLjVjMC4xLTAuNywwLjQtMS40LDAuOS0yJiMxMDsmIzk7JiM5OyYjOTtjMC44LTEuMiwyLjEtMiwzLjUtMi4yQzQwNC44LDI0OC44LDQwNS4zLDI0OC43LDQwNS44LDI0OC41TDQwNS44LDI0OC41eiIgY2xhc3M9InN0MSIgaWQ9InBhdGg0MzIxIi8+JiN4YTsJCTxwYXRoIGQ9Ik02MTkuNSwzMDMuOGMwLDEuNC0wLjMsMi43LTAuOSwzLjljLTAuNCwxLjItMS4xLDIuMi0yLjIsMi44Yy0xLDAuNy0yLjEsMS4xLTMuMywxLjMmIzEwOyYjOTsmIzk7JiM5O2MtMS41LDAuMS0zLjEsMC4zLTQuOCwwLjRoLTVjLTEuNi0wLjEtMy4xLTAuMi00LjQtMC4yaC01Ni40Yy0wLjgsMC0xLjYsMC4xLTIuNCwwLjRjLTEsMC40LTEuOSwxLTIuNiwxLjgmIzEwOyYjOTsmIzk7JiM5O2MtMC41LDAuNS0wLjksMS4xLTEuMywxLjhjLTAuNCwwLjctMC42LDEuNC0wLjcsMi4yYzAuMiwwLjksMC4yLDEuOCwwLDIuNmMwLDAuOCwwLjEsMS42LDAuMiwyLjRjMC4zLDMsMS4xLDYsMi40LDguOCYjMTA7JiM5OyYjOTsmIzk7YzEuNSwyLjMsMy40LDQuNCw1LjcsNS45YzEsMC43LDIuMSwxLjIsMy4zLDEuNWMxLjMsMC4xLDIuNSwwLjQsMy43LDAuOWMxLjUsMC4zLDMsMC42LDQuNiwwLjZjMS44LDAuMiwzLjcsMC4xLDUuNS0wLjJoMiYjMTA7JiM5OyYjOTsmIzk7YzEuNS0wLjMsMi44LTAuNiw0LjItMC45bDMuOS0xLjNjMS42LTAuNywzLjQtMS43LDUuNS0yLjhjMS43LTEsMy40LTIuMSw0LjgtMy41YzAuOS0xLDEuOC0yLDIuOC0yLjljMC45LTEsMi0xLjcsMy4zLTIuMiYjMTA7JiM5OyYjOTsmIzk7YzEuOC0wLjgsMy43LTEuMSw1LjctMC45aDljMC45LTAuMiwxLjgtMC4xLDIuNiwwLjJoMi4yYzEsMC4yLDIsMC41LDIuOCwxLjFjMC40LDAuMywwLjYsMC45LDAuNCwyYzAsMC45LTAuMiwxLjgtMC43LDIuNiYjMTA7JiM5OyYjOTsmIzk7Yy0xLjEsMS45LTIuMywzLjctMy43LDUuNWMtMS4yLDEuNy0yLjUsMy4zLTMuOSw0LjhjLTMuNyw0LjUtOC4yLDguNC0xMy4xLDExLjZjLTUuMywzLjItMTAuOSw1LjctMTYuOCw3LjQmIzEwOyYjOTsmIzk7JiM5O2MtMS42LDAuNi0zLjMsMC45LTUsMS4xYy0xLjgsMC4yLTMuNSwwLjUtNS4yLDAuOWMtMC43LDAuMi0xLjMsMC4yLTIsMGMtMC42LDAtMS4yLDAuMS0xLjgsMC4yaC0yLjRjLTAuOCwwLjMtMS43LDAuNC0yLjYsMC4yJiMxMDsmIzk7JiM5OyYjOTtjLTAuOCwwLTEuNi0wLjEtMi40LTAuMmMtMS0wLjItMi0wLjItMy4xLDBjLTEsMC4xLTEuOSwwLjEtMi44LTAuMmMtMC44LTAuMy0xLjYtMC40LTIuNC0wLjRjLTAuOCwwLTEuNS0wLjEtMi4yLTAuNCYjMTA7JiM5OyYjOTsmIzk7Yy0xLjYtMC4zLTMuMi0wLjctNC44LTEuMWMtMS40LTAuMy0yLjctMC44LTMuOS0xLjVjLTEuNS0wLjYtMi44LTEuMS00LjEtMS41Yy0xLjItMC41LTIuNC0xLjItMy41LTJjLTQtMi44LTcuNS02LjItMTAuNi0xMC4xJiMxMDsmIzk7JiM5OyYjOTtjLTIuOC00LjEtNC45LTguNy02LjEtMTMuNmMtMC40LTEuNi0wLjctMy4yLTAuOS00LjhjMC0xLjgtMC4yLTMuNS0wLjctNS4ydi0xLjVjMC4xLTAuNiwwLjItMS4yLDAuMi0xLjhjLTAuMi0xLjktMC4yLTMuOCwwLTUuNyYjMTA7JiM5OyYjOTsmIzk7bDAuOS02LjFjMC4yLTAuOCwwLjItMS42LDAuMi0yLjRjMC4xLTAuOCwwLjQtMS42LDAuNy0yLjRsMC42LTIuNmwxLjgtNS4yYzEtMi41LDItNC45LDIuOS03LjJjMC45LTIuMywyLTQuNSwzLjMtNi41JiMxMDsmIzk7JiM5OyYjOTtjOC44LTE0LjcsMjIuNC0yNi4xLDM4LjUtMzIuMWMyLjEtMC45LDQuMy0xLjQsNi42LTEuOGMyLjItMC40LDQuNS0xLDctMS41YzEuMS0wLjEsMi4yLTAuMiwzLjMtMC4yczIuMi0wLjEsMy4zLTAuMiYjMTA7JiM5OyYjOTsmIzk7YzcuNC0wLjIsMTMuNiwwLjcsMTguNiwyLjZjNC43LDEuNiw5LDQsMTIuOSw3YzEuMiwwLjksMi4zLDEuOSwzLjMsMy4xYzEuMSwwLjksMi4xLDIuMSwyLjgsMy4zYzAuMywwLjcsMC44LDEuNCwxLjUsMS44JiMxMDsmIzk7JiM5OyYjOTtjMC45LDEuNiwxLjYsMy4zLDIuMiw1YzAuNywxLjYsMS41LDMuMywyLjQsNWMwLjQsMS4zLDAuNywyLjcsMC45LDQuMWMwLjMsMS4zLDAuNiwyLjgsMC45LDQuNGMwLjMsMiwwLjQsMy45LDAuNCw1LjkmIzEwOyYjOTsmIzk7JiM5O2MwLjIsMiwwLjMsNC4xLDAuNCw2LjFjMCwxLjMtMC4zLDIuNy0wLjcsMy45Yy0wLjMsMS4yLTAuNCwyLjUtMC4yLDMuN0w2MTkuNSwzMDMuOEw2MTkuNSwzMDMuOHogTTU4OS4yLDI5MC45JiMxMDsmIzk7JiM5OyYjOTtjMS4zLTEuNCwxLjgtMy40LDEuMy01LjJjLTAuMy0yLjItMC41LTMuOC0wLjctNC44Yy0xLjEtMy42LTMuMy02LjgtNi4zLTljLTIuOS0yLjItNy4zLTMuMy0xMy4zLTMuNWMtMC41LDAuMy0xLDAuNC0xLjUsMC4yJiMxMDsmIzk7JiM5OyYjOTtjLTAuNS0wLjItMS0wLjItMS41LDBjLTAuOSwwLjMtMS43LDAuNS0yLjYsMC42Yy0wLjgsMC0xLjYsMC4xLTIuNCwwLjRjLTYuOCwyLTEyLjYsNi4yLTE2LjYsMTJjLTAuNiwwLjgtMS4xLDEuNi0xLjUsMi40JiMxMDsmIzk7JiM5OyYjOTtjLTAuNiwwLjktMSwxLjgtMS4zLDIuOGMtMC4zLDAuOC0wLjQsMS43LTAuNCwyLjZjMCwwLjksMC40LDEuNywxLjEsMi4yYzEuNCwwLjgsMywxLjIsNC42LDEuMWgzNi41JiMxMDsmIzk7JiM5OyYjOTtDNTg2LjcsMjkyLjcsNTg4LjMsMjkyLjEsNTg5LjIsMjkwLjlMNTg5LjIsMjkwLjl6IiBpZD0icGF0aDQzMjMiLz4mI3hhOwkJPHBhdGggZD0iTTcxMy44LDI0NS43YzguOC0wLjMsMTUuOCwxLDIxLDMuN2M1LjIsMi41LDkuMiw2LjksMTEuNCwxMi4yYzAuNywxLjcsMS4yLDMuNCwxLjMsNS4yJiMxMDsmIzk7JiM5OyYjOTtjMC4zLDEuOCwwLjUsMy42LDAuNyw1LjVjMC4yLDEuMSwwLjIsMi4yLDAsMy4zYy0wLjIsMS0wLjIsMiwwLDMuMWMtMC4zLDAuNS0wLjMsMS4yLTAuMiwxLjhjLTAuMiwyLjEtMC40LDQuMi0wLjksNi4zJiMxMDsmIzk7JiM5OyYjOTtjLTAuNCwyLjItMC45LDQuMy0xLjMsNi4zbC0zLjcsMTkuNWwtNy4yLDM1LjRjLTAuNiwyLjgtMS4yLDUuNS0xLjgsOC4xYy0wLjQsMi4zLTIsNC4xLTQuMiw0LjhjLTEsMC4zLTIsMC41LTMuMSwwLjRoLTE1LjMmIzEwOyYjOTsmIzk7JiM5O2MtMS41LDAtMy4xLTAuMS00LjYtMC4yYy0xLjItMC4yLTIuMi0wLjktMi44LTJjLTAuNS0xLTAuNi0yLjItMC40LTMuM2MwLjMtMS41LDAuNi0zLDAuOS00LjZsMy4xLTE1LjNsNi42LTMyLjYmIzEwOyYjOTsmIzk7JiM5O2MxLTUuNCwxLjctMTAuNCwyLjItMTQuOWMwLjYtNC43LDAuMS04LjYtMS41LTExLjhjLTEuNi0zLTQuNC01LjItNy43LTYuMWMtMC44LTAuMy0xLjYtMC40LTIuNC0wLjRjLTAuOCwwLTEuNS0wLjItMi4yLTAuNCYjMTA7JiM5OyYjOTsmIzk7Yy0wLjktMC4yLTEuOS0wLjItMi44LDBjLTAuOCwwLTEuNiwwLjEtMi40LDAuMmMtMC42LDAuMS0xLjIsMC4yLTEuOCwwLjJjLTAuNCwwLTAuOSwwLjEtMS4zLDAuMmMtMy4xLDAuNy02LDEuOS04LjcsMy41JiMxMDsmIzk7JiM5OyYjOTtjLTUuNCwzLjQtOS40LDguNi0xMS40LDE0LjZjLTIuMiw3LjEtNCwxNC4zLTUuNSwyMS42bC01LjUsMjcuM2wtMi42LDEzLjNsLTAuOSwzLjljLTAuMiwxLjItMC43LDIuMy0xLjMsMy4zJiMxMDsmIzk7JiM5OyYjOTtjLTAuOSwxLjUtMi40LDIuNi00LjIsMi44Yy0yLDAuMy0zLjksMC41LTUuOSwwLjRoLTEwLjljLTEuNiwwLTMuMi0wLjEtNC44LTAuMnMtMi42LTAuNy0zLjEtMS41Yy0wLjktMS4zLTEtMy4yLTAuNC01LjcmIzEwOyYjOTsmIzk7JiM5O3MxLjEtNC44LDEuNS03bDUuOS0yOS43bDkuNi00OC4xbDIuNC0xMS4xYzAuMy0xLjYsMC42LTMuMSwwLjktNC40YzAuMy0xLjMsMS0yLjQsMi0zLjNjMC40LTAuNSwwLjktMC44LDEuNS0wLjkmIzEwOyYjOTsmIzk7JiM5O2MwLjctMC4zLDEuNC0wLjUsMi4yLTAuN2gxLjFjMC43LTAuMSwxLjUtMC4yLDIuMi0wLjJINjY5YzEuMSwwLDIuMiwwLjEsMy4zLDAuMmMxLDAsMi4xLDAuMSwzLjEsMC40YzAuOCwwLjQsMS40LDEuMSwxLjUsMiYjMTA7JiM5OyYjOTsmIzk7YzAuMywxLDAuNSwyLDAuNCwzLjFjMCwwLjUtMC4xLDEtMC4yLDEuNWMtMC4xLDAuNC0wLjEsMC45LDAsMS4zYzAuMSwwLjUsMC4yLDAuOSwwLjQsMS4zYzAuNCwwLjIsMC43LDAuNCwxLjEsMC43JiMxMDsmIzk7JiM5OyYjOTtjMS41LDAuMSwzLjEtMC40LDQuMi0xLjVjMS4yLTEuMiwyLjUtMi4yLDMuOS0zLjFjNC41LTIuOSw5LjQtNS4zLDE0LjQtN2MxLjQtMC40LDIuNy0wLjcsNC4yLTAuOWMxLjUtMC4xLDMuMS0wLjQsNC44LTAuNiYjMTA7JiM5OyYjOTsmIzk7YzAuNy0wLjIsMS4zLTAuMiwyLDBDNzEyLjcsMjQ1LjksNzEzLjMsMjQ1LjgsNzEzLjgsMjQ1Ljd6IiBpZD0icGF0aDQzMjUiLz4mI3hhOwk8L2c+JiN4YTsJPGcgaWQ9InRleHQ5MTEyIj4mI3hhOwkJPHBhdGggZD0iTTc2OCwyNDUuNGMwLjIsMC4xLDAuMiwwLjQsMC4yLDAuN2MwLDAuNC0wLjEsMC43LTAuMiwxdjAuNGMtMC4xLDAuMi0wLjIsMC41LTAuNCwwLjcmIzEwOyYjOTsmIzk7JiM5O2MtMC4yLDAuMi0wLjMsMC4zLTAuNiwwLjRjLTAuNCwwLjEtMC43LDAuMS0xLjEsMC4xYy0wLjUsMC0wLjksMC0xLjIsMGgtMC43Yy0wLjEsMC0wLjMsMC0wLjQsMGMtMC4xLDAtMC4yLDAtMC4zLDAmIzEwOyYjOTsmIzk7JiM5O2MtMC40LDAuMi0wLjcsMC41LTAuOCwwLjhjLTAuMSwwLjItMC4xLDAuMy0wLjIsMC41bC0wLjEsMC42bC0yLjEsMTAuM2MwLDAuMSwwLDAuMywwLDAuNGMwLDAuMSwwLDAuMi0wLjEsMC40bC0wLjEsMC40bC0wLjEsMC4zJiMxMDsmIzk7JiM5OyYjOTtjMCwwLjEsMCwwLjItMC4xLDAuMmMtMC4xLDAuMi0wLjMsMC40LTAuNiwwLjVjLTAuMiwwLjEtMC4zLDAuMS0wLjUsMC4xaC0yYy0wLjQsMC0wLjctMC4xLTEtMC40Yy0wLjEtMC4yLTAuMS0wLjQtMC4xLTAuNiYjMTA7JiM5OyYjOTsmIzk7YzAuMS0wLjIsMC4xLTAuNSwwLjItMC44bDIuMS0xMC4zbDAuMS0wLjRjMC0wLjEsMC0wLjMsMC0wLjRsMC4xLTAuNmMwLTAuNS0wLjEtMC44LTAuNC0wLjljLTAuNC0wLjItMC44LTAuMi0xLjItMC4yJiMxMDsmIzk7JiM5OyYjOTtjLTAuNSwwLTAuOSwwLTEuMywwYy0wLjEsMC0wLjMsMC0wLjQsMGMtMC4xLDAtMC4yLDAtMC4zLDBjLTAuMSwwLTAuMiwwLTAuMywwYy0wLjEsMC0wLjIsMC0wLjMsMGMtMC4zLTAuMS0wLjQtMC40LTAuNC0wLjcmIzEwOyYjOTsmIzk7JiM5O2MwLTAuNCwwLjEtMC44LDAuMi0xLjFjMC0wLjIsMC4xLTAuMywwLjEtMC41YzAuMS0wLjEsMC4xLTAuMywwLjItMC40YzAuMS0wLjEsMC4yLTAuMiwwLjMtMC4zYzAuMS0wLjEsMC4zLTAuMiwwLjQtMC4yJiMxMDsmIzk7JiM5OyYjOTtjMC4xLDAsMC4xLDAsMC4yLDBjMC4xLDAsMC4xLDAsMC4yLDBoMTEuN2MwLjIsMCwwLjUsMCwwLjcsMEM3NjcuNiwyNDUuMyw3NjcuOCwyNDUuMyw3NjgsMjQ1LjRMNzY4LDI0NS40eiBNNzkxLjIsMjQ1LjUmIzEwOyYjOTsmIzk7JiM5O2MwLjEsMC4yLDAuMiwwLjUsMC4xLDAuN2MwLDAuMy0wLjEsMC42LTAuMSwwLjlsLTIuOCwxNC4yYy0wLjEsMC4zLTAuMSwwLjYtMC4yLDAuOWMtMC4xLDAuMi0wLjIsMC40LTAuMywwLjYmIzEwOyYjOTsmIzk7JiM5O2MtMC4zLDAuMy0wLjYsMC40LTEsMC40aC0xLjJjLTAuMiwwLTAuNCwwLTAuNiwwYy0wLjIsMC0wLjMsMC0wLjQtMC4xYy0wLjIsMC0wLjQtMC4yLTAuNS0wLjRjMC0wLjIsMC0wLjQsMC0wLjdsMC4xLTAuNyYjMTA7JiM5OyYjOTsmIzk7YzAtMC4xLDAtMC4yLDAtMC4zbDAuMS0wLjRsMS4xLTUuNWMwLTAuNCwwLjEtMC43LDAuMi0xYzAuMS0wLjMsMC4xLTAuNywwLjEtMWMwLTAuMSwwLTAuMiwwLTAuNGMwLTAuMSwwLTAuMi0wLjEtMC4zJiMxMDsmIzk7JiM5OyYjOTtjMCwwLTAuMSwwLTAuMSwwYy0wLjEsMC4xLTAuMiwwLjEtMC4zLDAuMmMtMC4zLDAuNC0wLjYsMC44LTAuOCwxLjJjLTAuMiwwLjQtMC41LDAuOS0wLjcsMS4zYy0wLjUsMC45LTEsMS44LTEuNSwyLjgmIzEwOyYjOTsmIzk7JiM5O3MtMSwxLjgtMS41LDIuN2MtMC4yLDAuNC0wLjUsMC45LTAuOCwxLjRjLTAuMiwwLjQtMC41LDAuOC0wLjksMS4xYy0wLjIsMC4xLTAuNCwwLjItMC42LDAuMmgtMS40Yy0wLjEtMC4xLTAuMy0wLjEtMC40LTAuMSYjMTA7JiM5OyYjOTsmIzk7Yy0wLjEtMC4xLTAuMi0wLjEtMC4zLTAuMmMtMC4xLTAuMS0wLjItMC4yLTAuMi0wLjRMNzc2LDI2MmMtMC4xLTAuMy0wLjEtMC41LTAuMi0wLjhjMC0wLjMtMC4xLTAuNi0wLjEtMC45JiMxMDsmIzk7JiM5OyYjOTtjLTAuMi0wLjktMC4zLTEuNy0wLjQtMi42cy0wLjMtMS44LTAuNC0yLjZjLTAuMS0wLjUtMC4yLTEtMC4zLTEuNWMwLTAuNS0wLjItMC45LTAuNS0xLjNjMCwwLTAuMSwwLTAuMSwwaC0wLjEmIzEwOyYjOTsmIzk7JiM5O2MtMC4xLDAuMS0wLjIsMC4yLTAuMywwLjRjLTAuMSwwLjEtMC4xLDAuMy0wLjIsMC40YzAsMC4xLDAsMC4zLTAuMSwwLjRsLTAuMSwwLjdjLTAuMSwwLjEtMC4xLDAuMi0wLjEsMC40YzAsMC4xLDAsMC4yLDAsMC4zJiMxMDsmIzk7JiM5OyYjOTtsLTEsNS4xYy0wLjEsMC40LTAuMiwwLjgtMC4zLDEuNGMwLDAuNC0wLjIsMC44LTAuNCwxLjFjLTAuMSwwLjEtMC4yLDAuMS0wLjMsMC4yYy0wLjEsMC4xLTAuMSwwLjEtMC4yLDAuMSYjMTA7JiM5OyYjOTsmIzk7Yy0wLjIsMC4xLTAuMywwLjEtMC41LDAuMWgtMS43Yy0wLjMsMC0wLjYtMC4xLTAuOS0wLjNjLTAuMi0wLjEtMC4yLTAuMy0wLjItMC42YzAtMC4zLDAuMS0wLjYsMC4xLTAuOWwyLjktMTQuNCYjMTA7JiM5OyYjOTsmIzk7YzAuMS0wLjMsMC4xLTAuNSwwLjItMC43YzAuMS0wLjIsMC4yLTAuNCwwLjMtMC42YzAuMi0wLjIsMC40LTAuNCwwLjctMC40YzAuMSwwLDAuMSwwLDAuMiwwYzAuMSwwLDAuMSwwLDAuMiwwaDMuOCYjMTA7JiM5OyYjOTsmIzk7YzAuMiwwLDAuNSwwLjEsMC43LDAuMmMwLjMsMC4yLDAuNCwwLjUsMC40LDAuOGMwLjEsMC40LDAuMSwwLjcsMC4yLDFjMC4xLDAuOCwwLjMsMS42LDAuNCwyLjVzMC4zLDEuNiwwLjQsMi41JiMxMDsmIzk7JiM5OyYjOTtjMC4xLDAuNCwwLjIsMC45LDAuMywxLjRjMC4xLDAuNSwwLjIsMC45LDAuMywxLjRjMC4xLDAuMiwwLjEsMC40LDAuMSwwLjZjMCwwLjIsMC4yLDAuMywwLjMsMC40YzAuMSwwLjEsMC4zLDAsMC40LTAuMSYjMTA7JiM5OyYjOTsmIzk7YzAuMS0wLjEsMC4yLTAuMiwwLjMtMC4zYzAuMy0wLjMsMC41LTAuNiwwLjctMWMwLjItMC40LDAuNC0wLjcsMC42LTEuMWMwLjYtMSwxLjItMS45LDEuNy0yLjlzMS4xLTIsMS44LTMmIzEwOyYjOTsmIzk7JiM5O2MwLjItMC40LDAuNS0wLjgsMC43LTEuM2MwLjItMC40LDAuNi0wLjgsMS0xYzAuMi0wLjEsMC40LTAuMSwwLjYtMC4xaDMuMmMwLjIsMCwwLjMsMCwwLjUsMGgwLjJjMC4xLDAuMSwwLjIsMC4xLDAuMywwLjEmIzEwOyYjOTsmIzk7JiM5O0M3OTEuMSwyNDUuMyw3OTEuMiwyNDUuNCw3OTEuMiwyNDUuNUw3OTEuMiwyNDUuNXoiIGlkPSJwYXRoNDMyOCIvPiYjeGE7CTwvZz4mI3hhOwk8ZyBpZD0iZzQ3MDEiPiYjeGE7CQkmI3hhOwkJCTxsaW5lYXJHcmFkaWVudCBncmFkaWVudFRyYW5zZm9ybT0ibWF0cml4KDcuMDAwMDAwZS0wMiAtMC4xMSAwLjExIDcuMDAwMDAwZS0wMiA5OTUuMTcxMiAtOTU1LjQxMzYpIiB5Mj0iMjExOS4yNDQ2IiB4Mj0iLTk1NzYuMTI0IiB5MT0iMTkyNS44NTQ3IiB4MT0iLTk3NDEuNTEzNyIgZ3JhZGllbnRVbml0cz0idXNlclNwYWNlT25Vc2UiIGlkPSJwYXRoNDcxMF8wMDAwMDExMTE2MjIxMzYyNTQ2MzI4MDUxMDAwMDAxODA2NDUzOTkxNDU0NDk3Mjk1M18iPiYjeGE7CQkJPHN0b3Agc3R5bGU9InN0b3AtY29sb3I6I0Y2OTkyMyIgb2Zmc2V0PSIwIi8+JiN4YTsJCQk8c3RvcCBzdHlsZT0ic3RvcC1jb2xvcjojRjc5QTIzIiBvZmZzZXQ9IjAuMzEiLz4mI3hhOwkJCTxzdG9wIHN0eWxlPSJzdG9wLWNvbG9yOiNFOTc4MjYiIG9mZnNldD0iMC44NCIvPiYjeGE7CQk8L2xpbmVhckdyYWRpZW50PiYjeGE7CQk8cGF0aCBkPSJNNTAyLDI0NCYjMTA7JiM5OyYjOTsmIzk7Yy0yLjYsMS4xLTcuMyw0LjYtMTMsOS44bDMuMiw5YzMuNS0zLjgsNy4yLTcuMywxMS4yLTEwLjVjMC4zLTAuMiwwLjQtMC40LDAuNC0wLjRzLTAuMywwLjItMC40LDAuNGMtMy44LDMuMy03LjQsNi45LTEwLjcsMTAuOCYjMTA7JiM5OyYjOTsmIzk7YzUuOSwwLjQsMTEuNywwLjYsMTcuNiwwLjRjMy4xLTkuMywwLjQtMTQuMSwwLjQtMTQuMVM1MDcuNCwyNDEuOCw1MDIsMjQ0eiIgc3R5bGU9ImZpbGw6dXJsKCNwYXRoNDcxMF8wMDAwMDExMTE2MjIxMzYyNTQ2MzI4MDUxMDAwMDAxODA2NDUzOTkxNDU0NDk3Mjk1M18pOyIgaWQ9InBhdGg0NzEwIi8+JiN4YTsJCTxwYXRoIGQ9Ik00ODcuNCwyOTAuN0M0ODcuNCwyOTAuOCw0ODcuNSwyOTAuOCw0ODcuNCwyOTAuN2gtMC42YzAsMC0wLjEsMC0wLjEsMEg0ODcuNHoiIGNsYXNzPSJzdDEiIGlkPSJwYXRoNDcxMiIvPiYjeGE7CQk8cGF0aCBkPSJNNDgwLjcsMzA1LjFjLTAuNCwwLTAuOCwwLTEuMSwwQzQ3OS45LDMwNS4xLDQ4MC4zLDMwNS4xLDQ4MC43LDMwNS4xeiIgY2xhc3M9InN0MSIgaWQ9InBhdGg0NzE0Ii8+JiN4YTsJCTxwYXRoIGQ9Ik00NDQuOSwzMzQuMmMwLjEtMC4xLDAuMS0wLjIsMC4yLTAuNGMxLjQtMi40LDIuNy00LjgsNC03LjFjMS41LTIuNiwyLjktNS4xLDQuNC03LjUmIzEwOyYjOTsmIzk7JiM5O3MzLTUsNC40LTcuNHMzLTQuOSw0LjUtNy4yYzEuMi0xLjksMi40LTMuNywzLjUtNS41YzAuNC0wLjYsMC44LTEuMiwxLjEtMS43YzAuOC0xLjEsMS41LTIuMiwyLjItMy4zbDItMi45JiMxMDsmIzk7JiM5OyYjOTtjMC4yLTAuMywwLjUtMC42LDAuNi0xbDAuMS0wLjJoLTAuNmwtMC4zLTAuOWMwLDAuMS0wLjEsMC4yLTAuMSwwLjJjLTEsMS40LTIsMi45LTMsNC40Yy0wLjYsMC44LTEuMSwxLjctMS43LDIuNiYjMTA7JiM5OyYjOTsmIzk7Yy0xLjYsMi40LTMuMiw0LjgtNC43LDcuMnMtMy4xLDQuOS00LjYsNy40cy0zLDQuOC00LjQsNy4zcy0yLjksNC44LTQuMyw3LjJzLTIuOSw1LTQuMyw3LjVjLTAuMywwLjUtMC42LDEuMS0wLjksMS43JiMxMDsmIzk7JiM5OyYjOTtjLTEuMSwyLTIuMiw0LTMuMyw1LjlsMC41LDEuNWgwLjZjMCwwLDAuMS0wLjEsMC4xLTAuMkM0NDIuMiwzMzkuMiw0NDMuNiwzMzYuNyw0NDQuOSwzMzQuMnoiIGNsYXNzPSJzdDEiIGlkPSJwYXRoNDcxNiIvPiYjeGE7CQk8cGF0aCBkPSJNNDc2LjcsMzEyLjJjLTAuNiwwLTEuMiwwLTEuOCwwbDAsMGMwLjMsMCwwLjYsMCwwLjksMEM0NzYuMSwzMTIuMyw0NzYuNCwzMTIuMyw0NzYuNywzMTIuMnoiIGNsYXNzPSJzdDIiIGlkPSJwYXRoNDcyMCIvPiYjeGE7CQk8cGF0aCBkPSJNNDc2LjcsMzEyLjJjLTAuNiwwLTEuMiwwLTEuOCwwbDAsMGMwLjMsMCwwLjYsMCwwLjksMEM0NzYuMSwzMTIuMyw0NzYuNCwzMTIuMyw0NzYuNywzMTIuMnoiIGNsYXNzPSJzdDMiIGlkPSJwYXRoNDcyMiIvPiYjeGE7CQkmI3hhOwkJCTxsaW5lYXJHcmFkaWVudCBncmFkaWVudFRyYW5zZm9ybT0ibWF0cml4KDcuMDAwMDAwZS0wMiAtMC4xMSAwLjExIDcuMDAwMDAwZS0wMiA5OTUuMTcxMiAtOTU1LjQxMzYpIiB5Mj0iMTcwOC44NjU2IiB4Mj0iLTk2ODAuNzAwMiIgeTE9IjE3MDguODY1NiIgeDE9Ii0xMDg2MC42MTA0IiBncmFkaWVudFVuaXRzPSJ1c2VyU3BhY2VPblVzZSIgaWQ9InBhdGg0NzM3XzAwMDAwMTI4NDc3OTk5MzIyODE4Njc2MTIwMDAwMDAzNzA4MTIzNDA0OTc1MjU3NDk2XyI+JiN4YTsJCQk8c3RvcCBzdHlsZT0ic3RvcC1jb2xvcjojOUUyMDY0IiBvZmZzZXQ9IjAuMzIiLz4mI3hhOwkJCTxzdG9wIHN0eWxlPSJzdG9wLWNvbG9yOiNDOTIwMzciIG9mZnNldD0iMC42MyIvPiYjeGE7CQkJPHN0b3Agc3R5bGU9InN0b3AtY29sb3I6I0NEMjMzNSIgb2Zmc2V0PSIwLjc1Ii8+JiN4YTsJCQk8c3RvcCBzdHlsZT0ic3RvcC1jb2xvcjojRTk3ODI2IiBvZmZzZXQ9IjEiLz4mI3hhOwkJPC9saW5lYXJHcmFkaWVudD4mI3hhOwkJPHBhdGggZD0iTTQ3NS45LDI4Mi41JiMxMDsmIzk7JiM5OyYjOTtjMS43LTIuMywzLjUtNC42LDUuMi02LjhzMy42LTQuNSw1LjQtNi42bDAuMy0wLjRjMS44LTIuMSwzLjYtNC4xLDUuNC02bC0zLjItOWMtMC40LDAuNC0wLjgsMC43LTEuMiwxLjEmIzEwOyYjOTsmIzk7JiM5O2MtMS41LDEuNC0zLjEsMi45LTQuNyw0LjVjLTEuOCwxLjgtMy43LDMuOC01LjcsNS44Yy0xLjgsMS45LTMuNiwzLjktNS41LDZjLTEuNiwxLjgtMy4xLDMuNi00LjcsNS41Yy0wLjEsMC4xLTAuMSwwLjEtMC4yLDAuMiYjMTA7JiM5OyYjOTsmIzk7bDQuMSwxMi4yQzQ3Mi43LDI4Nyw0NzQuMywyODQuNyw0NzUuOSwyODIuNXoiIHN0eWxlPSJmaWxsOnVybCgjcGF0aDQ3MzdfMDAwMDAxMjg0Nzc5OTkzMjI4MTg2NzYxMjAwMDAwMDM3MDgxMjM0MDQ5NzUyNTc0OTZfKTsiIGlkPSJwYXRoNDczNyIvPiYjeGE7CQkmI3hhOwkJCTxsaW5lYXJHcmFkaWVudCBncmFkaWVudFRyYW5zZm9ybT0ibWF0cml4KDcuMDAwMDAwZS0wMiAtMC4xMSAwLjExIDcuMDAwMDAwZS0wMiA5OTUuMTcxMiAtOTU1LjQxMzYpIiB5Mj0iMTgyMi40NDUxIiB4Mj0iLTEwMDE1LjA3MDMiIHkxPSIxODIyLjQ0NTEiIHgxPSItMTA3MTguMTc5NyIgZ3JhZGllbnRVbml0cz0idXNlclNwYWNlT25Vc2UiIGlkPSJwYXRoNDc0OF8wMDAwMDE3NjcyMjUwMzA0NjUxMDI4MjQ2MDAwMDAxMTcyNjM1NzE5MjMyMjQyNDk4OF8iPiYjeGE7CQkJPHN0b3Agc3R5bGU9InN0b3AtY29sb3I6IzI4MjY2MiIgb2Zmc2V0PSIwIi8+JiN4YTsJCQk8c3RvcCBzdHlsZT0ic3RvcC1jb2xvcjojNjYyRThEIiBvZmZzZXQ9IjAuMSIvPiYjeGE7CQkJPHN0b3Agc3R5bGU9InN0b3AtY29sb3I6IzlGMjA2NCIgb2Zmc2V0PSIwLjc5Ii8+JiN4YTsJCQk8c3RvcCBzdHlsZT0ic3RvcC1jb2xvcjojQ0QyMDMyIiBvZmZzZXQ9IjAuOTUiLz4mI3hhOwkJPC9saW5lYXJHcmFkaWVudD4mI3hhOwkJPHBhdGggZD0iTTQ0MC4xLDM0MyYjMTA7JiM5OyYjOTsmIzk7Yy0xLjEsMi0yLjIsNC0zLjIsNi4xYzAsMCwwLDAuMSwwLDAuMWMtMC4yLDAuMy0wLjMsMC42LTAuNSwwLjljLTAuNywxLjQtMS40LDIuNy0yLjksNS41YzEuNiwxLDIuNywzLjMsMy42LDUuOCYjMTA7JiM5OyYjOTsmIzk7YzAuMi0yLjUtMC41LTQuOS0yLjEtNi45YzguMywxLjYsMTUuOSwwLjUsMjAuNS01LjFjMC40LTAuNSwwLjgtMSwxLjItMS42Yy0yLDEuOS00LjIsMi41LTguMiwxLjdsMCwwYzYuMi0xLjgsOS41LTMuOSwxMi43LTcuNiYjMTA7JiM5OyYjOTsmIzk7YzAuOC0wLjksMS41LTEuOSwyLjMtM2MtNS4xLDQuMi0xMS45LDUuMy0xOC4xLDMuMWwtNC43LTAuMkM0NDAuNSwzNDIuMyw0NDAuMywzNDIuNiw0NDAuMSwzNDN6IiBzdHlsZT0iZmlsbDp1cmwoI3BhdGg0NzQ4XzAwMDAwMTc2NzIyNTAzMDQ2NTEwMjgyNDYwMDAwMDExNzI2MzU3MTkyMzIyNDI0OTg4Xyk7IiBpZD0icGF0aDQ3NDgiLz4mI3hhOwkJJiN4YTsJCQk8bGluZWFyR3JhZGllbnQgZ3JhZGllbnRUcmFuc2Zvcm09Im1hdHJpeCg3LjAwMDAwMGUtMDIgLTAuMTEgMC4xMSA3LjAwMDAwMGUtMDIgOTk1LjE3MTIgLTk1NS40MTM2KSIgeTI9IjE2OTAuNTgxMSIgeDI9Ii05NjE0LjQyOTciIHkxPSIxNjkwLjU4MTEiIHgxPSItMTA3OTQuMzM5OCIgZ3JhZGllbnRVbml0cz0idXNlclNwYWNlT25Vc2UiIGlkPSJwYXRoNDc1OV8wMDAwMDEzNzgxMTY0ODAwMDU0NjkzODY3MDAwMDAwNjI1ODE0MjI4OTQ3NzUxNDE2OV8iPiYjeGE7CQkJPHN0b3Agc3R5bGU9InN0b3AtY29sb3I6IzlFMjA2NCIgb2Zmc2V0PSIwLjMyIi8+JiN4YTsJCQk8c3RvcCBzdHlsZT0ic3RvcC1jb2xvcjojQzkyMDM3IiBvZmZzZXQ9IjAuNjMiLz4mI3hhOwkJCTxzdG9wIHN0eWxlPSJzdG9wLWNvbG9yOiNDRDIzMzUiIG9mZnNldD0iMC43NSIvPiYjeGE7CQkJPHN0b3Agc3R5bGU9InN0b3AtY29sb3I6I0U5NzgyNiIgb2Zmc2V0PSIxIi8+JiN4YTsJCTwvbGluZWFyR3JhZGllbnQ+JiN4YTsJCTxwYXRoIGQ9Ik00NDMuOSwzMzIuOCYjMTA7JiM5OyYjOTsmIzk7YzEuNC0yLjUsMi44LTUsNC4zLTcuNXMyLjgtNC44LDQuMy03LjJzMi45LTQuOSw0LjQtNy4zczMuMS00LjksNC42LTcuNHMzLjEtNC44LDQuNy03LjJjMC42LTAuOSwxLjEtMS43LDEuNy0yLjYmIzEwOyYjOTsmIzk7JiM5O2MxLTEuNSwyLTIuOSwzLTQuNGMwLTAuMSwwLjEtMC4yLDAuMi0wLjJsLTQtMTIuMmMtMC4xLDAuMS0wLjIsMC4zLTAuNCwwLjRjLTEuNywyLTMuNCw0LTUsNi4xcy0zLjMsNC4zLTUsNi41JiMxMDsmIzk7JiM5OyYjOTtjLTEuNCwxLjktMi43LDMuOC00LjEsNS43Yy0wLjMsMC40LTAuNSwwLjgtMC44LDEuMmMtMS42LDIuNC0zLjIsNC44LTQuNSw3Yy0xLjYsMi42LTMsNS00LjIsNy40Yy0wLjgsMS41LTEuNiwzLTIuMyw0LjUmIzEwOyYjOTsmIzk7JiM5O2MtMC42LDEuMi0xLjIsMi41LTEuNywzLjdjLTEuMywyLjktMi41LDUuOC0zLjUsOC43bDQuMSwxMi40YzEtMS45LDIuMi0zLjksMy4zLTUuOUM0NDMuMiwzMzQsNDQzLjUsMzMzLjQsNDQzLjksMzMyLjh6IiBzdHlsZT0iZmlsbDp1cmwoI3BhdGg0NzU5XzAwMDAwMTM3ODExNjQ4MDAwNTQ2OTM4NjcwMDAwMDA2MjU4MTQyMjg5NDc3NTE0MTY5Xyk7IiBpZD0icGF0aDQ3NTkiLz4mI3hhOwkJJiN4YTsJCQk8bGluZWFyR3JhZGllbnQgZ3JhZGllbnRUcmFuc2Zvcm09Im1hdHJpeCg3LjAwMDAwMGUtMDIgLTAuMTEgMC4xMSA3LjAwMDAwMGUtMDIgOTk1LjE3MTIgLTk1NS40MTM2KSIgeTI9IjE3MDEuNDQ2OCIgeDI9Ii0xMDA4OC4yMSIgeTE9IjE3MDEuNDQ2OCIgeDE9Ii0xMDcwOC4yOSIgZ3JhZGllbnRVbml0cz0idXNlclNwYWNlT25Vc2UiIGlkPSJwYXRoNDc3MF8wMDAwMDA2Mjg5OTM0NDc4ODAzNjUwNzYwMDAwMDAxMzE1NjEzODU3MTUxMzE2ODU2OF8iPiYjeGE7CQkJPHN0b3Agc3R5bGU9InN0b3AtY29sb3I6IzI4MjY2MiIgb2Zmc2V0PSIwIi8+JiN4YTsJCQk8c3RvcCBzdHlsZT0ic3RvcC1jb2xvcjojNjYyRThEIiBvZmZzZXQ9IjAuMSIvPiYjeGE7CQkJPHN0b3Agc3R5bGU9InN0b3AtY29sb3I6IzlGMjA2NCIgb2Zmc2V0PSIwLjc5Ii8+JiN4YTsJCQk8c3RvcCBzdHlsZT0ic3RvcC1jb2xvcjojQ0QyMDMyIiBvZmZzZXQ9IjAuOTUiLz4mI3hhOwkJPC9saW5lYXJHcmFkaWVudD4mI3hhOwkJPHBhdGggZD0iTTQzNS4zLDMyOC40JiMxMDsmIzk7JiM5OyYjOTtjLTEuMywzLjUtMi4zLDcuMS0zLjEsMTAuOGMwLDAuMS0wLjEsMC4zLTAuMSwwLjRjLTEuNC0zLjItNS44LTYuNy01LjgtNi43YzIuNyw1LjYsNC42LDEwLjksNC4zLDE1LjljLTEuOSwwLjEtNC40LTAuOC03LjItMi4zJiMxMDsmIzk7JiM5OyYjOTtjMi43LDMuMyw0LjgsNC40LDUuNyw0LjdjLTIuOC0wLjItNi4xLDEuMy05LjQsMy4xYzQuNi0xLjEsOC4yLTEuMywxMC42LTAuNGMtNS42LDEwLjYtMTEuNCwyMi41LTE3LjMsMzUuMSYjMTA7JiM5OyYjOTsmIzk7YzEuMi0wLjIsMi4yLTAuOSwyLjctMmMxLTIuMyw4LjEtMTcuMiwxOC41LTM2LjhjMC4zLTAuNSwwLjYtMS4xLDAuOS0xLjdjMC4xLTAuMiwwLjItMC4zLDAuMi0wLjVjMS4xLTIsMi4yLTQuMSwzLjQtNi4zJiMxMDsmIzk7JiM5OyYjOTtjMC4zLTAuNSwwLjUtMSwwLjgtMS41bDAsMGwtNC4xLTEyLjNDNDM1LjQsMzI4LjIsNDM1LjQsMzI4LjMsNDM1LjMsMzI4LjR6IiBzdHlsZT0iZmlsbDp1cmwoI3BhdGg0NzcwXzAwMDAwMDYyODk5MzQ0Nzg4MDM2NTA3NjAwMDAwMDEzMTU2MTM4NTcxNTEzMTY4NTY4Xyk7IiBpZD0icGF0aDQ3NzAiLz4mI3hhOwkJJiN4YTsJCQk8bGluZWFyR3JhZGllbnQgZ3JhZGllbnRUcmFuc2Zvcm09Im1hdHJpeCg3LjAwMDAwMGUtMDIgLTAuMTEgMC4xMSA3LjAwMDAwMGUtMDIgOTk1LjE3MTIgLTk1NS40MTM2KSIgeTI9IjE4MTguNjQ1MyIgeDI9Ii05NjE0LjQyOTciIHkxPSIxODE4LjY0NTMiIHgxPSItMTA3OTQuMzM5OCIgZ3JhZGllbnRVbml0cz0idXNlclNwYWNlT25Vc2UiIGlkPSJwYXRoNDc4MV8wMDAwMDAwNDUyNzg2MzYyNjE4NTkxMDQxMDAwMDAwMDY3OTA1MzQ0ODc1NTM5ODA2OV8iPiYjeGE7CQkJPHN0b3Agc3R5bGU9InN0b3AtY29sb3I6IzlFMjA2NCIgb2Zmc2V0PSIwLjMyIi8+JiN4YTsJCQk8c3RvcCBzdHlsZT0ic3RvcC1jb2xvcjojQzkyMDM3IiBvZmZzZXQ9IjAuNjMiLz4mI3hhOwkJCTxzdG9wIHN0eWxlPSJzdG9wLWNvbG9yOiNDRDIzMzUiIG9mZnNldD0iMC43NSIvPiYjeGE7CQkJPHN0b3Agc3R5bGU9InN0b3AtY29sb3I6I0U5NzgyNiIgb2Zmc2V0PSIxIi8+JiN4YTsJCTwvbGluZWFyR3JhZGllbnQ+JiN4YTsJCTxwYXRoIGQ9Ik00NzEuOSwyOTAuMyYjMTA7JiM5OyYjOTsmIzk7Yy0wLjIsMC4zLTAuNCwwLjYtMC42LDFjLTAuNiwxLTEuMywxLjktMiwyLjlzLTEuNCwyLjItMi4yLDMuM2MtMC40LDAuNi0wLjgsMS4xLTEuMSwxLjdjLTEuMSwxLjgtMi4zLDMuNi0zLjUsNS41JiMxMDsmIzk7JiM5OyYjOTtjLTEuNSwyLjMtMi45LDQuNy00LjUsNy4ycy0yLjksNC44LTQuNCw3LjRzLTIuOSw0LjktNC40LDcuNWMtMS4zLDIuMy0yLjYsNC43LTQsNy4xYy0wLjEsMC4xLTAuMSwwLjItMC4yLDAuNCYjMTA7JiM5OyYjOTsmIzk7Yy0xLjMsMi40LTIuNyw0LjktNC4xLDcuNWMwLDAtMC4xLDAuMS0wLjEsMC4ybDQuNywwLjJjLTAuMSwwLTAuMi0wLjEtMC4zLTAuMWM1LjcsMC4xLDEzLjgtMywxOS4zLTcuNGMyLjctMi4yLDUuMi00LjgsNy4zLTcuNSYjMTA7JiM5OyYjOTsmIzk7YzEuOS0yLjQsMy42LTQuOSw1LjEtNy42YzEuNS0yLjUsMi45LTUuMiw0LjQtOC4xYy0xLjUsMC41LTMsMC44LTQuNiwwLjloLTAuOWMtMC4zLDAtMC42LDAtMC45LDBsMCwwYzUuNS0xLjIsOS40LTQuNiwxMi40LTkmIzEwOyYjOTsmIzk7JiM5O2MtMi4xLDEtNC40LDEuNi02LjcsMS44Yy0wLjQsMC0wLjcsMC0xLjEsMGgtMC4zYzEuOC0wLjQsMy41LTEuMSw1LTEuOWMwLjMtMC4yLDAuNi0wLjMsMC45LTAuNWMwLjUtMC4zLDAuOS0wLjYsMS4zLTAuOSYjMTA7JiM5OyYjOTsmIzk7YzAuMy0wLjIsMC41LTAuNCwwLjgtMC42YzAuNi0wLjUsMS4yLTEuMSwxLjgtMS44YzAuMi0wLjIsMC4zLTAuNCwwLjUtMC42YzAuMi0wLjMsMC41LTAuNiwwLjYtMC45YzAuOS0xLjQsMS43LTIuNiwyLjMtMy43JiMxMDsmIzk7JiM5OyYjOTtjMC4zLTAuNSwwLjYtMSwwLjktMS41YzAuMS0wLjIsMC4yLTAuNCwwLjMtMC41YzAuMi0wLjUsMC41LTEsMC43LTEuNGMwLjItMC41LDAuNC0xLDAuNi0xLjVsMCwwYy0wLjIsMC4xLTAuNCwwLjItMC43LDAuMyYjMTA7JiM5OyYjOTsmIzk7Yy0yLjIsMC44LTQuNSwxLjItNi44LDEuM2w0LjQsMC4ybC00LjQtMC4yYzAsMC0wLjEsMC0wLjEsMGMtMC4yLDAtMC41LDAtMC43LDBjMCwwLDAuMSwwLDAuMSwwbC0xNC45LTAuNiYjMTA7JiM5OyYjOTsmIzk7QzQ3MS45LDI5MC4yLDQ3MS45LDI5MC4zLDQ3MS45LDI5MC4zeiIgc3R5bGU9ImZpbGw6dXJsKCNwYXRoNDc4MV8wMDAwMDAwNDUyNzg2MzYyNjE4NTkxMDQxMDAwMDAwMDY3OTA1MzQ0ODc1NTM5ODA2OV8pOyIgaWQ9InBhdGg0NzgxIi8+JiN4YTsJCSYjeGE7CQkJPGxpbmVhckdyYWRpZW50IGdyYWRpZW50VHJhbnNmb3JtPSJtYXRyaXgoNy4wMDAwMDBlLTAyIC0wLjExIDAuMTEgNy4wMDAwMDBlLTAyIDk5NS4xNzEyIC05NTUuNDEzNikiIHkyPSIxODE2LjgyNTEiIHgyPSItOTY4Ny42MjAxIiB5MT0iMTgxNi44MjUxIiB4MT0iLTEwODY3LjUzMDMiIGdyYWRpZW50VW5pdHM9InVzZXJTcGFjZU9uVXNlIiBpZD0icGF0aDQ3OTJfMDAwMDAxNTE1MTgxMjQwMjEyODgzOTQ4NzAwMDAwMTY0NTYwOTM2NzUzNDQzMjcwNjZfIj4mI3hhOwkJCTxzdG9wIHN0eWxlPSJzdG9wLWNvbG9yOiM5RTIwNjQiIG9mZnNldD0iMC4zMiIvPiYjeGE7CQkJPHN0b3Agc3R5bGU9InN0b3AtY29sb3I6I0M5MjAzNyIgb2Zmc2V0PSIwLjYzIi8+JiN4YTsJCQk8c3RvcCBzdHlsZT0ic3RvcC1jb2xvcjojQ0QyMzM1IiBvZmZzZXQ9IjAuNzUiLz4mI3hhOwkJCTxzdG9wIHN0eWxlPSJzdG9wLWNvbG9yOiNFOTc4MjYiIG9mZnNldD0iMSIvPiYjeGE7CQk8L2xpbmVhckdyYWRpZW50PiYjeGE7CQk8cGF0aCBkPSJNNDkyLjcsMjYzLjEmIzEwOyYjOTsmIzk7JiM5O2MtMS42LDEuOC0zLjQsMy45LTUuMyw2LjJjLTAuMSwwLjEtMC4yLDAuMi0wLjMsMC40Yy0xLjcsMi0zLjQsNC4zLTUuMyw2LjhjLTEuNiwyLjEtMy4zLDQuNC01LjEsNi45Yy0xLjYsMi4xLTMuMSw0LjQtNC44LDYuOSYjMTA7JiM5OyYjOTsmIzk7bDE0LjksMC42YzQuNS0xLjQsNi43LTIuOCw5LTUuMWMwLjYtMC42LDEuMi0xLjMsMS44LTJjMS45LTIuMSwzLjctNC41LDUuNC02LjljMS41LTIuMiwzLTQuNCw0LjMtNi43YzAuNy0xLjIsMS4zLTIuNCwxLjktMy43JiMxMDsmIzk7JiM5OyYjOTtjMC40LTEsMC44LTEuOSwxLjEtMi44QzUwNC41LDI2My43LDQ5OC42LDI2My41LDQ5Mi43LDI2My4xeiIgc3R5bGU9ImZpbGw6dXJsKCNwYXRoNDc5Ml8wMDAwMDE1MTUxODEyNDAyMTI4ODM5NDg3MDAwMDAxNjQ1NjA5MzY3NTM0NDMyNzA2Nl8pOyIgaWQ9InBhdGg0NzkyIi8+JiN4YTsJCTxwYXRoIGQ9Ik00NzUuOCwzMTIuM2gtMC45QzQ3NS4yLDMxMi4zLDQ3NS41LDMxMi4zLDQ3NS44LDMxMi4zeiIgY2xhc3M9InN0MiIgaWQ9InBhdGg0Nzk0Ii8+JiN4YTsJCTxwYXRoIGQ9Ik00NzUuOCwzMTIuM2gtMC45QzQ3NS4yLDMxMi4zLDQ3NS41LDMxMi4zLDQ3NS44LDMxMi4zeiIgY2xhc3M9InN0MyIgaWQ9InBhdGg0Nzk2Ii8+JiN4YTsJCSYjeGE7CQkJPGxpbmVhckdyYWRpZW50IGdyYWRpZW50VHJhbnNmb3JtPSJtYXRyaXgoNy4wMDAwMDBlLTAyIC0wLjExIDAuMTEgNy4wMDAwMDBlLTAyIDk5NS4xNzEyIC05NTUuNDEzNikiIHkyPSIxODU2LjU0NzciIHgyPSItOTYxNC40Mjk3IiB5MT0iMTg1Ni41NDc3IiB4MT0iLTEwNzk0LjMzOTgiIGdyYWRpZW50VW5pdHM9InVzZXJTcGFjZU9uVXNlIiBpZD0icGF0aDQ4MDdfMDAwMDAxMjkxNzU5MDY4MzYzMzUyOTA1NDAwMDAwMTY5ODY2NjA2Njg1ODMxNDUxMjZfIj4mI3hhOwkJCTxzdG9wIHN0eWxlPSJzdG9wLWNvbG9yOiM5RTIwNjQiIG9mZnNldD0iMC4zMiIvPiYjeGE7CQkJPHN0b3Agc3R5bGU9InN0b3AtY29sb3I6I0M5MjAzNyIgb2Zmc2V0PSIwLjYzIi8+JiN4YTsJCQk8c3RvcCBzdHlsZT0ic3RvcC1jb2xvcjojQ0QyMzM1IiBvZmZzZXQ9IjAuNzUiLz4mI3hhOwkJCTxzdG9wIHN0eWxlPSJzdG9wLWNvbG9yOiNFOTc4MjYiIG9mZnNldD0iMSIvPiYjeGE7CQk8L2xpbmVhckdyYWRpZW50PiYjeGE7CQk8cGF0aCBkPSJNNDc1LjgsMzEyLjNoLTAuOSYjMTA7JiM5OyYjOTsmIzk7QzQ3NS4yLDMxMi4zLDQ3NS41LDMxMi4zLDQ3NS44LDMxMi4zeiIgc3R5bGU9ImZpbGw6dXJsKCNwYXRoNDgwN18wMDAwMDEyOTE3NTkwNjgzNjMzNTI5MDU0MDAwMDAxNjk4NjY2MDY2ODU4MzE0NTEyNl8pOyIgaWQ9InBhdGg0ODA3Ii8+JiN4YTsJPC9nPiYjeGE7PC9nPiYjeGE7PC9zdmc+" vertex="1" parent="S7hA1KW036Cgnqv6eDFZ-8">
          <mxGeometry x="31.560000000000002" y="60" width="86.87" height="60" as="geometry" />
        </mxCell>
        <mxCell id="S7hA1KW036Cgnqv6eDFZ-33" value="" style="shape=image;verticalLabelPosition=bottom;verticalAlign=top;imageAspect=0;aspect=fixed;image=data:image/svg+xml,PHN2ZyB4bWxucz0iaHR0cDovL3d3dy53My5vcmcvMjAwMC9zdmciIHZpZXdCb3g9IjYuNTI3IDQuMzk5IDI5MC44MjkgNTQwLjkwNiIgaGVpZ2h0PSIyNTAwIiB3aWR0aD0iMTM0NCI+JiN4YTsgIDxwYXRoIGZpbGw9IiNlNzZmMDAiIGQ9Ik0yODUuMTA0IDQzMC45NDVoLTIuMDM3di0xLjE0aDUuNDg2djEuMTRoLTIuMDI1djUuNjg4aC0xLjQyNHYtNS42ODh6bTEwLjk0Mi4yOTdoLS4wMzJsLTIuMDIgNS4zOTNoLS45MjRsLTIuMDA2LTUuMzkzaC0uMDI0djUuMzkzaC0xLjM0M3YtNi44MjhoMS45NzZsMS44NiA0LjgzNSAxLjg1NC00LjgzNWgxLjk2OXY2LjgyOGgtMS4zMTFsLjAwMS01LjM5M3oiLz4mI3hhOyAgPHBhdGggZmlsbD0iIzUzODJhMSIgZD0iTTEwMi42ODEgMjkxLjMyNHMtMTQuMTc4IDguMjQ1IDEwLjA5IDExLjAzNWMyOS40IDMuMzU0IDQ0LjQyNiAyLjg3MyA3Ni44MjUtMy4yNTkgMCAwIDguNTE4IDUuMzQxIDIwLjQxNCA5Ljk2Ny03Mi42MyAzMS4xMjgtMTY0LjM3Ni0xLjgwMy0xMDcuMzI5LTE3Ljc0M005My44MDYgMjUwLjcwNHMtMTUuOTAyIDExLjc3MSA4LjM4NCAxNC4yODNjMzEuNDA2IDMuMjQgNTYuMjA4IDMuNTA1IDk5LjEyNS00Ljc1OSAwIDAgNS45MzcgNi4wMTggMTUuMjcxIDkuMzA5LTg3LjgxNSAyNS42NzgtMTg1LjYyNCAyLjAyNS0xMjIuNzgtMTguODMzIi8+JiN4YTsgIDxwYXRoIGZpbGw9IiNlNzZmMDAiIGQ9Ik0xNjguNjI1IDE4MS43OTljMTcuODk2IDIwLjYwNC00LjcwMSAzOS4xNDYtNC43MDEgMzkuMTQ2czQ1LjQzOS0yMy40NTggMjQuNTcxLTUyLjgzM2MtMTkuNDkxLTI3LjM5NS0zNC40MzgtNDEuMDA1IDQ2LjQ3OS04Ny45MzQuMDAxLS4wMDEtMTI3LjAxMyAzMS43MjEtNjYuMzQ5IDEwMS42MjEiLz4mI3hhOyAgPHBhdGggZmlsbD0iIzUzODJhMSIgZD0iTTI2NC42ODQgMzIxLjM2OXMxMC40OTIgOC42NDYtMTEuNTU1IDE1LjMzM2MtNDEuOTIzIDEyLjctMTc0LjQ4OCAxNi41MzUtMjExLjMxNC41MDctMTMuMjM4LTUuNzYgMTEuNTg3LTEzLjc1MiAxOS4zOTYtMTUuNDI5IDguMTQ0LTEuNzY2IDEyLjc5OC0xLjQzNyAxMi43OTgtMS40MzctMTQuNzIyLTEwLjM3MS05NS4xNTcgMjAuMzYzLTQwLjg1NyAyOS4xNjYgMTQ4LjA4NCAyNC4wMTUgMjY5Ljk0NC0xMC44MTQgMjMxLjUzMi0yOC4xNE0xMDkuNDk5IDIwOC42MTdzLTY3LjQzMSAxNi4wMTYtMjMuODc5IDIxLjgzMmMxOC4zODkgMi40NjIgNTUuMDQ3IDEuOTA1IDg5LjE5Mi0uOTU2IDI3LjkwNi0yLjM1NCA1NS45MjgtNy4zNTggNTUuOTI4LTcuMzU4cy05Ljg0IDQuMjE0LTE2Ljk1OSA5LjA3NGMtNjguNDc1IDE4LjAxLTIwMC43NTYgOS42MzEtMTYyLjY3NC04Ljc5IDMyLjIwNi0xNS41NjggNTguMzkyLTEzLjgwMiA1OC4zOTItMTMuODAyTTIzMC40NjIgMjc2LjIzMWM2OS42MDgtMzYuMTcxIDM3LjQyNS03MC45MzIgMTQuOTYtNjYuMjQ4LTUuNTA2IDEuMTQ2LTcuOTYxIDIuMTM5LTcuOTYxIDIuMTM5czIuMDQ1LTMuMjAyIDUuOTQ3LTQuNTg4YzQ0LjQ0MS0xNS42MjQgNzguNjE5IDQ2LjA4MS0xNC4zNDYgNzAuNTIxIDAgMCAxLjA3OS0uOTYyIDEuNC0xLjgyNCIvPiYjeGE7ICA8cGF0aCBmaWxsPSIjZTc2ZjAwIiBkPSJNMTg4LjQ5NSA0LjM5OXMzOC41NSAzOC41NjItMzYuNTYzIDk3Ljg2MmMtNjAuMjMzIDQ3LjU2Ny0xMy43MzUgNzQuNjg5LS4wMjUgMTA1LjY3OC0zNS4xNTgtMzEuNzIzLTYwLjk2LTU5LjY0Ny00My42NS04NS42MzcgMjUuNDA2LTM4LjE1MSA5NS43OTItNTYuNjQ4IDgwLjIzOC0xMTcuOTAzIi8+JiN4YTsgIDxwYXRoIGZpbGw9IiM1MzgyYTEiIGQ9Ik0xMTYuMzM5IDM3NC4yNDZjNjYuODE1IDQuMjc3IDE2OS40MTctMi4zNzMgMTcxLjg0Ni0zMy45ODcgMCAwLTQuNjcgMTEuOTg0LTU1LjIxOSAyMS41MDMtNTcuMDI3IDEwLjczMS0xMjcuMzY0IDkuNDc5LTE2OS4wODEgMi42MDEuMDAyLS4wMDIgOC41NDEgNy4wNjcgNTIuNDU0IDkuODgzIi8+JiN4YTsgIDxwYXRoIGZpbGw9IiNlNzZmMDAiIGQ9Ik0xMDUuMzg5IDQ5NS4wNDljLTYuMzAzIDUuNDY3LTEyLjk2IDguNTM2LTE4LjkzNCA4LjUzNi04LjUyNyAwLTEzLjEzNC01LjExMy0xMy4xMzQtMTMuMzE0IDAtOC44NzEgNC45MzctMTUuMzU3IDI0LjczOS0xNS4zNTdoNy4zMjhsLjAwMSAyMC4xMzVtMTcuMzkyIDE5LjYyM1Y0NTMuOTNjMC0xNS41MTgtOC44NS0yNS43NTYtMzAuMTg4LTI1Ljc1Ni0xMi40NTcgMC0yMy4zNjkgMy4wNzYtMzIuMjM4IDYuOTk5bDIuNTYgMTAuNzUyYzYuOTgzLTIuNTYzIDE2LjAyMi00Ljk0OSAyNC44OTQtNC45NDkgMTIuMjkyIDAgMTcuNTggNC45NDkgMTcuNTggMTUuMTgxdjcuNjc4aC02LjEzNWMtMjkuODY1IDAtNDMuMzM3IDExLjU5My00My4zMzcgMjguOTkzIDAgMTUuMDE4IDguODc4IDIzLjU1NCAyNS41OTQgMjMuNTU0IDEwLjc0NSAwIDE4Ljc2Ni00LjQzNyAyNi4yNjQtMTAuOTI5bDEuMzYxIDkuMjIxIDEzLjY0NS0uMDAyek0xODAuODI0IDUxNC42NzJoLTIxLjY5MWwtMjYuMTA2LTg0Ljk2aDE4Ljk0NGwxNi4xOTggNTIuMTk5IDMuNjAxIDE1LjY5OWM4LjE5NS0yMi42OTggMTMuOTkyLTQ1LjcyNiAxNi44OTEtNjcuODk4aDE4LjQyN2MtNC45MzggMjcuOTc2LTEzLjgyMiA1OC42ODQtMjYuMjY0IDg0Ljk2TTI2NC4wMzggNDk1LjA0OWMtNi4zMTUgNS40NjctMTIuOTgzIDguNTM2LTE4Ljk1OCA4LjUzNi04LjUxMiAwLTEzLjEzMS01LjExMy0xMy4xMzEtMTMuMzE0IDAtOC44NzEgNC45NDctMTUuMzU3IDI0Ljc0OC0xNS4zNTdoNy4zNDF2MjAuMTM1bTE3LjM5IDE5LjYyM1Y0NTMuOTNjMC0xNS41MTgtOC44NzEtMjUuNzU2LTMwLjE4Ni0yNS43NTYtMTIuNDY1IDAtMjMuMzgxIDMuMDc2LTMyLjI0NiA2Ljk5OWwyLjU1NyAxMC43NTJjNi45ODUtMi41NjMgMTYuMDQxLTQuOTQ5IDI0LjkwNi00Ljk0OSAxMi4yODMgMCAxNy41NzkgNC45NDkgMTcuNTc5IDE1LjE4MXY3LjY3OGgtNi4xNDZjLTI5Ljg3MyAwLTQzLjM0IDExLjU5My00My4zNCAyOC45OTMgMCAxNS4wMTggOC44NzEgMjMuNTU0IDI1LjU4NCAyMy41NTQgMTAuNzUyIDAgMTguNzctNC40MzcgMjYuMjgtMTAuOTI5bDEuMzY2IDkuMjIxIDEzLjY0Ni0uMDAyek0zNi44NDcgNTI5LjA5OWMtNC45NTggNy4yMzktMTIuOTY2IDEyLjk2Ni0yMS43MzMgMTYuMjA2TDYuNTI3IDUzNS4yYzYuNjczLTMuNDI0IDEyLjM5Ni04Ljk1NCAxNS4wNTUtMTQuMTA0IDIuMy00LjU4MSAzLjI1Mi0xMC40ODUgMy4yNTItMjQuNjA0di05Ni45OTVoMTguNDc4djk1LjY2NmMtLjAwMSAxOC44NzUtMS41MSAyNi41LTYuNDY1IDMzLjkzNiIvPiYjeGE7PC9zdmc+" vertex="1" parent="1">
          <mxGeometry x="1124.03" y="344.01" width="35.48" height="66" as="geometry" />
        </mxCell>
      </root>
    </mxGraphModel>
  </diagram>
</mxfile>
